<svg xmlns="http://www.w3.org/2000/svg" xmlns:xlink="http://www.w3.org/1999/xlink" width="800" zoomAndPan="magnify" viewBox="0 0 600 449.999984" height="600" preserveAspectRatio="xMidYMid meet" version="1.0"><defs><g/></defs><g fill="#ff66c4" fill-opacity="1"><g transform="translate(28.82867, 186.099961)"><g><path d="M 93.171875 0 L 72.984375 0 L 65.671875 -22.375 L 28.484375 -22.375 L 21.1875 0 L 1.46875 0 L 35 -97.09375 L 59.640625 -97.09375 Z M 46.15625 -76.828125 L 33.671875 -38.515625 L 60.359375 -38.515625 L 47.8125 -76.828125 Z M 46.15625 -76.828125 "/></g></g></g><g fill="#ff66c4" fill-opacity="1"><g transform="translate(123.454857, 186.099961)"><g><path d="M 36.1875 1.390625 C 30.394531 1.390625 25.269531 -0.015625 20.8125 -2.828125 C 16.363281 -5.640625 12.878906 -9.890625 10.359375 -15.578125 C 7.835938 -21.265625 6.578125 -28.269531 6.578125 -36.59375 C 6.578125 -44.957031 7.867188 -51.984375 10.453125 -57.671875 C 13.046875 -63.359375 16.632812 -67.609375 21.21875 -70.421875 C 25.800781 -73.234375 31.101562 -74.640625 37.125 -74.640625 C 41.6875 -74.640625 45.632812 -73.851562 48.96875 -72.28125 C 52.3125 -70.707031 55.132812 -68.265625 57.4375 -64.953125 L 58.84375 -65.28125 L 58.84375 -102.671875 L 77.234375 -102.671875 L 77.234375 0 L 58.84375 0 L 58.84375 -9.5 L 57.4375 -9.765625 C 55.40625 -6.304688 52.617188 -3.582031 49.078125 -1.59375 C 45.535156 0.394531 41.238281 1.390625 36.1875 1.390625 Z M 42.171875 -14.21875 C 47.347656 -14.21875 51.441406 -16.0625 54.453125 -19.75 C 57.460938 -23.445312 58.96875 -29.0625 58.96875 -36.59375 C 58.96875 -44.113281 57.460938 -49.734375 54.453125 -53.453125 C 51.441406 -57.171875 47.347656 -59.03125 42.171875 -59.03125 C 36.765625 -59.03125 32.632812 -57.226562 29.78125 -53.625 C 26.925781 -50.019531 25.5 -44.34375 25.5 -36.59375 C 25.5 -28.882812 26.925781 -23.226562 29.78125 -19.625 C 32.632812 -16.019531 36.765625 -14.21875 42.171875 -14.21875 Z M 42.171875 -14.21875 "/></g></g></g><g fill="#ff66c4" fill-opacity="1"><g transform="translate(211.241391, 186.099961)"><g><path d="M 36.1875 1.390625 C 30.394531 1.390625 25.269531 -0.015625 20.8125 -2.828125 C 16.363281 -5.640625 12.878906 -9.890625 10.359375 -15.578125 C 7.835938 -21.265625 6.578125 -28.269531 6.578125 -36.59375 C 6.578125 -44.957031 7.867188 -51.984375 10.453125 -57.671875 C 13.046875 -63.359375 16.632812 -67.609375 21.21875 -70.421875 C 25.800781 -73.234375 31.101562 -74.640625 37.125 -74.640625 C 41.6875 -74.640625 45.632812 -73.851562 48.96875 -72.28125 C 52.3125 -70.707031 55.132812 -68.265625 57.4375 -64.953125 L 58.84375 -65.28125 L 58.84375 -102.671875 L 77.234375 -102.671875 L 77.234375 0 L 58.84375 0 L 58.84375 -9.5 L 57.4375 -9.765625 C 55.40625 -6.304688 52.617188 -3.582031 49.078125 -1.59375 C 45.535156 0.394531 41.238281 1.390625 36.1875 1.390625 Z M 42.171875 -14.21875 C 47.347656 -14.21875 51.441406 -16.0625 54.453125 -19.75 C 57.460938 -23.445312 58.96875 -29.0625 58.96875 -36.59375 C 58.96875 -44.113281 57.460938 -49.734375 54.453125 -53.453125 C 51.441406 -57.171875 47.347656 -59.03125 42.171875 -59.03125 C 36.765625 -59.03125 32.632812 -57.226562 29.78125 -53.625 C 26.925781 -50.019531 25.5 -44.34375 25.5 -36.59375 C 25.5 -28.882812 26.925781 -23.226562 29.78125 -19.625 C 32.632812 -16.019531 36.765625 -14.21875 42.171875 -14.21875 Z M 42.171875 -14.21875 "/></g></g></g><g fill="#ff66c4" fill-opacity="1"><g transform="translate(299.027914, 186.099961)"><g><path d="M 10.5625 0 L 10.5625 -73.25 L 28.421875 -73.25 L 28.421875 -62.359375 L 29.8125 -62.09375 C 31.582031 -66.164062 33.90625 -69.148438 36.78125 -71.046875 C 39.664062 -72.953125 43.164062 -73.90625 47.28125 -73.90625 C 51.445312 -73.90625 54.613281 -73.195312 56.78125 -71.78125 L 53.65625 -55.921875 L 52.265625 -55.65625 C 51.066406 -56.132812 49.914062 -56.484375 48.8125 -56.703125 C 47.707031 -56.929688 46.359375 -57.046875 44.765625 -57.046875 C 39.628906 -57.046875 35.707031 -55.238281 33 -51.625 C 30.300781 -48.019531 28.953125 -42.234375 28.953125 -34.265625 L 28.953125 0 Z M 10.5625 0 "/></g></g></g><g fill="#ff66c4" fill-opacity="1"><g transform="translate(356.467683, 186.099961)"><g><path d="M 72.390625 -32.46875 L 25.296875 -32.46875 C 25.828125 -26.09375 27.640625 -21.457031 30.734375 -18.5625 C 33.835938 -15.664062 38.070312 -14.21875 43.4375 -14.21875 C 47.632812 -14.21875 51.039062 -15 53.65625 -16.5625 C 56.269531 -18.132812 58.375 -20.515625 59.96875 -23.703125 L 61.359375 -23.703125 L 73.578125 -15.875 C 71.191406 -10.738281 67.582031 -6.578125 62.75 -3.390625 C 57.925781 -0.203125 51.488281 1.390625 43.4375 1.390625 C 35.863281 1.390625 29.320312 -0.046875 23.8125 -2.921875 C 18.300781 -5.796875 14.050781 -10.078125 11.0625 -15.765625 C 8.070312 -21.460938 6.578125 -28.40625 6.578125 -36.59375 C 6.578125 -44.914062 8.144531 -51.929688 11.28125 -57.640625 C 14.425781 -63.347656 18.675781 -67.609375 24.03125 -70.421875 C 29.394531 -73.234375 35.421875 -74.640625 42.109375 -74.640625 C 52.460938 -74.640625 60.394531 -71.894531 65.90625 -66.40625 C 71.414062 -60.914062 74.171875 -52.859375 74.171875 -42.234375 C 74.171875 -38.378906 74.039062 -35.390625 73.78125 -33.265625 Z M 56.578125 -44.359375 C 56.398438 -49.941406 55.101562 -54.003906 52.6875 -56.546875 C 50.28125 -59.085938 46.753906 -60.359375 42.109375 -60.359375 C 32.804688 -60.359375 27.335938 -55.023438 25.703125 -44.359375 Z M 56.578125 -44.359375 "/></g></g></g><g fill="#ff66c4" fill-opacity="1"><g transform="translate(436.086512, 186.099961)"><g><path d="M 34.265625 1.390625 C 29.265625 1.390625 24.679688 0.804688 20.515625 -0.359375 C 16.359375 -1.535156 12.804688 -3.148438 9.859375 -5.203125 C 6.921875 -7.265625 4.742188 -9.625 3.328125 -12.28125 L 13.546875 -23.3125 L 14.9375 -23.3125 C 17.375 -20.03125 20.253906 -17.570312 23.578125 -15.9375 C 26.898438 -14.300781 30.507812 -13.484375 34.40625 -13.484375 C 37.988281 -13.484375 40.6875 -14.125 42.5 -15.40625 C 44.3125 -16.6875 45.21875 -18.523438 45.21875 -20.921875 C 45.21875 -22.773438 44.566406 -24.332031 43.265625 -25.59375 C 41.960938 -26.863281 39.847656 -27.851562 36.921875 -28.5625 L 27.234375 -30.875 C 19.972656 -32.601562 14.671875 -35.25 11.328125 -38.8125 C 7.984375 -42.375 6.3125 -46.898438 6.3125 -52.390625 C 6.3125 -56.953125 7.472656 -60.914062 9.796875 -64.28125 C 12.117188 -67.644531 15.394531 -70.210938 19.625 -71.984375 C 23.851562 -73.753906 28.78125 -74.640625 34.40625 -74.640625 C 41 -74.640625 46.460938 -73.6875 50.796875 -71.78125 C 55.140625 -69.882812 58.53125 -67.34375 60.96875 -64.15625 L 51.140625 -53.53125 L 49.8125 -53.53125 C 47.769531 -55.832031 45.472656 -57.515625 42.921875 -58.578125 C 40.378906 -59.640625 37.539062 -60.171875 34.40625 -60.171875 C 27.144531 -60.171875 23.515625 -57.910156 23.515625 -53.390625 C 23.515625 -51.484375 24.1875 -49.929688 25.53125 -48.734375 C 26.882812 -47.546875 29.265625 -46.578125 32.671875 -45.828125 L 41.703125 -43.828125 C 49.140625 -42.234375 54.570312 -39.675781 58 -36.15625 C 61.4375 -32.632812 63.15625 -27.910156 63.15625 -21.984375 C 63.15625 -17.335938 62.003906 -13.242188 59.703125 -9.703125 C 57.398438 -6.160156 54.078125 -3.425781 49.734375 -1.5 C 45.398438 0.425781 40.242188 1.390625 34.265625 1.390625 Z M 34.265625 1.390625 "/></g></g></g><g fill="#ff66c4" fill-opacity="1"><g transform="translate(503.619741, 186.099961)"><g><path d="M 34.265625 1.390625 C 29.265625 1.390625 24.679688 0.804688 20.515625 -0.359375 C 16.359375 -1.535156 12.804688 -3.148438 9.859375 -5.203125 C 6.921875 -7.265625 4.742188 -9.625 3.328125 -12.28125 L 13.546875 -23.3125 L 14.9375 -23.3125 C 17.375 -20.03125 20.253906 -17.570312 23.578125 -15.9375 C 26.898438 -14.300781 30.507812 -13.484375 34.40625 -13.484375 C 37.988281 -13.484375 40.6875 -14.125 42.5 -15.40625 C 44.3125 -16.6875 45.21875 -18.523438 45.21875 -20.921875 C 45.21875 -22.773438 44.566406 -24.332031 43.265625 -25.59375 C 41.960938 -26.863281 39.847656 -27.851562 36.921875 -28.5625 L 27.234375 -30.875 C 19.972656 -32.601562 14.671875 -35.25 11.328125 -38.8125 C 7.984375 -42.375 6.3125 -46.898438 6.3125 -52.390625 C 6.3125 -56.953125 7.472656 -60.914062 9.796875 -64.28125 C 12.117188 -67.644531 15.394531 -70.210938 19.625 -71.984375 C 23.851562 -73.753906 28.78125 -74.640625 34.40625 -74.640625 C 41 -74.640625 46.460938 -73.6875 50.796875 -71.78125 C 55.140625 -69.882812 58.53125 -67.34375 60.96875 -64.15625 L 51.140625 -53.53125 L 49.8125 -53.53125 C 47.769531 -55.832031 45.472656 -57.515625 42.921875 -58.578125 C 40.378906 -59.640625 37.539062 -60.171875 34.40625 -60.171875 C 27.144531 -60.171875 23.515625 -57.910156 23.515625 -53.390625 C 23.515625 -51.484375 24.1875 -49.929688 25.53125 -48.734375 C 26.882812 -47.546875 29.265625 -46.578125 32.671875 -45.828125 L 41.703125 -43.828125 C 49.140625 -42.234375 54.570312 -39.675781 58 -36.15625 C 61.4375 -32.632812 63.15625 -27.910156 63.15625 -21.984375 C 63.15625 -17.335938 62.003906 -13.242188 59.703125 -9.703125 C 57.398438 -6.160156 54.078125 -3.425781 49.734375 -1.5 C 45.398438 0.425781 40.242188 1.390625 34.265625 1.390625 Z M 34.265625 1.390625 "/></g></g></g><g fill="#ff66c4" fill-opacity="1"><g transform="translate(176.379444, 375.849946)"><g><path d="M 12.625 0 L 12.625 -97.09375 L 54.0625 -97.09375 C 60.03125 -97.09375 65.082031 -96.148438 69.21875 -94.265625 C 73.363281 -92.378906 76.5 -89.695312 78.625 -86.21875 C 80.75 -82.75 81.8125 -78.644531 81.8125 -73.90625 C 81.8125 -69.613281 80.769531 -65.828125 78.6875 -62.546875 C 76.613281 -59.273438 73.628906 -56.644531 69.734375 -54.65625 L 69.734375 -53.265625 C 75.835938 -51.671875 80.550781 -48.769531 83.875 -44.5625 C 87.195312 -40.351562 88.859375 -35.195312 88.859375 -29.09375 C 88.859375 -19.789062 86.054688 -12.613281 80.453125 -7.5625 C 74.847656 -2.519531 66.535156 0 55.515625 0 Z M 50.078125 -58.375 C 59.015625 -58.375 63.484375 -62.398438 63.484375 -70.453125 C 63.484375 -74.578125 62.375 -77.644531 60.15625 -79.65625 C 57.945312 -81.664062 54.585938 -82.671875 50.078125 -82.671875 L 31.8125 -82.671875 L 31.8125 -58.375 Z M 53.59375 -15.203125 C 64.175781 -15.203125 69.46875 -20.007812 69.46875 -29.625 C 69.46875 -39.269531 64.175781 -44.09375 53.59375 -44.09375 L 31.8125 -44.09375 L 31.8125 -15.203125 Z M 53.59375 -15.203125 "/></g></g></g><g fill="#ff66c4" fill-opacity="1"><g transform="translate(271.337646, 375.849946)"><g><path d="M 33.53125 1.390625 C 25.300781 1.390625 19.226562 -0.851562 15.3125 -5.34375 C 11.394531 -9.84375 9.4375 -16.296875 9.4375 -24.703125 L 9.4375 -73.25 L 27.828125 -73.25 L 27.828125 -27.03125 C 27.828125 -22.5625 28.789062 -19.296875 30.71875 -17.234375 C 32.644531 -15.171875 35.617188 -14.140625 39.640625 -14.140625 C 44.734375 -14.140625 48.695312 -15.8125 51.53125 -19.15625 C 54.363281 -22.5 55.78125 -27.757812 55.78125 -34.9375 L 55.78125 -73.25 L 74.171875 -73.25 L 74.171875 0 L 56.515625 0 L 56.515625 -10.765625 L 55.125 -11.09375 C 52.769531 -6.882812 49.898438 -3.75 46.515625 -1.6875 C 43.128906 0.363281 38.800781 1.390625 33.53125 1.390625 Z M 33.53125 1.390625 "/></g></g></g><g fill="#ff66c4" fill-opacity="1"><g transform="translate(356.069581, 375.849946)"><g><path d="M 34.265625 1.390625 C 29.265625 1.390625 24.679688 0.804688 20.515625 -0.359375 C 16.359375 -1.535156 12.804688 -3.148438 9.859375 -5.203125 C 6.921875 -7.265625 4.742188 -9.625 3.328125 -12.28125 L 13.546875 -23.3125 L 14.9375 -23.3125 C 17.375 -20.03125 20.253906 -17.570312 23.578125 -15.9375 C 26.898438 -14.300781 30.507812 -13.484375 34.40625 -13.484375 C 37.988281 -13.484375 40.6875 -14.125 42.5 -15.40625 C 44.3125 -16.6875 45.21875 -18.523438 45.21875 -20.921875 C 45.21875 -22.773438 44.566406 -24.332031 43.265625 -25.59375 C 41.960938 -26.863281 39.847656 -27.851562 36.921875 -28.5625 L 27.234375 -30.875 C 19.972656 -32.601562 14.671875 -35.25 11.328125 -38.8125 C 7.984375 -42.375 6.3125 -46.898438 6.3125 -52.390625 C 6.3125 -56.953125 7.472656 -60.914062 9.796875 -64.28125 C 12.117188 -67.644531 15.394531 -70.210938 19.625 -71.984375 C 23.851562 -73.753906 28.78125 -74.640625 34.40625 -74.640625 C 41 -74.640625 46.460938 -73.6875 50.796875 -71.78125 C 55.140625 -69.882812 58.53125 -67.34375 60.96875 -64.15625 L 51.140625 -53.53125 L 49.8125 -53.53125 C 47.769531 -55.832031 45.472656 -57.515625 42.921875 -58.578125 C 40.378906 -59.640625 37.539062 -60.171875 34.40625 -60.171875 C 27.144531 -60.171875 23.515625 -57.910156 23.515625 -53.390625 C 23.515625 -51.484375 24.1875 -49.929688 25.53125 -48.734375 C 26.882812 -47.546875 29.265625 -46.578125 32.671875 -45.828125 L 41.703125 -43.828125 C 49.140625 -42.234375 54.570312 -39.675781 58 -36.15625 C 61.4375 -32.632812 63.15625 -27.910156 63.15625 -21.984375 C 63.15625 -17.335938 62.003906 -13.242188 59.703125 -9.703125 C 57.398438 -6.160156 54.078125 -3.425781 49.734375 -1.5 C 45.398438 0.425781 40.242188 1.390625 34.265625 1.390625 Z M 34.265625 1.390625 "/></g></g></g></svg>