<svg xmlns="http://www.w3.org/2000/svg" xmlns:xlink="http://www.w3.org/1999/xlink" width="800" zoomAndPan="magnify" viewBox="0 0 600 449.999984" height="600" preserveAspectRatio="xMidYMid meet" version="1.0"><defs><g/></defs><g fill="#ff66c4" fill-opacity="1"><g transform="translate(37.723201, 253.873399)"><g><path d="M 41.953125 -85.671875 C 55.859375 -85.671875 66.472656 -82.078125 73.796875 -74.890625 C 81.117188 -67.703125 84.78125 -57.015625 84.78125 -42.828125 C 84.78125 -28.691406 81.117188 -18.019531 73.796875 -10.8125 C 66.472656 -3.601562 55.859375 0 41.953125 0 L 11.140625 0 L 11.140625 -85.671875 Z M 40.953125 -14.234375 C 49.785156 -14.234375 56.390625 -16.488281 60.765625 -21 C 65.140625 -25.519531 67.328125 -32.796875 67.328125 -42.828125 C 67.328125 -52.867188 65.140625 -60.144531 60.765625 -64.65625 C 56.390625 -69.164062 49.785156 -71.421875 40.953125 -71.421875 L 28.0625 -71.421875 L 28.0625 -14.234375 Z M 40.953125 -14.234375 "/></g></g><g transform="translate(129.305224, 253.873399)"><g><path d="M 25.203125 1.234375 C 21.054688 1.234375 17.457031 0.472656 14.40625 -1.046875 C 11.363281 -2.578125 9.019531 -4.816406 7.375 -7.765625 C 5.738281 -10.710938 4.921875 -14.257812 4.921875 -18.40625 C 4.921875 -22.226562 5.738281 -25.4375 7.375 -28.03125 C 9.019531 -30.632812 11.5625 -32.765625 15 -34.421875 C 18.4375 -36.085938 22.929688 -37.367188 28.484375 -38.265625 C 32.347656 -38.890625 35.285156 -39.570312 37.296875 -40.3125 C 39.304688 -41.050781 40.660156 -41.890625 41.359375 -42.828125 C 42.066406 -43.765625 42.421875 -44.957031 42.421875 -46.40625 C 42.421875 -48.476562 41.695312 -50.0625 40.25 -51.15625 C 38.8125 -52.25 36.410156 -52.796875 33.046875 -52.796875 C 29.453125 -52.796875 26.035156 -51.992188 22.796875 -50.390625 C 19.554688 -48.785156 16.742188 -46.675781 14.359375 -44.0625 L 13.1875 -44.0625 L 6.390625 -54.3125 C 9.671875 -57.945312 13.671875 -60.78125 18.390625 -62.8125 C 23.117188 -64.84375 28.28125 -65.859375 33.875 -65.859375 C 42.425781 -65.859375 48.613281 -64.039062 52.4375 -60.40625 C 56.269531 -56.78125 58.1875 -51.625 58.1875 -44.9375 L 58.1875 -16.875 C 58.1875 -13.988281 59.457031 -12.546875 62 -12.546875 C 62.96875 -12.546875 63.921875 -12.71875 64.859375 -13.0625 L 65.6875 -12.828125 L 66.859375 -1.53125 C 65.960938 -0.9375 64.710938 -0.453125 63.109375 -0.078125 C 61.503906 0.285156 59.742188 0.46875 57.828125 0.46875 C 53.960938 0.46875 50.945312 -0.269531 48.78125 -1.75 C 46.613281 -3.238281 45.0625 -5.566406 44.125 -8.734375 L 42.890625 -8.84375 C 39.722656 -2.125 33.828125 1.234375 25.203125 1.234375 Z M 30.359375 -10.90625 C 34.109375 -10.90625 37.101562 -12.160156 39.34375 -14.671875 C 41.59375 -17.191406 42.71875 -20.703125 42.71875 -25.203125 L 42.71875 -31.765625 L 41.609375 -32 C 40.628906 -31.21875 39.347656 -30.5625 37.765625 -30.03125 C 36.179688 -29.5 33.90625 -28.984375 30.9375 -28.484375 C 27.425781 -27.890625 24.894531 -26.878906 23.34375 -25.453125 C 21.800781 -24.035156 21.03125 -22.015625 21.03125 -19.390625 C 21.03125 -16.617188 21.847656 -14.507812 23.484375 -13.0625 C 25.128906 -11.625 27.421875 -10.90625 30.359375 -10.90625 Z M 30.359375 -10.90625 "/></g></g><g transform="translate(197.44975, 253.873399)"><g><path d="M 44.59375 -15.40625 L 48.8125 -3.40625 C 47.050781 -1.957031 44.84375 -0.820312 42.1875 0 C 39.53125 0.820312 36.523438 1.234375 33.171875 1.234375 C 26.171875 1.234375 20.851562 -0.671875 17.21875 -4.484375 C 13.59375 -8.296875 11.78125 -13.832031 11.78125 -21.09375 L 11.78125 -51.796875 L 1.9375 -51.796875 L 1.9375 -64.6875 L 11.78125 -64.6875 L 11.78125 -77.28125 L 28.015625 -79.921875 L 28.015625 -64.6875 L 46.34375 -64.6875 L 46.34375 -51.796875 L 28.015625 -51.796875 L 28.015625 -22.265625 C 28.015625 -19.066406 28.675781 -16.734375 30 -15.265625 C 31.332031 -13.796875 33.265625 -13.0625 35.796875 -13.0625 C 38.691406 -13.0625 41.210938 -13.84375 43.359375 -15.40625 Z M 44.59375 -15.40625 "/></g></g><g transform="translate(247.664589, 253.873399)"><g><path d="M 25.203125 1.234375 C 21.054688 1.234375 17.457031 0.472656 14.40625 -1.046875 C 11.363281 -2.578125 9.019531 -4.816406 7.375 -7.765625 C 5.738281 -10.710938 4.921875 -14.257812 4.921875 -18.40625 C 4.921875 -22.226562 5.738281 -25.4375 7.375 -28.03125 C 9.019531 -30.632812 11.5625 -32.765625 15 -34.421875 C 18.4375 -36.085938 22.929688 -37.367188 28.484375 -38.265625 C 32.347656 -38.890625 35.285156 -39.570312 37.296875 -40.3125 C 39.304688 -41.050781 40.660156 -41.890625 41.359375 -42.828125 C 42.066406 -43.765625 42.421875 -44.957031 42.421875 -46.40625 C 42.421875 -48.476562 41.695312 -50.0625 40.25 -51.15625 C 38.8125 -52.25 36.410156 -52.796875 33.046875 -52.796875 C 29.453125 -52.796875 26.035156 -51.992188 22.796875 -50.390625 C 19.554688 -48.785156 16.742188 -46.675781 14.359375 -44.0625 L 13.1875 -44.0625 L 6.390625 -54.3125 C 9.671875 -57.945312 13.671875 -60.78125 18.390625 -62.8125 C 23.117188 -64.84375 28.28125 -65.859375 33.875 -65.859375 C 42.425781 -65.859375 48.613281 -64.039062 52.4375 -60.40625 C 56.269531 -56.78125 58.1875 -51.625 58.1875 -44.9375 L 58.1875 -16.875 C 58.1875 -13.988281 59.457031 -12.546875 62 -12.546875 C 62.96875 -12.546875 63.921875 -12.71875 64.859375 -13.0625 L 65.6875 -12.828125 L 66.859375 -1.53125 C 65.960938 -0.9375 64.710938 -0.453125 63.109375 -0.078125 C 61.503906 0.285156 59.742188 0.46875 57.828125 0.46875 C 53.960938 0.46875 50.945312 -0.269531 48.78125 -1.75 C 46.613281 -3.238281 45.0625 -5.566406 44.125 -8.734375 L 42.890625 -8.84375 C 39.722656 -2.125 33.828125 1.234375 25.203125 1.234375 Z M 30.359375 -10.90625 C 34.109375 -10.90625 37.101562 -12.160156 39.34375 -14.671875 C 41.59375 -17.191406 42.71875 -20.703125 42.71875 -25.203125 L 42.71875 -31.765625 L 41.609375 -32 C 40.628906 -31.21875 39.347656 -30.5625 37.765625 -30.03125 C 36.179688 -29.5 33.90625 -28.984375 30.9375 -28.484375 C 27.425781 -27.890625 24.894531 -26.878906 23.34375 -25.453125 C 21.800781 -24.035156 21.03125 -22.015625 21.03125 -19.390625 C 21.03125 -16.617188 21.847656 -14.507812 23.484375 -13.0625 C 25.128906 -11.625 27.421875 -10.90625 30.359375 -10.90625 Z M 30.359375 -10.90625 "/></g></g><g transform="translate(315.809115, 253.873399)"><g/></g><g transform="translate(344.109894, 253.873399)"><g><path d="M 11.140625 0 L 11.140625 -85.671875 L 47.703125 -85.671875 C 52.972656 -85.671875 57.429688 -84.835938 61.078125 -83.171875 C 64.734375 -81.515625 67.5 -79.148438 69.375 -76.078125 C 71.25 -73.015625 72.1875 -69.394531 72.1875 -65.21875 C 72.1875 -61.425781 71.269531 -58.082031 69.4375 -55.1875 C 67.601562 -52.300781 64.96875 -49.976562 61.53125 -48.21875 L 61.53125 -47 C 66.914062 -45.59375 71.070312 -43.03125 74 -39.3125 C 76.9375 -35.601562 78.40625 -31.054688 78.40625 -25.671875 C 78.40625 -17.460938 75.929688 -11.128906 70.984375 -6.671875 C 66.046875 -2.222656 58.710938 0 48.984375 0 Z M 44.1875 -51.5 C 52.070312 -51.5 56.015625 -55.054688 56.015625 -62.171875 C 56.015625 -65.804688 55.035156 -68.507812 53.078125 -70.28125 C 51.128906 -72.0625 48.164062 -72.953125 44.1875 -72.953125 L 28.0625 -72.953125 L 28.0625 -51.5 Z M 47.28125 -13.421875 C 56.625 -13.421875 61.296875 -17.660156 61.296875 -26.140625 C 61.296875 -34.648438 56.625 -38.90625 47.28125 -38.90625 L 28.0625 -38.90625 L 28.0625 -13.421875 Z M 47.28125 -13.421875 "/></g></g><g transform="translate(427.89895, 253.873399)"><g><path d="M 29.59375 1.234375 C 22.320312 1.234375 16.957031 -0.75 13.5 -4.71875 C 10.050781 -8.6875 8.328125 -14.378906 8.328125 -21.796875 L 8.328125 -64.625 L 24.546875 -64.625 L 24.546875 -23.84375 C 24.546875 -19.90625 25.394531 -17.023438 27.09375 -15.203125 C 28.800781 -13.390625 31.429688 -12.484375 34.984375 -12.484375 C 39.472656 -12.484375 42.96875 -13.957031 45.46875 -16.90625 C 47.96875 -19.851562 49.21875 -24.492188 49.21875 -30.828125 L 49.21875 -64.625 L 65.453125 -64.625 L 65.453125 0 L 49.859375 0 L 49.859375 -9.5 L 48.640625 -9.78125 C 46.566406 -6.070312 44.035156 -3.304688 41.046875 -1.484375 C 38.054688 0.328125 34.238281 1.234375 29.59375 1.234375 Z M 29.59375 1.234375 "/></g></g><g transform="translate(502.66457, 253.873399)"><g><path d="M 30.234375 1.234375 C 25.816406 1.234375 21.769531 0.71875 18.09375 -0.3125 C 14.425781 -1.351562 11.296875 -2.78125 8.703125 -4.59375 C 6.109375 -6.414062 4.1875 -8.5 2.9375 -10.84375 L 11.953125 -20.5625 L 13.1875 -20.5625 C 15.332031 -17.675781 17.867188 -15.507812 20.796875 -14.0625 C 23.734375 -12.613281 26.921875 -11.890625 30.359375 -11.890625 C 33.515625 -11.890625 35.894531 -12.457031 37.5 -13.59375 C 39.101562 -14.726562 39.90625 -16.347656 39.90625 -18.453125 C 39.90625 -20.097656 39.328125 -21.476562 38.171875 -22.59375 C 37.023438 -23.707031 35.160156 -24.578125 32.578125 -25.203125 L 24.03125 -27.25 C 17.625 -28.769531 12.941406 -31.101562 9.984375 -34.25 C 7.035156 -37.394531 5.5625 -41.390625 5.5625 -46.234375 C 5.5625 -50.253906 6.585938 -53.75 8.640625 -56.71875 C 10.691406 -59.6875 13.582031 -61.953125 17.3125 -63.515625 C 21.039062 -65.078125 25.390625 -65.859375 30.359375 -65.859375 C 36.171875 -65.859375 40.988281 -65.019531 44.8125 -63.34375 C 48.644531 -61.664062 51.640625 -59.421875 53.796875 -56.609375 L 45.125 -47.234375 L 43.953125 -47.234375 C 42.148438 -49.265625 40.125 -50.75 37.875 -51.6875 C 35.632812 -52.625 33.128906 -53.09375 30.359375 -53.09375 C 23.953125 -53.09375 20.75 -51.097656 20.75 -47.109375 C 20.75 -45.429688 21.34375 -44.0625 22.53125 -43 C 23.71875 -41.945312 25.816406 -41.09375 28.828125 -40.4375 L 36.796875 -38.671875 C 43.359375 -37.265625 48.148438 -35.007812 51.171875 -31.90625 C 54.203125 -28.800781 55.71875 -24.628906 55.71875 -19.390625 C 55.71875 -15.296875 54.703125 -11.6875 52.671875 -8.5625 C 50.640625 -5.4375 47.707031 -3.019531 43.875 -1.3125 C 40.050781 0.382812 35.503906 1.234375 30.234375 1.234375 Z M 30.234375 1.234375 "/></g></g></g></svg>