<svg xmlns="http://www.w3.org/2000/svg" xmlns:xlink="http://www.w3.org/1999/xlink" width="800" zoomAndPan="magnify" viewBox="0 0 600 449.999984" height="600" preserveAspectRatio="xMidYMid meet" version="1.0"><defs><g/></defs><g fill="#ff66c4" fill-opacity="1"><g transform="translate(101.684133, 283.124978)"><g><path d="M 35.078125 0 L 13.921875 0 L 13.921875 -107.0625 L 35.078125 -107.0625 Z M 35.078125 0 "/></g></g></g><g fill="#ff66c4" fill-opacity="1"><g transform="translate(150.748727, 283.124978)"><g><path d="M 11.640625 0 L 11.640625 -80.78125 L 31.125 -80.78125 L 31.125 -68.90625 L 32.65625 -68.546875 C 37.6875 -77.722656 45.84375 -82.3125 57.125 -82.3125 C 66.445312 -82.3125 73.289062 -79.769531 77.65625 -74.6875 C 82.03125 -69.613281 84.21875 -62.222656 84.21875 -52.515625 L 84.21875 0 L 63.9375 0 L 63.9375 -50.015625 C 63.9375 -55.390625 62.859375 -59.257812 60.703125 -61.625 C 58.554688 -63.988281 55.117188 -65.171875 50.390625 -65.171875 C 44.578125 -65.171875 40.046875 -63.289062 36.796875 -59.53125 C 33.554688 -55.78125 31.9375 -49.875 31.9375 -41.8125 L 31.9375 0 Z M 11.640625 0 "/></g></g></g><g fill="#ff66c4" fill-opacity="1"><g transform="translate(245.362841, 283.124978)"><g><path d="M 11.640625 32.734375 L 11.640625 -80.78125 L 31.9375 -80.78125 L 31.9375 -70.234375 L 33.46875 -69.9375 C 35.863281 -74.039062 39.0625 -77.128906 43.0625 -79.203125 C 47.0625 -81.273438 51.75 -82.3125 57.125 -82.3125 C 63.613281 -82.3125 69.285156 -80.773438 74.140625 -77.703125 C 79.003906 -74.628906 82.789062 -69.953125 85.5 -63.671875 C 88.207031 -57.398438 89.5625 -49.628906 89.5625 -40.359375 C 89.5625 -31.128906 88.132812 -23.390625 85.28125 -17.140625 C 82.425781 -10.890625 78.457031 -6.210938 73.375 -3.109375 C 68.300781 -0.015625 62.445312 1.53125 55.8125 1.53125 C 50.78125 1.53125 46.429688 0.691406 42.765625 -0.984375 C 39.109375 -2.671875 36.007812 -5.296875 33.46875 -8.859375 L 31.9375 -8.5625 L 31.9375 32.734375 Z M 50.171875 -15.671875 C 56.222656 -15.671875 60.8125 -17.644531 63.9375 -21.59375 C 67.0625 -25.550781 68.625 -31.804688 68.625 -40.359375 C 68.625 -48.898438 67.0625 -55.160156 63.9375 -59.140625 C 60.8125 -63.117188 56.222656 -65.109375 50.171875 -65.109375 C 44.503906 -65.109375 40.007812 -63.054688 36.6875 -58.953125 C 33.363281 -54.847656 31.703125 -48.648438 31.703125 -40.359375 C 31.703125 -32.097656 33.363281 -25.914062 36.6875 -21.8125 C 40.007812 -17.71875 44.503906 -15.671875 50.171875 -15.671875 Z M 50.171875 -15.671875 "/></g></g></g><g fill="#ff66c4" fill-opacity="1"><g transform="translate(342.100634, 283.124978)"><g><path d="M 36.984375 1.53125 C 27.898438 1.53125 21.195312 -0.941406 16.875 -5.890625 C 12.5625 -10.847656 10.40625 -17.96875 10.40625 -27.25 L 10.40625 -80.78125 L 30.6875 -80.78125 L 30.6875 -29.8125 C 30.6875 -24.875 31.75 -21.269531 33.875 -19 C 36 -16.726562 39.28125 -15.59375 43.71875 -15.59375 C 49.332031 -15.59375 53.703125 -17.4375 56.828125 -21.125 C 59.953125 -24.8125 61.515625 -30.609375 61.515625 -38.515625 L 61.515625 -80.78125 L 81.796875 -80.78125 L 81.796875 0 L 62.328125 0 L 62.328125 -11.859375 L 60.78125 -12.234375 C 58.195312 -7.585938 55.035156 -4.128906 51.296875 -1.859375 C 47.566406 0.398438 42.796875 1.53125 36.984375 1.53125 Z M 36.984375 1.53125 "/></g></g></g><g fill="#ff66c4" fill-opacity="1"><g transform="translate(435.543055, 283.124978)"><g><path d="M 55.734375 -19.265625 L 61 -4.25 C 58.800781 -2.4375 56.039062 -1.019531 52.71875 0 C 49.40625 1.019531 45.648438 1.53125 41.453125 1.53125 C 32.710938 1.53125 26.070312 -0.847656 21.53125 -5.609375 C 16.988281 -10.367188 14.71875 -17.285156 14.71875 -26.359375 L 14.71875 -64.734375 L 2.421875 -64.734375 L 2.421875 -80.84375 L 14.71875 -80.84375 L 14.71875 -96.59375 L 35 -99.890625 L 35 -80.84375 L 57.921875 -80.84375 L 57.921875 -64.734375 L 35 -64.734375 L 35 -27.828125 C 35 -23.828125 35.828125 -20.910156 37.484375 -19.078125 C 39.148438 -17.242188 41.570312 -16.328125 44.75 -16.328125 C 48.363281 -16.328125 51.507812 -17.304688 54.1875 -19.265625 Z M 55.734375 -19.265625 "/></g></g></g></svg>