<svg xmlns="http://www.w3.org/2000/svg" xmlns:xlink="http://www.w3.org/1999/xlink" width="800" zoomAndPan="magnify" viewBox="0 0 600 449.999984" height="600" preserveAspectRatio="xMidYMid meet" version="1.0"><defs><g/></defs><g fill="#ffde59" fill-opacity="1"><g transform="translate(184.74663, 123.399984)"><g><path d="M 22.375 -45.6875 C 29.789062 -45.6875 35.453125 -43.769531 39.359375 -39.9375 C 43.265625 -36.101562 45.21875 -30.40625 45.21875 -22.84375 C 45.21875 -15.300781 43.265625 -9.609375 39.359375 -5.765625 C 35.453125 -1.921875 29.789062 0 22.375 0 L 5.9375 0 L 5.9375 -45.6875 Z M 21.84375 -7.59375 C 26.550781 -7.59375 30.070312 -8.796875 32.40625 -11.203125 C 34.738281 -13.609375 35.90625 -17.488281 35.90625 -22.84375 C 35.90625 -28.195312 34.738281 -32.078125 32.40625 -34.484375 C 30.070312 -36.890625 26.550781 -38.09375 21.84375 -38.09375 L 14.96875 -38.09375 L 14.96875 -7.59375 Z M 21.84375 -7.59375 "/></g></g></g><g fill="#ffde59" fill-opacity="1"><g transform="translate(233.587401, 123.399984)"><g><path d="M 13.4375 0.65625 C 11.226562 0.65625 9.3125 0.25 7.6875 -0.5625 C 6.0625 -1.375 4.8125 -2.566406 3.9375 -4.140625 C 3.0625 -5.710938 2.625 -7.601562 2.625 -9.8125 C 2.625 -11.851562 3.0625 -13.566406 3.9375 -14.953125 C 4.8125 -16.335938 6.164062 -17.472656 8 -18.359375 C 9.832031 -19.242188 12.226562 -19.925781 15.1875 -20.40625 C 17.25 -20.738281 18.816406 -21.101562 19.890625 -21.5 C 20.960938 -21.894531 21.6875 -22.34375 22.0625 -22.84375 C 22.4375 -23.34375 22.625 -23.976562 22.625 -24.75 C 22.625 -25.851562 22.238281 -26.695312 21.46875 -27.28125 C 20.695312 -27.863281 19.414062 -28.15625 17.625 -28.15625 C 15.707031 -28.15625 13.882812 -27.726562 12.15625 -26.875 C 10.425781 -26.019531 8.925781 -24.894531 7.65625 -23.5 L 7.03125 -23.5 L 3.40625 -28.96875 C 5.15625 -30.90625 7.289062 -32.414062 9.8125 -33.5 C 12.332031 -34.582031 15.082031 -35.125 18.0625 -35.125 C 22.625 -35.125 25.925781 -34.15625 27.96875 -32.21875 C 30.007812 -30.28125 31.03125 -27.53125 31.03125 -23.96875 L 31.03125 -9 C 31.03125 -7.457031 31.707031 -6.6875 33.0625 -6.6875 C 33.582031 -6.6875 34.09375 -6.78125 34.59375 -6.96875 L 35.03125 -6.84375 L 35.65625 -0.8125 C 35.175781 -0.5 34.507812 -0.242188 33.65625 -0.046875 C 32.800781 0.148438 31.863281 0.25 30.84375 0.25 C 28.78125 0.25 27.171875 -0.144531 26.015625 -0.9375 C 24.859375 -1.726562 24.03125 -2.96875 23.53125 -4.65625 L 22.875 -4.71875 C 21.1875 -1.132812 18.039062 0.65625 13.4375 0.65625 Z M 16.1875 -5.8125 C 18.1875 -5.8125 19.785156 -6.484375 20.984375 -7.828125 C 22.179688 -9.171875 22.78125 -11.039062 22.78125 -13.4375 L 22.78125 -16.9375 L 22.1875 -17.0625 C 21.664062 -16.644531 20.984375 -16.296875 20.140625 -16.015625 C 19.296875 -15.734375 18.082031 -15.457031 16.5 -15.1875 C 14.625 -14.875 13.273438 -14.335938 12.453125 -13.578125 C 11.628906 -12.816406 11.21875 -11.738281 11.21875 -10.34375 C 11.21875 -8.863281 11.65625 -7.738281 12.53125 -6.96875 C 13.40625 -6.195312 14.625 -5.8125 16.1875 -5.8125 Z M 16.1875 -5.8125 "/></g></g></g><g fill="#ffde59" fill-opacity="1"><g transform="translate(269.928936, 123.399984)"><g><path d="M 23.78125 -8.21875 L 26.03125 -1.8125 C 25.09375 -1.039062 23.914062 -0.4375 22.5 0 C 21.082031 0.4375 19.476562 0.65625 17.6875 0.65625 C 13.957031 0.65625 11.125 -0.359375 9.1875 -2.390625 C 7.25 -4.421875 6.28125 -7.375 6.28125 -11.25 L 6.28125 -27.625 L 1.03125 -27.625 L 1.03125 -34.5 L 6.28125 -34.5 L 6.28125 -41.21875 L 14.9375 -42.625 L 14.9375 -34.5 L 24.71875 -34.5 L 24.71875 -27.625 L 14.9375 -27.625 L 14.9375 -11.875 C 14.9375 -10.164062 15.289062 -8.921875 16 -8.140625 C 16.707031 -7.359375 17.738281 -6.96875 19.09375 -6.96875 C 20.632812 -6.96875 21.976562 -7.382812 23.125 -8.21875 Z M 23.78125 -8.21875 "/></g></g></g><g fill="#ffde59" fill-opacity="1"><g transform="translate(296.708554, 123.399984)"><g><path d="M 13.4375 0.65625 C 11.226562 0.65625 9.3125 0.25 7.6875 -0.5625 C 6.0625 -1.375 4.8125 -2.566406 3.9375 -4.140625 C 3.0625 -5.710938 2.625 -7.601562 2.625 -9.8125 C 2.625 -11.851562 3.0625 -13.566406 3.9375 -14.953125 C 4.8125 -16.335938 6.164062 -17.472656 8 -18.359375 C 9.832031 -19.242188 12.226562 -19.925781 15.1875 -20.40625 C 17.25 -20.738281 18.816406 -21.101562 19.890625 -21.5 C 20.960938 -21.894531 21.6875 -22.34375 22.0625 -22.84375 C 22.4375 -23.34375 22.625 -23.976562 22.625 -24.75 C 22.625 -25.851562 22.238281 -26.695312 21.46875 -27.28125 C 20.695312 -27.863281 19.414062 -28.15625 17.625 -28.15625 C 15.707031 -28.15625 13.882812 -27.726562 12.15625 -26.875 C 10.425781 -26.019531 8.925781 -24.894531 7.65625 -23.5 L 7.03125 -23.5 L 3.40625 -28.96875 C 5.15625 -30.90625 7.289062 -32.414062 9.8125 -33.5 C 12.332031 -34.582031 15.082031 -35.125 18.0625 -35.125 C 22.625 -35.125 25.925781 -34.15625 27.96875 -32.21875 C 30.007812 -30.28125 31.03125 -27.53125 31.03125 -23.96875 L 31.03125 -9 C 31.03125 -7.457031 31.707031 -6.6875 33.0625 -6.6875 C 33.582031 -6.6875 34.09375 -6.78125 34.59375 -6.96875 L 35.03125 -6.84375 L 35.65625 -0.8125 C 35.175781 -0.5 34.507812 -0.242188 33.65625 -0.046875 C 32.800781 0.148438 31.863281 0.25 30.84375 0.25 C 28.78125 0.25 27.171875 -0.144531 26.015625 -0.9375 C 24.859375 -1.726562 24.03125 -2.96875 23.53125 -4.65625 L 22.875 -4.71875 C 21.1875 -1.132812 18.039062 0.65625 13.4375 0.65625 Z M 16.1875 -5.8125 C 18.1875 -5.8125 19.785156 -6.484375 20.984375 -7.828125 C 22.179688 -9.171875 22.78125 -11.039062 22.78125 -13.4375 L 22.78125 -16.9375 L 22.1875 -17.0625 C 21.664062 -16.644531 20.984375 -16.296875 20.140625 -16.015625 C 19.296875 -15.734375 18.082031 -15.457031 16.5 -15.1875 C 14.625 -14.875 13.273438 -14.335938 12.453125 -13.578125 C 11.628906 -12.816406 11.21875 -11.738281 11.21875 -10.34375 C 11.21875 -8.863281 11.65625 -7.738281 12.53125 -6.96875 C 13.40625 -6.195312 14.625 -5.8125 16.1875 -5.8125 Z M 16.1875 -5.8125 "/></g></g></g><g fill="#ffde59" fill-opacity="1"><g transform="translate(333.050089, 123.399984)"><g/></g></g><g fill="#ffde59" fill-opacity="1"><g transform="translate(348.142922, 123.399984)"><g><path d="M 20.03125 0.65625 C 16.65625 0.65625 13.691406 -0.0351562 11.140625 -1.421875 C 8.585938 -2.804688 6.609375 -4.835938 5.203125 -7.515625 C 3.796875 -10.191406 3.09375 -13.425781 3.09375 -17.21875 C 3.09375 -21.007812 3.796875 -24.25 5.203125 -26.9375 C 6.609375 -29.625 8.585938 -31.660156 11.140625 -33.046875 C 13.691406 -34.429688 16.65625 -35.125 20.03125 -35.125 C 23.40625 -35.125 26.367188 -34.429688 28.921875 -33.046875 C 31.472656 -31.660156 33.457031 -29.625 34.875 -26.9375 C 36.289062 -24.25 37 -21.007812 37 -17.21875 C 37 -13.425781 36.289062 -10.191406 34.875 -7.515625 C 33.457031 -4.835938 31.472656 -2.804688 28.921875 -1.421875 C 26.367188 -0.0351562 23.40625 0.65625 20.03125 0.65625 Z M 20.03125 -6.6875 C 25.382812 -6.6875 28.0625 -10.195312 28.0625 -17.21875 C 28.0625 -20.863281 27.375 -23.535156 26 -25.234375 C 24.625 -26.929688 22.632812 -27.78125 20.03125 -27.78125 C 14.675781 -27.78125 12 -24.257812 12 -17.21875 C 12 -10.195312 14.675781 -6.6875 20.03125 -6.6875 Z M 20.03125 -6.6875 "/></g></g></g><g fill="#ffde59" fill-opacity="1"><g transform="translate(388.202973, 123.399984)"><g><path d="M 4.96875 0 L 4.96875 -34.46875 L 13.375 -34.46875 L 13.375 -29.34375 L 14.03125 -29.21875 C 14.863281 -31.132812 15.957031 -32.539062 17.3125 -33.4375 C 18.664062 -34.332031 20.3125 -34.78125 22.25 -34.78125 C 24.207031 -34.78125 25.695312 -34.445312 26.71875 -33.78125 L 25.25 -26.3125 L 24.59375 -26.1875 C 24.03125 -26.414062 23.488281 -26.582031 22.96875 -26.6875 C 22.445312 -26.789062 21.8125 -26.84375 21.0625 -26.84375 C 18.644531 -26.84375 16.800781 -25.992188 15.53125 -24.296875 C 14.257812 -22.597656 13.625 -19.875 13.625 -16.125 L 13.625 0 Z M 4.96875 0 "/></g></g></g><g fill="#ffde59" fill-opacity="1"><g transform="translate(38.578669, 212.649977)"><g><path d="M 9.28125 -38.59375 C 7.71875 -38.59375 6.445312 -39.066406 5.46875 -40.015625 C 4.488281 -40.960938 4 -42.1875 4 -43.6875 C 4 -45.164062 4.488281 -46.378906 5.46875 -47.328125 C 6.445312 -48.273438 7.71875 -48.75 9.28125 -48.75 C 10.320312 -48.75 11.25 -48.53125 12.0625 -48.09375 C 12.875 -47.65625 13.503906 -47.054688 13.953125 -46.296875 C 14.398438 -45.535156 14.625 -44.664062 14.625 -43.6875 C 14.625 -42.707031 14.398438 -41.832031 13.953125 -41.0625 C 13.503906 -40.289062 12.875 -39.6875 12.0625 -39.25 C 11.25 -38.8125 10.320312 -38.59375 9.28125 -38.59375 Z M 4.96875 0 L 4.96875 -34.46875 L 13.625 -34.46875 L 13.625 0 Z M 4.96875 0 "/></g></g></g><g fill="#ffde59" fill-opacity="1"><g transform="translate(57.140035, 212.649977)"><g><path d="M 4.96875 0 L 4.96875 -34.46875 L 13.28125 -34.46875 L 13.28125 -29.40625 L 13.9375 -29.25 C 16.082031 -33.164062 19.5625 -35.125 24.375 -35.125 C 28.351562 -35.125 31.273438 -34.039062 33.140625 -31.875 C 35.003906 -29.707031 35.9375 -26.550781 35.9375 -22.40625 L 35.9375 0 L 27.28125 0 L 27.28125 -21.34375 C 27.28125 -23.632812 26.820312 -25.285156 25.90625 -26.296875 C 24.988281 -27.304688 23.519531 -27.8125 21.5 -27.8125 C 19.019531 -27.8125 17.085938 -27.007812 15.703125 -25.40625 C 14.316406 -23.800781 13.625 -21.28125 13.625 -17.84375 L 13.625 0 Z M 4.96875 0 "/></g></g></g><g fill="#ffde59" fill-opacity="1"><g transform="translate(97.512567, 212.649977)"><g><path d="M 16.125 0.65625 C 13.769531 0.65625 11.613281 0.378906 9.65625 -0.171875 C 7.695312 -0.722656 6.023438 -1.484375 4.640625 -2.453125 C 3.253906 -3.421875 2.226562 -4.53125 1.5625 -5.78125 L 6.375 -10.96875 L 7.03125 -10.96875 C 8.175781 -9.425781 9.53125 -8.269531 11.09375 -7.5 C 12.65625 -6.726562 14.351562 -6.34375 16.1875 -6.34375 C 17.875 -6.34375 19.144531 -6.644531 20 -7.25 C 20.851562 -7.851562 21.28125 -8.71875 21.28125 -9.84375 C 21.28125 -10.71875 20.972656 -11.453125 20.359375 -12.046875 C 19.742188 -12.640625 18.75 -13.101562 17.375 -13.4375 L 12.8125 -14.53125 C 9.394531 -15.34375 6.898438 -16.585938 5.328125 -18.265625 C 3.753906 -19.941406 2.96875 -22.070312 2.96875 -24.65625 C 2.96875 -26.800781 3.515625 -28.664062 4.609375 -30.25 C 5.703125 -31.832031 7.242188 -33.039062 9.234375 -33.875 C 11.222656 -34.707031 13.539062 -35.125 16.1875 -35.125 C 19.289062 -35.125 21.863281 -34.675781 23.90625 -33.78125 C 25.945312 -32.882812 27.539062 -31.6875 28.6875 -30.1875 L 24.0625 -25.1875 L 23.4375 -25.1875 C 22.476562 -26.269531 21.398438 -27.0625 20.203125 -27.5625 C 19.003906 -28.0625 17.664062 -28.3125 16.1875 -28.3125 C 12.769531 -28.3125 11.0625 -27.25 11.0625 -25.125 C 11.0625 -24.226562 11.378906 -23.5 12.015625 -22.9375 C 12.648438 -22.375 13.769531 -21.914062 15.375 -21.5625 L 19.625 -20.625 C 23.125 -19.875 25.679688 -18.671875 27.296875 -17.015625 C 28.910156 -15.359375 29.71875 -13.132812 29.71875 -10.34375 C 29.71875 -8.15625 29.175781 -6.226562 28.09375 -4.5625 C 27.007812 -2.894531 25.445312 -1.609375 23.40625 -0.703125 C 21.363281 0.203125 18.9375 0.65625 16.125 0.65625 Z M 16.125 0.65625 "/></g></g></g><g fill="#ffde59" fill-opacity="1"><g transform="translate(129.291881, 212.649977)"><g><path d="M 23.78125 -8.21875 L 26.03125 -1.8125 C 25.09375 -1.039062 23.914062 -0.4375 22.5 0 C 21.082031 0.4375 19.476562 0.65625 17.6875 0.65625 C 13.957031 0.65625 11.125 -0.359375 9.1875 -2.390625 C 7.25 -4.421875 6.28125 -7.375 6.28125 -11.25 L 6.28125 -27.625 L 1.03125 -27.625 L 1.03125 -34.5 L 6.28125 -34.5 L 6.28125 -41.21875 L 14.9375 -42.625 L 14.9375 -34.5 L 24.71875 -34.5 L 24.71875 -27.625 L 14.9375 -27.625 L 14.9375 -11.875 C 14.9375 -10.164062 15.289062 -8.921875 16 -8.140625 C 16.707031 -7.359375 17.738281 -6.96875 19.09375 -6.96875 C 20.632812 -6.96875 21.976562 -7.382812 23.125 -8.21875 Z M 23.78125 -8.21875 "/></g></g></g><g fill="#ffde59" fill-opacity="1"><g transform="translate(156.071499, 212.649977)"><g><path d="M 4.96875 0 L 4.96875 -34.46875 L 13.375 -34.46875 L 13.375 -29.34375 L 14.03125 -29.21875 C 14.863281 -31.132812 15.957031 -32.539062 17.3125 -33.4375 C 18.664062 -34.332031 20.3125 -34.78125 22.25 -34.78125 C 24.207031 -34.78125 25.695312 -34.445312 26.71875 -33.78125 L 25.25 -26.3125 L 24.59375 -26.1875 C 24.03125 -26.414062 23.488281 -26.582031 22.96875 -26.6875 C 22.445312 -26.789062 21.8125 -26.84375 21.0625 -26.84375 C 18.644531 -26.84375 16.800781 -25.992188 15.53125 -24.296875 C 14.257812 -22.597656 13.625 -19.875 13.625 -16.125 L 13.625 0 Z M 4.96875 0 "/></g></g></g><g fill="#ffde59" fill-opacity="1"><g transform="translate(183.101103, 212.649977)"><g><path d="M 15.78125 0.65625 C 11.90625 0.65625 9.046875 -0.398438 7.203125 -2.515625 C 5.359375 -4.628906 4.4375 -7.664062 4.4375 -11.625 L 4.4375 -34.46875 L 13.09375 -34.46875 L 13.09375 -12.71875 C 13.09375 -10.613281 13.546875 -9.078125 14.453125 -8.109375 C 15.359375 -7.140625 16.757812 -6.65625 18.65625 -6.65625 C 21.050781 -6.65625 22.914062 -7.441406 24.25 -9.015625 C 25.582031 -10.585938 26.25 -13.0625 26.25 -16.4375 L 26.25 -34.46875 L 34.90625 -34.46875 L 34.90625 0 L 26.59375 0 L 26.59375 -5.0625 L 25.9375 -5.21875 C 24.832031 -3.238281 23.484375 -1.765625 21.890625 -0.796875 C 20.296875 0.171875 18.257812 0.65625 15.78125 0.65625 Z M 15.78125 0.65625 "/></g></g></g><g fill="#ffde59" fill-opacity="1"><g transform="translate(222.973666, 212.649977)"><g><path d="M 20.09375 0.65625 C 16.757812 0.65625 13.8125 -0.0351562 11.25 -1.421875 C 8.6875 -2.804688 6.6875 -4.84375 5.25 -7.53125 C 3.8125 -10.21875 3.09375 -13.445312 3.09375 -17.21875 C 3.09375 -21.007812 3.8125 -24.25 5.25 -26.9375 C 6.6875 -29.625 8.675781 -31.660156 11.21875 -33.046875 C 13.757812 -34.429688 16.664062 -35.125 19.9375 -35.125 C 27.207031 -35.125 31.863281 -32.488281 33.90625 -27.21875 L 27.96875 -22.96875 L 27.3125 -22.96875 C 26.601562 -24.59375 25.679688 -25.800781 24.546875 -26.59375 C 23.410156 -27.382812 21.875 -27.78125 19.9375 -27.78125 C 17.4375 -27.78125 15.488281 -26.914062 14.09375 -25.1875 C 12.695312 -23.457031 12 -20.800781 12 -17.21875 C 12 -13.675781 12.707031 -11.035156 14.125 -9.296875 C 15.539062 -7.554688 17.53125 -6.6875 20.09375 -6.6875 C 21.96875 -6.6875 23.554688 -7.191406 24.859375 -8.203125 C 26.160156 -9.210938 27.09375 -10.664062 27.65625 -12.5625 L 28.3125 -12.625 L 34.46875 -9.25 C 33.59375 -6.332031 31.972656 -3.953125 29.609375 -2.109375 C 27.242188 -0.265625 24.070312 0.65625 20.09375 0.65625 Z M 20.09375 0.65625 "/></g></g></g><g fill="#ffde59" fill-opacity="1"><g transform="translate(258.502739, 212.649977)"><g><path d="M 23.78125 -8.21875 L 26.03125 -1.8125 C 25.09375 -1.039062 23.914062 -0.4375 22.5 0 C 21.082031 0.4375 19.476562 0.65625 17.6875 0.65625 C 13.957031 0.65625 11.125 -0.359375 9.1875 -2.390625 C 7.25 -4.421875 6.28125 -7.375 6.28125 -11.25 L 6.28125 -27.625 L 1.03125 -27.625 L 1.03125 -34.5 L 6.28125 -34.5 L 6.28125 -41.21875 L 14.9375 -42.625 L 14.9375 -34.5 L 24.71875 -34.5 L 24.71875 -27.625 L 14.9375 -27.625 L 14.9375 -11.875 C 14.9375 -10.164062 15.289062 -8.921875 16 -8.140625 C 16.707031 -7.359375 17.738281 -6.96875 19.09375 -6.96875 C 20.632812 -6.96875 21.976562 -7.382812 23.125 -8.21875 Z M 23.78125 -8.21875 "/></g></g></g><g fill="#ffde59" fill-opacity="1"><g transform="translate(285.28237, 212.649977)"><g><path d="M 9.28125 -38.59375 C 7.71875 -38.59375 6.445312 -39.066406 5.46875 -40.015625 C 4.488281 -40.960938 4 -42.1875 4 -43.6875 C 4 -45.164062 4.488281 -46.378906 5.46875 -47.328125 C 6.445312 -48.273438 7.71875 -48.75 9.28125 -48.75 C 10.320312 -48.75 11.25 -48.53125 12.0625 -48.09375 C 12.875 -47.65625 13.503906 -47.054688 13.953125 -46.296875 C 14.398438 -45.535156 14.625 -44.664062 14.625 -43.6875 C 14.625 -42.707031 14.398438 -41.832031 13.953125 -41.0625 C 13.503906 -40.289062 12.875 -39.6875 12.0625 -39.25 C 11.25 -38.8125 10.320312 -38.59375 9.28125 -38.59375 Z M 4.96875 0 L 4.96875 -34.46875 L 13.625 -34.46875 L 13.625 0 Z M 4.96875 0 "/></g></g></g><g fill="#ffde59" fill-opacity="1"><g transform="translate(303.843724, 212.649977)"><g><path d="M 20.03125 0.65625 C 16.65625 0.65625 13.691406 -0.0351562 11.140625 -1.421875 C 8.585938 -2.804688 6.609375 -4.835938 5.203125 -7.515625 C 3.796875 -10.191406 3.09375 -13.425781 3.09375 -17.21875 C 3.09375 -21.007812 3.796875 -24.25 5.203125 -26.9375 C 6.609375 -29.625 8.585938 -31.660156 11.140625 -33.046875 C 13.691406 -34.429688 16.65625 -35.125 20.03125 -35.125 C 23.40625 -35.125 26.367188 -34.429688 28.921875 -33.046875 C 31.472656 -31.660156 33.457031 -29.625 34.875 -26.9375 C 36.289062 -24.25 37 -21.007812 37 -17.21875 C 37 -13.425781 36.289062 -10.191406 34.875 -7.515625 C 33.457031 -4.835938 31.472656 -2.804688 28.921875 -1.421875 C 26.367188 -0.0351562 23.40625 0.65625 20.03125 0.65625 Z M 20.03125 -6.6875 C 25.382812 -6.6875 28.0625 -10.195312 28.0625 -17.21875 C 28.0625 -20.863281 27.375 -23.535156 26 -25.234375 C 24.625 -26.929688 22.632812 -27.78125 20.03125 -27.78125 C 14.675781 -27.78125 12 -24.257812 12 -17.21875 C 12 -10.195312 14.675781 -6.6875 20.03125 -6.6875 Z M 20.03125 -6.6875 "/></g></g></g><g fill="#ffde59" fill-opacity="1"><g transform="translate(343.903764, 212.649977)"><g><path d="M 4.96875 0 L 4.96875 -34.46875 L 13.28125 -34.46875 L 13.28125 -29.40625 L 13.9375 -29.25 C 16.082031 -33.164062 19.5625 -35.125 24.375 -35.125 C 28.351562 -35.125 31.273438 -34.039062 33.140625 -31.875 C 35.003906 -29.707031 35.9375 -26.550781 35.9375 -22.40625 L 35.9375 0 L 27.28125 0 L 27.28125 -21.34375 C 27.28125 -23.632812 26.820312 -25.285156 25.90625 -26.296875 C 24.988281 -27.304688 23.519531 -27.8125 21.5 -27.8125 C 19.019531 -27.8125 17.085938 -27.007812 15.703125 -25.40625 C 14.316406 -23.800781 13.625 -21.28125 13.625 -17.84375 L 13.625 0 Z M 4.96875 0 "/></g></g></g><g fill="#ffde59" fill-opacity="1"><g transform="translate(384.276297, 212.649977)"><g><path d="M 16.125 0.65625 C 13.769531 0.65625 11.613281 0.378906 9.65625 -0.171875 C 7.695312 -0.722656 6.023438 -1.484375 4.640625 -2.453125 C 3.253906 -3.421875 2.226562 -4.53125 1.5625 -5.78125 L 6.375 -10.96875 L 7.03125 -10.96875 C 8.175781 -9.425781 9.53125 -8.269531 11.09375 -7.5 C 12.65625 -6.726562 14.351562 -6.34375 16.1875 -6.34375 C 17.875 -6.34375 19.144531 -6.644531 20 -7.25 C 20.851562 -7.851562 21.28125 -8.71875 21.28125 -9.84375 C 21.28125 -10.71875 20.972656 -11.453125 20.359375 -12.046875 C 19.742188 -12.640625 18.75 -13.101562 17.375 -13.4375 L 12.8125 -14.53125 C 9.394531 -15.34375 6.898438 -16.585938 5.328125 -18.265625 C 3.753906 -19.941406 2.96875 -22.070312 2.96875 -24.65625 C 2.96875 -26.800781 3.515625 -28.664062 4.609375 -30.25 C 5.703125 -31.832031 7.242188 -33.039062 9.234375 -33.875 C 11.222656 -34.707031 13.539062 -35.125 16.1875 -35.125 C 19.289062 -35.125 21.863281 -34.675781 23.90625 -33.78125 C 25.945312 -32.882812 27.539062 -31.6875 28.6875 -30.1875 L 24.0625 -25.1875 L 23.4375 -25.1875 C 22.476562 -26.269531 21.398438 -27.0625 20.203125 -27.5625 C 19.003906 -28.0625 17.664062 -28.3125 16.1875 -28.3125 C 12.769531 -28.3125 11.0625 -27.25 11.0625 -25.125 C 11.0625 -24.226562 11.378906 -23.5 12.015625 -22.9375 C 12.648438 -22.375 13.769531 -21.914062 15.375 -21.5625 L 19.625 -20.625 C 23.125 -19.875 25.679688 -18.671875 27.296875 -17.015625 C 28.910156 -15.359375 29.71875 -13.132812 29.71875 -10.34375 C 29.71875 -8.15625 29.175781 -6.226562 28.09375 -4.5625 C 27.007812 -2.894531 25.445312 -1.609375 23.40625 -0.703125 C 21.363281 0.203125 18.9375 0.65625 16.125 0.65625 Z M 16.125 0.65625 "/></g></g></g><g fill="#ffde59" fill-opacity="1"><g transform="translate(416.055599, 212.649977)"><g/></g></g><g fill="#ffde59" fill-opacity="1"><g transform="translate(431.148432, 212.649977)"><g><path d="M 23.78125 -8.21875 L 26.03125 -1.8125 C 25.09375 -1.039062 23.914062 -0.4375 22.5 0 C 21.082031 0.4375 19.476562 0.65625 17.6875 0.65625 C 13.957031 0.65625 11.125 -0.359375 9.1875 -2.390625 C 7.25 -4.421875 6.28125 -7.375 6.28125 -11.25 L 6.28125 -27.625 L 1.03125 -27.625 L 1.03125 -34.5 L 6.28125 -34.5 L 6.28125 -41.21875 L 14.9375 -42.625 L 14.9375 -34.5 L 24.71875 -34.5 L 24.71875 -27.625 L 14.9375 -27.625 L 14.9375 -11.875 C 14.9375 -10.164062 15.289062 -8.921875 16 -8.140625 C 16.707031 -7.359375 17.738281 -6.96875 19.09375 -6.96875 C 20.632812 -6.96875 21.976562 -7.382812 23.125 -8.21875 Z M 23.78125 -8.21875 "/></g></g></g><g fill="#ffde59" fill-opacity="1"><g transform="translate(457.928063, 212.649977)"><g><path d="M 4.96875 0 L 4.96875 -48.3125 L 13.625 -48.3125 L 13.625 -29.96875 L 14.28125 -29.84375 C 15.425781 -31.53125 16.832031 -32.832031 18.5 -33.75 C 20.164062 -34.664062 22.175781 -35.125 24.53125 -35.125 C 32.132812 -35.125 35.9375 -30.8125 35.9375 -22.1875 L 35.9375 0 L 27.28125 0 L 27.28125 -21.09375 C 27.28125 -23.445312 26.8125 -25.15625 25.875 -26.21875 C 24.9375 -27.28125 23.476562 -27.8125 21.5 -27.8125 C 19.082031 -27.8125 17.164062 -27.003906 15.75 -25.390625 C 14.332031 -23.773438 13.625 -21.257812 13.625 -17.84375 L 13.625 0 Z M 4.96875 0 "/></g></g></g><g fill="#ffde59" fill-opacity="1"><g transform="translate(498.300618, 212.649977)"><g><path d="M 13.4375 0.65625 C 11.226562 0.65625 9.3125 0.25 7.6875 -0.5625 C 6.0625 -1.375 4.8125 -2.566406 3.9375 -4.140625 C 3.0625 -5.710938 2.625 -7.601562 2.625 -9.8125 C 2.625 -11.851562 3.0625 -13.566406 3.9375 -14.953125 C 4.8125 -16.335938 6.164062 -17.472656 8 -18.359375 C 9.832031 -19.242188 12.226562 -19.925781 15.1875 -20.40625 C 17.25 -20.738281 18.816406 -21.101562 19.890625 -21.5 C 20.960938 -21.894531 21.6875 -22.34375 22.0625 -22.84375 C 22.4375 -23.34375 22.625 -23.976562 22.625 -24.75 C 22.625 -25.851562 22.238281 -26.695312 21.46875 -27.28125 C 20.695312 -27.863281 19.414062 -28.15625 17.625 -28.15625 C 15.707031 -28.15625 13.882812 -27.726562 12.15625 -26.875 C 10.425781 -26.019531 8.925781 -24.894531 7.65625 -23.5 L 7.03125 -23.5 L 3.40625 -28.96875 C 5.15625 -30.90625 7.289062 -32.414062 9.8125 -33.5 C 12.332031 -34.582031 15.082031 -35.125 18.0625 -35.125 C 22.625 -35.125 25.925781 -34.15625 27.96875 -32.21875 C 30.007812 -30.28125 31.03125 -27.53125 31.03125 -23.96875 L 31.03125 -9 C 31.03125 -7.457031 31.707031 -6.6875 33.0625 -6.6875 C 33.582031 -6.6875 34.09375 -6.78125 34.59375 -6.96875 L 35.03125 -6.84375 L 35.65625 -0.8125 C 35.175781 -0.5 34.507812 -0.242188 33.65625 -0.046875 C 32.800781 0.148438 31.863281 0.25 30.84375 0.25 C 28.78125 0.25 27.171875 -0.144531 26.015625 -0.9375 C 24.859375 -1.726562 24.03125 -2.96875 23.53125 -4.65625 L 22.875 -4.71875 C 21.1875 -1.132812 18.039062 0.65625 13.4375 0.65625 Z M 16.1875 -5.8125 C 18.1875 -5.8125 19.785156 -6.484375 20.984375 -7.828125 C 22.179688 -9.171875 22.78125 -11.039062 22.78125 -13.4375 L 22.78125 -16.9375 L 22.1875 -17.0625 C 21.664062 -16.644531 20.984375 -16.296875 20.140625 -16.015625 C 19.296875 -15.734375 18.082031 -15.457031 16.5 -15.1875 C 14.625 -14.875 13.273438 -14.335938 12.453125 -13.578125 C 11.628906 -12.816406 11.21875 -11.738281 11.21875 -10.34375 C 11.21875 -8.863281 11.65625 -7.738281 12.53125 -6.96875 C 13.40625 -6.195312 14.625 -5.8125 16.1875 -5.8125 Z M 16.1875 -5.8125 "/></g></g></g><g fill="#ffde59" fill-opacity="1"><g transform="translate(534.642152, 212.649977)"><g><path d="M 23.78125 -8.21875 L 26.03125 -1.8125 C 25.09375 -1.039062 23.914062 -0.4375 22.5 0 C 21.082031 0.4375 19.476562 0.65625 17.6875 0.65625 C 13.957031 0.65625 11.125 -0.359375 9.1875 -2.390625 C 7.25 -4.421875 6.28125 -7.375 6.28125 -11.25 L 6.28125 -27.625 L 1.03125 -27.625 L 1.03125 -34.5 L 6.28125 -34.5 L 6.28125 -41.21875 L 14.9375 -42.625 L 14.9375 -34.5 L 24.71875 -34.5 L 24.71875 -27.625 L 14.9375 -27.625 L 14.9375 -11.875 C 14.9375 -10.164062 15.289062 -8.921875 16 -8.140625 C 16.707031 -7.359375 17.738281 -6.96875 19.09375 -6.96875 C 20.632812 -6.96875 21.976562 -7.382812 23.125 -8.21875 Z M 23.78125 -8.21875 "/></g></g></g><g fill="#ffde59" fill-opacity="1"><g transform="translate(86.320853, 301.89997)"><g><path d="M 23.78125 -8.21875 L 26.03125 -1.8125 C 25.09375 -1.039062 23.914062 -0.4375 22.5 0 C 21.082031 0.4375 19.476562 0.65625 17.6875 0.65625 C 13.957031 0.65625 11.125 -0.359375 9.1875 -2.390625 C 7.25 -4.421875 6.28125 -7.375 6.28125 -11.25 L 6.28125 -27.625 L 1.03125 -27.625 L 1.03125 -34.5 L 6.28125 -34.5 L 6.28125 -41.21875 L 14.9375 -42.625 L 14.9375 -34.5 L 24.71875 -34.5 L 24.71875 -27.625 L 14.9375 -27.625 L 14.9375 -11.875 C 14.9375 -10.164062 15.289062 -8.921875 16 -8.140625 C 16.707031 -7.359375 17.738281 -6.96875 19.09375 -6.96875 C 20.632812 -6.96875 21.976562 -7.382812 23.125 -8.21875 Z M 23.78125 -8.21875 "/></g></g></g><g fill="#ffde59" fill-opacity="1"><g transform="translate(113.100472, 301.89997)"><g><path d="M 4.96875 0 L 4.96875 -48.3125 L 13.625 -48.3125 L 13.625 -29.96875 L 14.28125 -29.84375 C 15.425781 -31.53125 16.832031 -32.832031 18.5 -33.75 C 20.164062 -34.664062 22.175781 -35.125 24.53125 -35.125 C 32.132812 -35.125 35.9375 -30.8125 35.9375 -22.1875 L 35.9375 0 L 27.28125 0 L 27.28125 -21.09375 C 27.28125 -23.445312 26.8125 -25.15625 25.875 -26.21875 C 24.9375 -27.28125 23.476562 -27.8125 21.5 -27.8125 C 19.082031 -27.8125 17.164062 -27.003906 15.75 -25.390625 C 14.332031 -23.773438 13.625 -21.257812 13.625 -17.84375 L 13.625 0 Z M 4.96875 0 "/></g></g></g><g fill="#ffde59" fill-opacity="1"><g transform="translate(153.473005, 301.89997)"><g><path d="M 34.0625 -15.28125 L 11.90625 -15.28125 C 12.15625 -12.28125 13.007812 -10.097656 14.46875 -8.734375 C 15.925781 -7.367188 17.914062 -6.6875 20.4375 -6.6875 C 22.414062 -6.6875 24.019531 -7.054688 25.25 -7.796875 C 26.476562 -8.535156 27.46875 -9.65625 28.21875 -11.15625 L 28.875 -11.15625 L 34.625 -7.46875 C 33.5 -5.050781 31.800781 -3.09375 29.53125 -1.59375 C 27.257812 -0.09375 24.226562 0.65625 20.4375 0.65625 C 16.875 0.65625 13.796875 -0.0195312 11.203125 -1.375 C 8.609375 -2.726562 6.609375 -4.742188 5.203125 -7.421875 C 3.796875 -10.097656 3.09375 -13.363281 3.09375 -17.21875 C 3.09375 -21.132812 3.832031 -24.4375 5.3125 -27.125 C 6.789062 -29.8125 8.789062 -31.816406 11.3125 -33.140625 C 13.832031 -34.460938 16.664062 -35.125 19.8125 -35.125 C 24.6875 -35.125 28.421875 -33.832031 31.015625 -31.25 C 33.609375 -28.664062 34.90625 -24.875 34.90625 -19.875 C 34.90625 -18.0625 34.84375 -16.65625 34.71875 -15.65625 Z M 26.625 -20.875 C 26.539062 -23.5 25.929688 -25.410156 24.796875 -26.609375 C 23.660156 -27.804688 22 -28.40625 19.8125 -28.40625 C 15.4375 -28.40625 12.863281 -25.894531 12.09375 -20.875 Z M 26.625 -20.875 "/></g></g></g><g fill="#ffde59" fill-opacity="1"><g transform="translate(190.939471, 301.89997)"><g/></g></g><g fill="#ffde59" fill-opacity="1"><g transform="translate(206.032304, 301.89997)"><g><path d="M 20.09375 0.65625 C 16.757812 0.65625 13.8125 -0.0351562 11.25 -1.421875 C 8.6875 -2.804688 6.6875 -4.84375 5.25 -7.53125 C 3.8125 -10.21875 3.09375 -13.445312 3.09375 -17.21875 C 3.09375 -21.007812 3.8125 -24.25 5.25 -26.9375 C 6.6875 -29.625 8.675781 -31.660156 11.21875 -33.046875 C 13.757812 -34.429688 16.664062 -35.125 19.9375 -35.125 C 27.207031 -35.125 31.863281 -32.488281 33.90625 -27.21875 L 27.96875 -22.96875 L 27.3125 -22.96875 C 26.601562 -24.59375 25.679688 -25.800781 24.546875 -26.59375 C 23.410156 -27.382812 21.875 -27.78125 19.9375 -27.78125 C 17.4375 -27.78125 15.488281 -26.914062 14.09375 -25.1875 C 12.695312 -23.457031 12 -20.800781 12 -17.21875 C 12 -13.675781 12.707031 -11.035156 14.125 -9.296875 C 15.539062 -7.554688 17.53125 -6.6875 20.09375 -6.6875 C 21.96875 -6.6875 23.554688 -7.191406 24.859375 -8.203125 C 26.160156 -9.210938 27.09375 -10.664062 27.65625 -12.5625 L 28.3125 -12.625 L 34.46875 -9.25 C 33.59375 -6.332031 31.972656 -3.953125 29.609375 -2.109375 C 27.242188 -0.265625 24.070312 0.65625 20.09375 0.65625 Z M 20.09375 0.65625 "/></g></g></g><g fill="#ffde59" fill-opacity="1"><g transform="translate(241.561388, 301.89997)"><g><path d="M 20.03125 0.65625 C 16.65625 0.65625 13.691406 -0.0351562 11.140625 -1.421875 C 8.585938 -2.804688 6.609375 -4.835938 5.203125 -7.515625 C 3.796875 -10.191406 3.09375 -13.425781 3.09375 -17.21875 C 3.09375 -21.007812 3.796875 -24.25 5.203125 -26.9375 C 6.609375 -29.625 8.585938 -31.660156 11.140625 -33.046875 C 13.691406 -34.429688 16.65625 -35.125 20.03125 -35.125 C 23.40625 -35.125 26.367188 -34.429688 28.921875 -33.046875 C 31.472656 -31.660156 33.457031 -29.625 34.875 -26.9375 C 36.289062 -24.25 37 -21.007812 37 -17.21875 C 37 -13.425781 36.289062 -10.191406 34.875 -7.515625 C 33.457031 -4.835938 31.472656 -2.804688 28.921875 -1.421875 C 26.367188 -0.0351562 23.40625 0.65625 20.03125 0.65625 Z M 20.03125 -6.6875 C 25.382812 -6.6875 28.0625 -10.195312 28.0625 -17.21875 C 28.0625 -20.863281 27.375 -23.535156 26 -25.234375 C 24.625 -26.929688 22.632812 -27.78125 20.03125 -27.78125 C 14.675781 -27.78125 12 -24.257812 12 -17.21875 C 12 -10.195312 14.675781 -6.6875 20.03125 -6.6875 Z M 20.03125 -6.6875 "/></g></g></g><g fill="#ffde59" fill-opacity="1"><g transform="translate(281.621451, 301.89997)"><g><path d="M 4.96875 0 L 4.96875 -34.46875 L 13.28125 -34.46875 L 13.28125 -29.84375 L 13.9375 -29.71875 C 15.0625 -31.570312 16.378906 -32.9375 17.890625 -33.8125 C 19.398438 -34.6875 21.332031 -35.125 23.6875 -35.125 C 26.289062 -35.125 28.382812 -34.609375 29.96875 -33.578125 C 31.550781 -32.546875 32.707031 -31.039062 33.4375 -29.0625 L 34.09375 -29.0625 C 35.15625 -31.125 36.523438 -32.648438 38.203125 -33.640625 C 39.878906 -34.628906 41.96875 -35.125 44.46875 -35.125 C 51.613281 -35.125 55.1875 -31.144531 55.1875 -23.1875 L 55.1875 0 L 46.53125 0 L 46.53125 -22.09375 C 46.53125 -24.113281 46.132812 -25.570312 45.34375 -26.46875 C 44.550781 -27.363281 43.28125 -27.8125 41.53125 -27.8125 C 36.78125 -27.8125 34.40625 -24.632812 34.40625 -18.28125 L 34.40625 0 L 25.75 0 L 25.75 -22.09375 C 25.75 -24.113281 25.347656 -25.570312 24.546875 -26.46875 C 23.742188 -27.363281 22.46875 -27.8125 20.71875 -27.8125 C 18.488281 -27.8125 16.75 -27.066406 15.5 -25.578125 C 14.25 -24.085938 13.625 -21.71875 13.625 -18.46875 L 13.625 0 Z M 4.96875 0 "/></g></g></g><g fill="#ffde59" fill-opacity="1"><g transform="translate(341.242808, 301.89997)"><g><path d="M 4.96875 13.96875 L 4.96875 -34.46875 L 13.625 -34.46875 L 13.625 -29.96875 L 14.28125 -29.84375 C 15.300781 -31.59375 16.664062 -32.910156 18.375 -33.796875 C 20.082031 -34.679688 22.082031 -35.125 24.375 -35.125 C 27.144531 -35.125 29.566406 -34.46875 31.640625 -33.15625 C 33.710938 -31.84375 35.328125 -29.847656 36.484375 -27.171875 C 37.640625 -24.492188 38.21875 -21.175781 38.21875 -17.21875 C 38.21875 -13.28125 37.609375 -9.976562 36.390625 -7.3125 C 35.171875 -4.644531 33.476562 -2.648438 31.3125 -1.328125 C 29.144531 -0.00390625 26.644531 0.65625 23.8125 0.65625 C 21.664062 0.65625 19.8125 0.296875 18.25 -0.421875 C 16.6875 -1.140625 15.363281 -2.257812 14.28125 -3.78125 L 13.625 -3.65625 L 13.625 13.96875 Z M 21.40625 -6.6875 C 23.988281 -6.6875 25.945312 -7.53125 27.28125 -9.21875 C 28.613281 -10.90625 29.28125 -13.570312 29.28125 -17.21875 C 29.28125 -20.863281 28.613281 -23.535156 27.28125 -25.234375 C 25.945312 -26.929688 23.988281 -27.78125 21.40625 -27.78125 C 18.988281 -27.78125 17.070312 -26.90625 15.65625 -25.15625 C 14.238281 -23.40625 13.53125 -20.757812 13.53125 -17.21875 C 13.53125 -13.695312 14.238281 -11.0625 15.65625 -9.3125 C 17.070312 -7.5625 18.988281 -6.6875 21.40625 -6.6875 Z M 21.40625 -6.6875 "/></g></g></g><g fill="#ffde59" fill-opacity="1"><g transform="translate(382.52153, 301.89997)"><g><path d="M 15.78125 0.65625 C 11.90625 0.65625 9.046875 -0.398438 7.203125 -2.515625 C 5.359375 -4.628906 4.4375 -7.664062 4.4375 -11.625 L 4.4375 -34.46875 L 13.09375 -34.46875 L 13.09375 -12.71875 C 13.09375 -10.613281 13.546875 -9.078125 14.453125 -8.109375 C 15.359375 -7.140625 16.757812 -6.65625 18.65625 -6.65625 C 21.050781 -6.65625 22.914062 -7.441406 24.25 -9.015625 C 25.582031 -10.585938 26.25 -13.0625 26.25 -16.4375 L 26.25 -34.46875 L 34.90625 -34.46875 L 34.90625 0 L 26.59375 0 L 26.59375 -5.0625 L 25.9375 -5.21875 C 24.832031 -3.238281 23.484375 -1.765625 21.890625 -0.796875 C 20.296875 0.171875 18.257812 0.65625 15.78125 0.65625 Z M 15.78125 0.65625 "/></g></g></g><g fill="#ffde59" fill-opacity="1"><g transform="translate(422.394093, 301.89997)"><g><path d="M 23.78125 -8.21875 L 26.03125 -1.8125 C 25.09375 -1.039062 23.914062 -0.4375 22.5 0 C 21.082031 0.4375 19.476562 0.65625 17.6875 0.65625 C 13.957031 0.65625 11.125 -0.359375 9.1875 -2.390625 C 7.25 -4.421875 6.28125 -7.375 6.28125 -11.25 L 6.28125 -27.625 L 1.03125 -27.625 L 1.03125 -34.5 L 6.28125 -34.5 L 6.28125 -41.21875 L 14.9375 -42.625 L 14.9375 -34.5 L 24.71875 -34.5 L 24.71875 -27.625 L 14.9375 -27.625 L 14.9375 -11.875 C 14.9375 -10.164062 15.289062 -8.921875 16 -8.140625 C 16.707031 -7.359375 17.738281 -6.96875 19.09375 -6.96875 C 20.632812 -6.96875 21.976562 -7.382812 23.125 -8.21875 Z M 23.78125 -8.21875 "/></g></g></g><g fill="#ffde59" fill-opacity="1"><g transform="translate(449.1737, 301.89997)"><g><path d="M 34.0625 -15.28125 L 11.90625 -15.28125 C 12.15625 -12.28125 13.007812 -10.097656 14.46875 -8.734375 C 15.925781 -7.367188 17.914062 -6.6875 20.4375 -6.6875 C 22.414062 -6.6875 24.019531 -7.054688 25.25 -7.796875 C 26.476562 -8.535156 27.46875 -9.65625 28.21875 -11.15625 L 28.875 -11.15625 L 34.625 -7.46875 C 33.5 -5.050781 31.800781 -3.09375 29.53125 -1.59375 C 27.257812 -0.09375 24.226562 0.65625 20.4375 0.65625 C 16.875 0.65625 13.796875 -0.0195312 11.203125 -1.375 C 8.609375 -2.726562 6.609375 -4.742188 5.203125 -7.421875 C 3.796875 -10.097656 3.09375 -13.363281 3.09375 -17.21875 C 3.09375 -21.132812 3.832031 -24.4375 5.3125 -27.125 C 6.789062 -29.8125 8.789062 -31.816406 11.3125 -33.140625 C 13.832031 -34.460938 16.664062 -35.125 19.8125 -35.125 C 24.6875 -35.125 28.421875 -33.832031 31.015625 -31.25 C 33.609375 -28.664062 34.90625 -24.875 34.90625 -19.875 C 34.90625 -18.0625 34.84375 -16.65625 34.71875 -15.65625 Z M 26.625 -20.875 C 26.539062 -23.5 25.929688 -25.410156 24.796875 -26.609375 C 23.660156 -27.804688 22 -28.40625 19.8125 -28.40625 C 15.4375 -28.40625 12.863281 -25.894531 12.09375 -20.875 Z M 26.625 -20.875 "/></g></g></g><g fill="#ffde59" fill-opacity="1"><g transform="translate(486.640189, 301.89997)"><g><path d="M 4.96875 0 L 4.96875 -34.46875 L 13.375 -34.46875 L 13.375 -29.34375 L 14.03125 -29.21875 C 14.863281 -31.132812 15.957031 -32.539062 17.3125 -33.4375 C 18.664062 -34.332031 20.3125 -34.78125 22.25 -34.78125 C 24.207031 -34.78125 25.695312 -34.445312 26.71875 -33.78125 L 25.25 -26.3125 L 24.59375 -26.1875 C 24.03125 -26.414062 23.488281 -26.582031 22.96875 -26.6875 C 22.445312 -26.789062 21.8125 -26.84375 21.0625 -26.84375 C 18.644531 -26.84375 16.800781 -25.992188 15.53125 -24.296875 C 14.257812 -22.597656 13.625 -19.875 13.625 -16.125 L 13.625 0 Z M 4.96875 0 "/></g></g></g><g fill="#ffde59" fill-opacity="1"><g transform="translate(168.820847, 391.149963)"><g><path d="M 4.96875 0 L 4.96875 -34.46875 L 13.375 -34.46875 L 13.375 -29.34375 L 14.03125 -29.21875 C 14.863281 -31.132812 15.957031 -32.539062 17.3125 -33.4375 C 18.664062 -34.332031 20.3125 -34.78125 22.25 -34.78125 C 24.207031 -34.78125 25.695312 -34.445312 26.71875 -33.78125 L 25.25 -26.3125 L 24.59375 -26.1875 C 24.03125 -26.414062 23.488281 -26.582031 22.96875 -26.6875 C 22.445312 -26.789062 21.8125 -26.84375 21.0625 -26.84375 C 18.644531 -26.84375 16.800781 -25.992188 15.53125 -24.296875 C 14.257812 -22.597656 13.625 -19.875 13.625 -16.125 L 13.625 0 Z M 4.96875 0 "/></g></g></g><g fill="#ffde59" fill-opacity="1"><g transform="translate(195.85045, 391.149963)"><g><path d="M 34.0625 -15.28125 L 11.90625 -15.28125 C 12.15625 -12.28125 13.007812 -10.097656 14.46875 -8.734375 C 15.925781 -7.367188 17.914062 -6.6875 20.4375 -6.6875 C 22.414062 -6.6875 24.019531 -7.054688 25.25 -7.796875 C 26.476562 -8.535156 27.46875 -9.65625 28.21875 -11.15625 L 28.875 -11.15625 L 34.625 -7.46875 C 33.5 -5.050781 31.800781 -3.09375 29.53125 -1.59375 C 27.257812 -0.09375 24.226562 0.65625 20.4375 0.65625 C 16.875 0.65625 13.796875 -0.0195312 11.203125 -1.375 C 8.609375 -2.726562 6.609375 -4.742188 5.203125 -7.421875 C 3.796875 -10.097656 3.09375 -13.363281 3.09375 -17.21875 C 3.09375 -21.132812 3.832031 -24.4375 5.3125 -27.125 C 6.789062 -29.8125 8.789062 -31.816406 11.3125 -33.140625 C 13.832031 -34.460938 16.664062 -35.125 19.8125 -35.125 C 24.6875 -35.125 28.421875 -33.832031 31.015625 -31.25 C 33.609375 -28.664062 34.90625 -24.875 34.90625 -19.875 C 34.90625 -18.0625 34.84375 -16.65625 34.71875 -15.65625 Z M 26.625 -20.875 C 26.539062 -23.5 25.929688 -25.410156 24.796875 -26.609375 C 23.660156 -27.804688 22 -28.40625 19.8125 -28.40625 C 15.4375 -28.40625 12.863281 -25.894531 12.09375 -20.875 Z M 26.625 -20.875 "/></g></g></g><g fill="#ffde59" fill-opacity="1"><g transform="translate(233.316916, 391.149963)"><g><path d="M 20.09375 0.65625 C 16.757812 0.65625 13.8125 -0.0351562 11.25 -1.421875 C 8.6875 -2.804688 6.6875 -4.84375 5.25 -7.53125 C 3.8125 -10.21875 3.09375 -13.445312 3.09375 -17.21875 C 3.09375 -21.007812 3.8125 -24.25 5.25 -26.9375 C 6.6875 -29.625 8.675781 -31.660156 11.21875 -33.046875 C 13.757812 -34.429688 16.664062 -35.125 19.9375 -35.125 C 27.207031 -35.125 31.863281 -32.488281 33.90625 -27.21875 L 27.96875 -22.96875 L 27.3125 -22.96875 C 26.601562 -24.59375 25.679688 -25.800781 24.546875 -26.59375 C 23.410156 -27.382812 21.875 -27.78125 19.9375 -27.78125 C 17.4375 -27.78125 15.488281 -26.914062 14.09375 -25.1875 C 12.695312 -23.457031 12 -20.800781 12 -17.21875 C 12 -13.675781 12.707031 -11.035156 14.125 -9.296875 C 15.539062 -7.554688 17.53125 -6.6875 20.09375 -6.6875 C 21.96875 -6.6875 23.554688 -7.191406 24.859375 -8.203125 C 26.160156 -9.210938 27.09375 -10.664062 27.65625 -12.5625 L 28.3125 -12.625 L 34.46875 -9.25 C 33.59375 -6.332031 31.972656 -3.953125 29.609375 -2.109375 C 27.242188 -0.265625 24.070312 0.65625 20.09375 0.65625 Z M 20.09375 0.65625 "/></g></g></g><g fill="#ffde59" fill-opacity="1"><g transform="translate(268.846, 391.149963)"><g><path d="M 34.0625 -15.28125 L 11.90625 -15.28125 C 12.15625 -12.28125 13.007812 -10.097656 14.46875 -8.734375 C 15.925781 -7.367188 17.914062 -6.6875 20.4375 -6.6875 C 22.414062 -6.6875 24.019531 -7.054688 25.25 -7.796875 C 26.476562 -8.535156 27.46875 -9.65625 28.21875 -11.15625 L 28.875 -11.15625 L 34.625 -7.46875 C 33.5 -5.050781 31.800781 -3.09375 29.53125 -1.59375 C 27.257812 -0.09375 24.226562 0.65625 20.4375 0.65625 C 16.875 0.65625 13.796875 -0.0195312 11.203125 -1.375 C 8.609375 -2.726562 6.609375 -4.742188 5.203125 -7.421875 C 3.796875 -10.097656 3.09375 -13.363281 3.09375 -17.21875 C 3.09375 -21.132812 3.832031 -24.4375 5.3125 -27.125 C 6.789062 -29.8125 8.789062 -31.816406 11.3125 -33.140625 C 13.832031 -34.460938 16.664062 -35.125 19.8125 -35.125 C 24.6875 -35.125 28.421875 -33.832031 31.015625 -31.25 C 33.609375 -28.664062 34.90625 -24.875 34.90625 -19.875 C 34.90625 -18.0625 34.84375 -16.65625 34.71875 -15.65625 Z M 26.625 -20.875 C 26.539062 -23.5 25.929688 -25.410156 24.796875 -26.609375 C 23.660156 -27.804688 22 -28.40625 19.8125 -28.40625 C 15.4375 -28.40625 12.863281 -25.894531 12.09375 -20.875 Z M 26.625 -20.875 "/></g></g></g><g fill="#ffde59" fill-opacity="1"><g transform="translate(306.312466, 391.149963)"><g><path d="M 9.28125 -38.59375 C 7.71875 -38.59375 6.445312 -39.066406 5.46875 -40.015625 C 4.488281 -40.960938 4 -42.1875 4 -43.6875 C 4 -45.164062 4.488281 -46.378906 5.46875 -47.328125 C 6.445312 -48.273438 7.71875 -48.75 9.28125 -48.75 C 10.320312 -48.75 11.25 -48.53125 12.0625 -48.09375 C 12.875 -47.65625 13.503906 -47.054688 13.953125 -46.296875 C 14.398438 -45.535156 14.625 -44.664062 14.625 -43.6875 C 14.625 -42.707031 14.398438 -41.832031 13.953125 -41.0625 C 13.503906 -40.289062 12.875 -39.6875 12.0625 -39.25 C 11.25 -38.8125 10.320312 -38.59375 9.28125 -38.59375 Z M 4.96875 0 L 4.96875 -34.46875 L 13.625 -34.46875 L 13.625 0 Z M 4.96875 0 "/></g></g></g><g fill="#ffde59" fill-opacity="1"><g transform="translate(324.873832, 391.149963)"><g><path d="M 23.71875 0 L 13.40625 0 L 0.65625 -34.46875 L 9.71875 -34.46875 L 18.28125 -9.90625 L 19 -9.90625 L 27.59375 -34.46875 L 36.4375 -34.46875 Z M 23.71875 0 "/></g></g></g><g fill="#ffde59" fill-opacity="1"><g transform="translate(361.934067, 391.149963)"><g><path d="M 34.0625 -15.28125 L 11.90625 -15.28125 C 12.15625 -12.28125 13.007812 -10.097656 14.46875 -8.734375 C 15.925781 -7.367188 17.914062 -6.6875 20.4375 -6.6875 C 22.414062 -6.6875 24.019531 -7.054688 25.25 -7.796875 C 26.476562 -8.535156 27.46875 -9.65625 28.21875 -11.15625 L 28.875 -11.15625 L 34.625 -7.46875 C 33.5 -5.050781 31.800781 -3.09375 29.53125 -1.59375 C 27.257812 -0.09375 24.226562 0.65625 20.4375 0.65625 C 16.875 0.65625 13.796875 -0.0195312 11.203125 -1.375 C 8.609375 -2.726562 6.609375 -4.742188 5.203125 -7.421875 C 3.796875 -10.097656 3.09375 -13.363281 3.09375 -17.21875 C 3.09375 -21.132812 3.832031 -24.4375 5.3125 -27.125 C 6.789062 -29.8125 8.789062 -31.816406 11.3125 -33.140625 C 13.832031 -34.460938 16.664062 -35.125 19.8125 -35.125 C 24.6875 -35.125 28.421875 -33.832031 31.015625 -31.25 C 33.609375 -28.664062 34.90625 -24.875 34.90625 -19.875 C 34.90625 -18.0625 34.84375 -16.65625 34.71875 -15.65625 Z M 26.625 -20.875 C 26.539062 -23.5 25.929688 -25.410156 24.796875 -26.609375 C 23.660156 -27.804688 22 -28.40625 19.8125 -28.40625 C 15.4375 -28.40625 12.863281 -25.894531 12.09375 -20.875 Z M 26.625 -20.875 "/></g></g></g><g fill="#ffde59" fill-opacity="1"><g transform="translate(399.400533, 391.149963)"><g><path d="M 16.125 0.65625 C 13.769531 0.65625 11.613281 0.378906 9.65625 -0.171875 C 7.695312 -0.722656 6.023438 -1.484375 4.640625 -2.453125 C 3.253906 -3.421875 2.226562 -4.53125 1.5625 -5.78125 L 6.375 -10.96875 L 7.03125 -10.96875 C 8.175781 -9.425781 9.53125 -8.269531 11.09375 -7.5 C 12.65625 -6.726562 14.351562 -6.34375 16.1875 -6.34375 C 17.875 -6.34375 19.144531 -6.644531 20 -7.25 C 20.851562 -7.851562 21.28125 -8.71875 21.28125 -9.84375 C 21.28125 -10.71875 20.972656 -11.453125 20.359375 -12.046875 C 19.742188 -12.640625 18.75 -13.101562 17.375 -13.4375 L 12.8125 -14.53125 C 9.394531 -15.34375 6.898438 -16.585938 5.328125 -18.265625 C 3.753906 -19.941406 2.96875 -22.070312 2.96875 -24.65625 C 2.96875 -26.800781 3.515625 -28.664062 4.609375 -30.25 C 5.703125 -31.832031 7.242188 -33.039062 9.234375 -33.875 C 11.222656 -34.707031 13.539062 -35.125 16.1875 -35.125 C 19.289062 -35.125 21.863281 -34.675781 23.90625 -33.78125 C 25.945312 -32.882812 27.539062 -31.6875 28.6875 -30.1875 L 24.0625 -25.1875 L 23.4375 -25.1875 C 22.476562 -26.269531 21.398438 -27.0625 20.203125 -27.5625 C 19.003906 -28.0625 17.664062 -28.3125 16.1875 -28.3125 C 12.769531 -28.3125 11.0625 -27.25 11.0625 -25.125 C 11.0625 -24.226562 11.378906 -23.5 12.015625 -22.9375 C 12.648438 -22.375 13.769531 -21.914062 15.375 -21.5625 L 19.625 -20.625 C 23.125 -19.875 25.679688 -18.671875 27.296875 -17.015625 C 28.910156 -15.359375 29.71875 -13.132812 29.71875 -10.34375 C 29.71875 -8.15625 29.175781 -6.226562 28.09375 -4.5625 C 27.007812 -2.894531 25.445312 -1.609375 23.40625 -0.703125 C 21.363281 0.203125 18.9375 0.65625 16.125 0.65625 Z M 16.125 0.65625 "/></g></g></g></svg>