<svg xmlns="http://www.w3.org/2000/svg" xmlns:xlink="http://www.w3.org/1999/xlink" width="800" zoomAndPan="magnify" viewBox="0 0 600 449.999984" height="600" preserveAspectRatio="xMidYMid meet" version="1.0"><defs><g/></defs><g fill="#ff66c4" fill-opacity="1"><g transform="translate(23.590389, 268.773421)"><g><path d="M 30.21875 0 L 12.625 0 L 12.625 -97.09375 L 37.71875 -97.09375 L 62.296875 -25.703125 L 63.6875 -25.703125 L 88.125 -97.09375 L 112.625 -97.09375 L 112.625 0 L 94.4375 0 L 94.4375 -64.15625 L 92.765625 -64.421875 L 70.328125 0 L 54.328125 0 L 31.875 -64.421875 L 30.21875 -64.15625 Z M 30.21875 0 "/></g></g></g><g fill="#ff66c4" fill-opacity="1"><g transform="translate(148.89538, 268.773421)"><g><path d="M 72.390625 -32.46875 L 25.296875 -32.46875 C 25.828125 -26.09375 27.640625 -21.457031 30.734375 -18.5625 C 33.835938 -15.664062 38.070312 -14.21875 43.4375 -14.21875 C 47.632812 -14.21875 51.039062 -15 53.65625 -16.5625 C 56.269531 -18.132812 58.375 -20.515625 59.96875 -23.703125 L 61.359375 -23.703125 L 73.578125 -15.875 C 71.191406 -10.738281 67.582031 -6.578125 62.75 -3.390625 C 57.925781 -0.203125 51.488281 1.390625 43.4375 1.390625 C 35.863281 1.390625 29.320312 -0.046875 23.8125 -2.921875 C 18.300781 -5.796875 14.050781 -10.078125 11.0625 -15.765625 C 8.070312 -21.460938 6.578125 -28.40625 6.578125 -36.59375 C 6.578125 -44.914062 8.144531 -51.929688 11.28125 -57.640625 C 14.425781 -63.347656 18.675781 -67.609375 24.03125 -70.421875 C 29.394531 -73.234375 35.421875 -74.640625 42.109375 -74.640625 C 52.460938 -74.640625 60.394531 -71.894531 65.90625 -66.40625 C 71.414062 -60.914062 74.171875 -52.859375 74.171875 -42.234375 C 74.171875 -38.378906 74.039062 -35.390625 73.78125 -33.265625 Z M 56.578125 -44.359375 C 56.398438 -49.941406 55.101562 -54.003906 52.6875 -56.546875 C 50.28125 -59.085938 46.753906 -60.359375 42.109375 -60.359375 C 32.804688 -60.359375 27.335938 -55.023438 25.703125 -44.359375 Z M 56.578125 -44.359375 "/></g></g></g><g fill="#ff66c4" fill-opacity="1"><g transform="translate(228.514187, 268.773421)"><g><path d="M 10.5625 0 L 10.5625 -73.25 L 28.21875 -73.25 L 28.21875 -63.421875 L 29.625 -63.15625 C 32.007812 -67.09375 34.804688 -69.988281 38.015625 -71.84375 C 41.222656 -73.707031 45.332031 -74.640625 50.34375 -74.640625 C 55.875 -74.640625 60.320312 -73.539062 63.6875 -71.34375 C 67.050781 -69.15625 69.507812 -65.960938 71.0625 -61.765625 L 72.453125 -61.765625 C 74.710938 -66.140625 77.625 -69.378906 81.1875 -71.484375 C 84.75 -73.585938 89.1875 -74.640625 94.5 -74.640625 C 109.6875 -74.640625 117.28125 -66.1875 117.28125 -49.28125 L 117.28125 0 L 98.875 0 L 98.875 -46.953125 C 98.875 -51.242188 98.03125 -54.34375 96.34375 -56.25 C 94.664062 -58.15625 91.96875 -59.109375 88.25 -59.109375 C 78.15625 -59.109375 73.109375 -52.351562 73.109375 -38.84375 L 73.109375 0 L 54.71875 0 L 54.71875 -46.953125 C 54.71875 -51.242188 53.863281 -54.34375 52.15625 -56.25 C 50.457031 -58.15625 47.75 -59.109375 44.03125 -59.109375 C 39.289062 -59.109375 35.59375 -57.523438 32.9375 -54.359375 C 30.28125 -51.191406 28.953125 -46.15625 28.953125 -39.25 L 28.953125 0 Z M 10.5625 0 "/></g></g></g><g fill="#ff66c4" fill-opacity="1"><g transform="translate(355.213664, 268.773421)"><g><path d="M 42.5625 1.390625 C 35.394531 1.390625 29.097656 -0.078125 23.671875 -3.015625 C 18.253906 -5.960938 14.050781 -10.28125 11.0625 -15.96875 C 8.070312 -21.65625 6.578125 -28.53125 6.578125 -36.59375 C 6.578125 -44.644531 8.070312 -51.523438 11.0625 -57.234375 C 14.050781 -62.953125 18.253906 -67.28125 23.671875 -70.21875 C 29.097656 -73.164062 35.394531 -74.640625 42.5625 -74.640625 C 49.738281 -74.640625 56.035156 -73.164062 61.453125 -70.21875 C 66.878906 -67.28125 71.097656 -62.953125 74.109375 -57.234375 C 77.117188 -51.523438 78.625 -44.644531 78.625 -36.59375 C 78.625 -28.53125 77.117188 -21.65625 74.109375 -15.96875 C 71.097656 -10.28125 66.878906 -5.960938 61.453125 -3.015625 C 56.035156 -0.078125 49.738281 1.390625 42.5625 1.390625 Z M 42.5625 -14.21875 C 53.945312 -14.21875 59.640625 -21.675781 59.640625 -36.59375 C 59.640625 -44.34375 58.175781 -50.019531 55.25 -53.625 C 52.332031 -57.226562 48.101562 -59.03125 42.5625 -59.03125 C 31.1875 -59.03125 25.5 -51.550781 25.5 -36.59375 C 25.5 -21.675781 31.1875 -14.21875 42.5625 -14.21875 Z M 42.5625 -14.21875 "/></g></g></g><g fill="#ff66c4" fill-opacity="1"><g transform="translate(440.344037, 268.773421)"><g><path d="M 10.5625 0 L 10.5625 -73.25 L 28.421875 -73.25 L 28.421875 -62.359375 L 29.8125 -62.09375 C 31.582031 -66.164062 33.90625 -69.148438 36.78125 -71.046875 C 39.664062 -72.953125 43.164062 -73.90625 47.28125 -73.90625 C 51.445312 -73.90625 54.613281 -73.195312 56.78125 -71.78125 L 53.65625 -55.921875 L 52.265625 -55.65625 C 51.066406 -56.132812 49.914062 -56.484375 48.8125 -56.703125 C 47.707031 -56.929688 46.359375 -57.046875 44.765625 -57.046875 C 39.628906 -57.046875 35.707031 -55.238281 33 -51.625 C 30.300781 -48.019531 28.953125 -42.234375 28.953125 -34.265625 L 28.953125 0 Z M 10.5625 0 "/></g></g></g><g fill="#ff66c4" fill-opacity="1"><g transform="translate(497.783806, 268.773421)"><g><path d="M 16.203125 31.078125 C 13.054688 31.078125 10.210938 30.832031 7.671875 30.34375 C 5.128906 29.863281 3.0625 29.222656 1.46875 28.421875 L 4.390625 13.546875 L 5.578125 13.15625 C 6.679688 13.726562 8.050781 14.191406 9.6875 14.546875 C 11.332031 14.898438 13.019531 15.078125 14.75 15.078125 C 17.707031 15.078125 20.171875 14.6875 22.140625 13.90625 C 24.117188 13.132812 25.789062 11.851562 27.15625 10.0625 C 28.53125 8.269531 29.75 5.78125 30.8125 2.59375 L 1.59375 -73.25 L 20.859375 -73.25 L 39.046875 -22.3125 L 40.640625 -22.3125 L 58.375 -73.25 L 77.09375 -73.25 L 47.6875 4.578125 C 45.332031 10.867188 42.75 15.925781 39.9375 19.75 C 37.132812 23.582031 33.816406 26.425781 29.984375 28.28125 C 26.148438 30.144531 21.554688 31.078125 16.203125 31.078125 Z M 16.203125 31.078125 "/></g></g></g></svg>