<svg xmlns="http://www.w3.org/2000/svg" xmlns:xlink="http://www.w3.org/1999/xlink" width="800" zoomAndPan="magnify" viewBox="0 0 600 449.999984" height="600" preserveAspectRatio="xMidYMid meet" version="1.0"><defs><g/></defs><g fill="#ff66c4" fill-opacity="1"><g transform="translate(36.316951, 240.8234)"><g><path d="M 39.8125 -77.09375 C 45.332031 -77.09375 50.050781 -76.082031 53.96875 -74.0625 C 57.894531 -72.039062 60.859375 -69.210938 62.859375 -65.578125 C 64.859375 -61.941406 65.859375 -57.710938 65.859375 -52.890625 C 65.859375 -48.078125 64.859375 -43.859375 62.859375 -40.234375 C 60.859375 -36.617188 57.894531 -33.796875 53.96875 -31.765625 C 50.050781 -29.742188 45.332031 -28.734375 39.8125 -28.734375 L 25.265625 -28.734375 L 25.265625 0 L 10.015625 0 L 10.015625 -77.09375 Z M 37.8125 -40.8125 C 46.28125 -40.8125 50.515625 -44.835938 50.515625 -52.890625 C 50.515625 -60.972656 46.28125 -65.015625 37.8125 -65.015625 L 25.265625 -65.015625 L 25.265625 -40.8125 Z M 37.8125 -40.8125 "/></g></g><g transform="translate(106.77007, 240.8234)"><g><path d="M 8.390625 0 L 8.390625 -58.171875 L 22.578125 -58.171875 L 22.578125 -49.515625 L 23.671875 -49.3125 C 25.078125 -52.539062 26.921875 -54.910156 29.203125 -56.421875 C 31.492188 -57.929688 34.273438 -58.6875 37.546875 -58.6875 C 40.847656 -58.6875 43.363281 -58.125 45.09375 -57 L 42.609375 -44.40625 L 41.5 -44.1875 C 40.550781 -44.570312 39.632812 -44.851562 38.75 -45.03125 C 37.875 -45.207031 36.804688 -45.296875 35.546875 -45.296875 C 31.460938 -45.296875 28.347656 -43.863281 26.203125 -41 C 24.066406 -38.132812 23 -33.539062 23 -27.21875 L 23 0 Z M 8.390625 0 "/></g></g><g transform="translate(152.385301, 240.8234)"><g><path d="M 33.796875 1.109375 C 28.109375 1.109375 23.109375 -0.0546875 18.796875 -2.390625 C 14.492188 -4.734375 11.15625 -8.160156 8.78125 -12.671875 C 6.40625 -17.191406 5.21875 -22.65625 5.21875 -29.0625 C 5.21875 -35.457031 6.40625 -40.921875 8.78125 -45.453125 C 11.15625 -49.992188 14.492188 -53.429688 18.796875 -55.765625 C 23.109375 -58.109375 28.109375 -59.28125 33.796875 -59.28125 C 39.492188 -59.28125 44.492188 -58.109375 48.796875 -55.765625 C 53.109375 -53.429688 56.457031 -49.992188 58.84375 -45.453125 C 61.238281 -40.921875 62.4375 -35.457031 62.4375 -29.0625 C 62.4375 -22.65625 61.238281 -17.191406 58.84375 -12.671875 C 56.457031 -8.160156 53.109375 -4.734375 48.796875 -2.390625 C 44.492188 -0.0546875 39.492188 1.109375 33.796875 1.109375 Z M 33.796875 -11.28125 C 42.835938 -11.28125 47.359375 -17.207031 47.359375 -29.0625 C 47.359375 -35.207031 46.195312 -39.710938 43.875 -42.578125 C 41.550781 -45.441406 38.191406 -46.875 33.796875 -46.875 C 24.765625 -46.875 20.25 -40.9375 20.25 -29.0625 C 20.25 -17.207031 24.765625 -11.28125 33.796875 -11.28125 Z M 33.796875 -11.28125 "/></g></g><g transform="translate(219.990764, 240.8234)"><g><path d="M 33.90625 1.109375 C 28.28125 1.109375 23.304688 -0.0546875 18.984375 -2.390625 C 14.660156 -4.734375 11.285156 -8.171875 8.859375 -12.703125 C 6.429688 -17.242188 5.21875 -22.695312 5.21875 -29.0625 C 5.21875 -35.457031 6.429688 -40.921875 8.859375 -45.453125 C 11.285156 -49.992188 14.640625 -53.429688 18.921875 -55.765625 C 23.210938 -58.109375 28.117188 -59.28125 33.640625 -59.28125 C 45.910156 -59.28125 53.769531 -54.832031 57.21875 -45.9375 L 47.203125 -38.765625 L 46.09375 -38.765625 C 44.894531 -41.503906 43.335938 -43.539062 41.421875 -44.875 C 39.503906 -46.207031 36.910156 -46.875 33.640625 -46.875 C 29.421875 -46.875 26.132812 -45.414062 23.78125 -42.5 C 21.425781 -39.582031 20.25 -35.101562 20.25 -29.0625 C 20.25 -23.082031 21.441406 -18.625 23.828125 -15.6875 C 26.222656 -12.75 29.582031 -11.28125 33.90625 -11.28125 C 37.070312 -11.28125 39.753906 -12.132812 41.953125 -13.84375 C 44.148438 -15.550781 45.722656 -18.003906 46.671875 -21.203125 L 47.78125 -21.3125 L 58.171875 -15.609375 C 56.691406 -10.691406 53.957031 -6.675781 49.96875 -3.5625 C 45.976562 -0.445312 40.625 1.109375 33.90625 1.109375 Z M 33.90625 1.109375 "/></g></g><g transform="translate(279.949744, 240.8234)"><g><path d="M 57.484375 -25.78125 L 20.09375 -25.78125 C 20.507812 -20.71875 21.945312 -17.035156 24.40625 -14.734375 C 26.875 -12.429688 30.234375 -11.28125 34.484375 -11.28125 C 37.828125 -11.28125 40.535156 -11.90625 42.609375 -13.15625 C 44.679688 -14.40625 46.351562 -16.296875 47.625 -18.828125 L 48.734375 -18.828125 L 58.4375 -12.609375 C 56.53125 -8.523438 53.660156 -5.21875 49.828125 -2.6875 C 46.003906 -0.15625 40.890625 1.109375 34.484375 1.109375 C 28.472656 1.109375 23.28125 -0.03125 18.90625 -2.3125 C 14.53125 -4.601562 11.15625 -8.003906 8.78125 -12.515625 C 6.40625 -17.035156 5.21875 -22.550781 5.21875 -29.0625 C 5.21875 -35.664062 6.460938 -41.234375 8.953125 -45.765625 C 11.453125 -50.304688 14.828125 -53.691406 19.078125 -55.921875 C 23.335938 -58.160156 28.125 -59.28125 33.4375 -59.28125 C 41.664062 -59.28125 47.96875 -57.097656 52.34375 -52.734375 C 56.71875 -48.378906 58.90625 -41.984375 58.90625 -33.546875 C 58.90625 -30.484375 58.800781 -28.109375 58.59375 -26.421875 Z M 44.9375 -35.234375 C 44.789062 -39.660156 43.757812 -42.882812 41.84375 -44.90625 C 39.925781 -46.925781 37.125 -47.9375 33.4375 -47.9375 C 26.050781 -47.9375 21.707031 -43.703125 20.40625 -35.234375 Z M 44.9375 -35.234375 "/></g></g><g transform="translate(343.178255, 240.8234)"><g><path d="M 27.21875 1.109375 C 23.238281 1.109375 19.597656 0.644531 16.296875 -0.28125 C 12.992188 -1.21875 10.171875 -2.503906 7.828125 -4.140625 C 5.492188 -5.773438 3.765625 -7.644531 2.640625 -9.75 L 10.765625 -18.515625 L 11.859375 -18.515625 C 13.796875 -15.910156 16.082031 -13.957031 18.71875 -12.65625 C 21.351562 -11.351562 24.21875 -10.703125 27.3125 -10.703125 C 30.164062 -10.703125 32.3125 -11.210938 33.75 -12.234375 C 35.1875 -13.253906 35.90625 -14.710938 35.90625 -16.609375 C 35.90625 -18.085938 35.382812 -19.328125 34.34375 -20.328125 C 33.3125 -21.328125 31.640625 -22.109375 29.328125 -22.671875 L 21.625 -24.515625 C 15.851562 -25.890625 11.640625 -27.988281 8.984375 -30.8125 C 6.335938 -33.644531 5.015625 -37.242188 5.015625 -41.609375 C 5.015625 -45.234375 5.9375 -48.378906 7.78125 -51.046875 C 9.625 -53.722656 12.222656 -55.765625 15.578125 -57.171875 C 18.941406 -58.578125 22.851562 -59.28125 27.3125 -59.28125 C 32.550781 -59.28125 36.894531 -58.519531 40.34375 -57 C 43.789062 -55.488281 46.476562 -53.46875 48.40625 -50.9375 L 40.609375 -42.5 L 39.546875 -42.5 C 37.929688 -44.332031 36.113281 -45.671875 34.09375 -46.515625 C 32.070312 -47.359375 29.8125 -47.78125 27.3125 -47.78125 C 21.550781 -47.78125 18.671875 -45.988281 18.671875 -42.40625 C 18.671875 -40.882812 19.207031 -39.648438 20.28125 -38.703125 C 21.351562 -37.753906 23.242188 -36.984375 25.953125 -36.390625 L 33.125 -34.8125 C 39.03125 -33.539062 43.34375 -31.503906 46.0625 -28.703125 C 48.789062 -25.910156 50.15625 -22.160156 50.15625 -17.453125 C 50.15625 -13.765625 49.238281 -10.515625 47.40625 -7.703125 C 45.582031 -4.890625 42.945312 -2.71875 39.5 -1.1875 C 36.050781 0.34375 31.957031 1.109375 27.21875 1.109375 Z M 27.21875 1.109375 "/></g></g><g transform="translate(396.80911, 240.8234)"><g><path d="M 27.21875 1.109375 C 23.238281 1.109375 19.597656 0.644531 16.296875 -0.28125 C 12.992188 -1.21875 10.171875 -2.503906 7.828125 -4.140625 C 5.492188 -5.773438 3.765625 -7.644531 2.640625 -9.75 L 10.765625 -18.515625 L 11.859375 -18.515625 C 13.796875 -15.910156 16.082031 -13.957031 18.71875 -12.65625 C 21.351562 -11.351562 24.21875 -10.703125 27.3125 -10.703125 C 30.164062 -10.703125 32.3125 -11.210938 33.75 -12.234375 C 35.1875 -13.253906 35.90625 -14.710938 35.90625 -16.609375 C 35.90625 -18.085938 35.382812 -19.328125 34.34375 -20.328125 C 33.3125 -21.328125 31.640625 -22.109375 29.328125 -22.671875 L 21.625 -24.515625 C 15.851562 -25.890625 11.640625 -27.988281 8.984375 -30.8125 C 6.335938 -33.644531 5.015625 -37.242188 5.015625 -41.609375 C 5.015625 -45.234375 5.9375 -48.378906 7.78125 -51.046875 C 9.625 -53.722656 12.222656 -55.765625 15.578125 -57.171875 C 18.941406 -58.578125 22.851562 -59.28125 27.3125 -59.28125 C 32.550781 -59.28125 36.894531 -58.519531 40.34375 -57 C 43.789062 -55.488281 46.476562 -53.46875 48.40625 -50.9375 L 40.609375 -42.5 L 39.546875 -42.5 C 37.929688 -44.332031 36.113281 -45.671875 34.09375 -46.515625 C 32.070312 -47.359375 29.8125 -47.78125 27.3125 -47.78125 C 21.550781 -47.78125 18.671875 -45.988281 18.671875 -42.40625 C 18.671875 -40.882812 19.207031 -39.648438 20.28125 -38.703125 C 21.351562 -37.753906 23.242188 -36.984375 25.953125 -36.390625 L 33.125 -34.8125 C 39.03125 -33.539062 43.34375 -31.503906 46.0625 -28.703125 C 48.789062 -25.910156 50.15625 -22.160156 50.15625 -17.453125 C 50.15625 -13.765625 49.238281 -10.515625 47.40625 -7.703125 C 45.582031 -4.890625 42.945312 -2.71875 39.5 -1.1875 C 36.050781 0.34375 31.957031 1.109375 27.21875 1.109375 Z M 27.21875 1.109375 "/></g></g><g transform="translate(450.439965, 240.8234)"><g><path d="M 33.796875 1.109375 C 28.109375 1.109375 23.109375 -0.0546875 18.796875 -2.390625 C 14.492188 -4.734375 11.15625 -8.160156 8.78125 -12.671875 C 6.40625 -17.191406 5.21875 -22.65625 5.21875 -29.0625 C 5.21875 -35.457031 6.40625 -40.921875 8.78125 -45.453125 C 11.15625 -49.992188 14.492188 -53.429688 18.796875 -55.765625 C 23.109375 -58.109375 28.109375 -59.28125 33.796875 -59.28125 C 39.492188 -59.28125 44.492188 -58.109375 48.796875 -55.765625 C 53.109375 -53.429688 56.457031 -49.992188 58.84375 -45.453125 C 61.238281 -40.921875 62.4375 -35.457031 62.4375 -29.0625 C 62.4375 -22.65625 61.238281 -17.191406 58.84375 -12.671875 C 56.457031 -8.160156 53.109375 -4.734375 48.796875 -2.390625 C 44.492188 -0.0546875 39.492188 1.109375 33.796875 1.109375 Z M 33.796875 -11.28125 C 42.835938 -11.28125 47.359375 -17.207031 47.359375 -29.0625 C 47.359375 -35.207031 46.195312 -39.710938 43.875 -42.578125 C 41.550781 -45.441406 38.191406 -46.875 33.796875 -46.875 C 24.765625 -46.875 20.25 -40.9375 20.25 -29.0625 C 20.25 -17.207031 24.765625 -11.28125 33.796875 -11.28125 Z M 33.796875 -11.28125 "/></g></g><g transform="translate(518.045428, 240.8234)"><g><path d="M 8.390625 0 L 8.390625 -58.171875 L 22.578125 -58.171875 L 22.578125 -49.515625 L 23.671875 -49.3125 C 25.078125 -52.539062 26.921875 -54.910156 29.203125 -56.421875 C 31.492188 -57.929688 34.273438 -58.6875 37.546875 -58.6875 C 40.847656 -58.6875 43.363281 -58.125 45.09375 -57 L 42.609375 -44.40625 L 41.5 -44.1875 C 40.550781 -44.570312 39.632812 -44.851562 38.75 -45.03125 C 37.875 -45.207031 36.804688 -45.296875 35.546875 -45.296875 C 31.460938 -45.296875 28.347656 -43.863281 26.203125 -41 C 24.066406 -38.132812 23 -33.539062 23 -27.21875 L 23 0 Z M 8.390625 0 "/></g></g></g></svg>