<svg xmlns="http://www.w3.org/2000/svg" xmlns:xlink="http://www.w3.org/1999/xlink" width="800" zoomAndPan="magnify" viewBox="0 0 600 449.999984" height="600" preserveAspectRatio="xMidYMid meet" version="1.0"><defs><g/></defs><g fill="#ffde59" fill-opacity="1"><g transform="translate(45.328669, 132.74999)"><g><path d="M 19.90625 -38.546875 C 22.664062 -38.546875 25.023438 -38.039062 26.984375 -37.03125 C 28.941406 -36.019531 30.421875 -34.601562 31.421875 -32.78125 C 32.429688 -30.96875 32.9375 -28.859375 32.9375 -26.453125 C 32.9375 -24.035156 32.429688 -21.921875 31.421875 -20.109375 C 30.421875 -18.304688 28.941406 -16.898438 26.984375 -15.890625 C 25.023438 -14.878906 22.664062 -14.375 19.90625 -14.375 L 12.625 -14.375 L 12.625 0 L 5.015625 0 L 5.015625 -38.546875 Z M 18.90625 -20.40625 C 23.144531 -20.40625 25.265625 -22.421875 25.265625 -26.453125 C 25.265625 -30.492188 23.144531 -32.515625 18.90625 -32.515625 L 12.625 -32.515625 L 12.625 -20.40625 Z M 18.90625 -20.40625 "/></g></g><g transform="translate(80.555229, 132.74999)"><g><path d="M 4.1875 0 L 4.1875 -29.078125 L 11.28125 -29.078125 L 11.28125 -24.765625 L 11.84375 -24.65625 C 12.539062 -26.269531 13.460938 -27.453125 14.609375 -28.203125 C 15.753906 -28.960938 17.144531 -29.34375 18.78125 -29.34375 C 20.425781 -29.34375 21.679688 -29.0625 22.546875 -28.5 L 21.3125 -22.203125 L 20.75 -22.09375 C 20.28125 -22.289062 19.820312 -22.429688 19.375 -22.515625 C 18.9375 -22.609375 18.398438 -22.65625 17.765625 -22.65625 C 15.734375 -22.65625 14.179688 -21.9375 13.109375 -20.5 C 12.035156 -19.070312 11.5 -16.773438 11.5 -13.609375 L 11.5 0 Z M 4.1875 0 "/></g></g><g transform="translate(103.362844, 132.74999)"><g><path d="M 16.90625 0.546875 C 14.050781 0.546875 11.546875 -0.0351562 9.390625 -1.203125 C 7.242188 -2.367188 5.578125 -4.082031 4.390625 -6.34375 C 3.203125 -8.601562 2.609375 -11.332031 2.609375 -14.53125 C 2.609375 -17.726562 3.203125 -20.457031 4.390625 -22.71875 C 5.578125 -24.988281 7.242188 -26.707031 9.390625 -27.875 C 11.546875 -29.050781 14.050781 -29.640625 16.90625 -29.640625 C 19.75 -29.640625 22.25 -29.050781 24.40625 -27.875 C 26.5625 -26.707031 28.234375 -24.988281 29.421875 -22.71875 C 30.617188 -20.457031 31.21875 -17.726562 31.21875 -14.53125 C 31.21875 -11.332031 30.617188 -8.601562 29.421875 -6.34375 C 28.234375 -4.082031 26.5625 -2.367188 24.40625 -1.203125 C 22.25 -0.0351562 19.75 0.546875 16.90625 0.546875 Z M 16.90625 -5.640625 C 21.414062 -5.640625 23.671875 -8.601562 23.671875 -14.53125 C 23.671875 -17.601562 23.09375 -19.851562 21.9375 -21.28125 C 20.78125 -22.71875 19.101562 -23.4375 16.90625 -23.4375 C 12.382812 -23.4375 10.125 -20.46875 10.125 -14.53125 C 10.125 -8.601562 12.382812 -5.640625 16.90625 -5.640625 Z M 16.90625 -5.640625 "/></g></g><g transform="translate(137.165576, 132.74999)"><g><path d="M 16.953125 0.546875 C 14.140625 0.546875 11.648438 -0.0351562 9.484375 -1.203125 C 7.328125 -2.367188 5.640625 -4.082031 4.421875 -6.34375 C 3.210938 -8.613281 2.609375 -11.34375 2.609375 -14.53125 C 2.609375 -17.726562 3.210938 -20.457031 4.421875 -22.71875 C 5.640625 -24.988281 7.320312 -26.707031 9.46875 -27.875 C 11.613281 -29.050781 14.066406 -29.640625 16.828125 -29.640625 C 22.960938 -29.640625 26.890625 -27.414062 28.609375 -22.96875 L 23.59375 -19.375 L 23.046875 -19.375 C 22.453125 -20.75 21.675781 -21.769531 20.71875 -22.4375 C 19.757812 -23.101562 18.460938 -23.4375 16.828125 -23.4375 C 14.710938 -23.4375 13.066406 -22.707031 11.890625 -21.25 C 10.710938 -19.789062 10.125 -17.550781 10.125 -14.53125 C 10.125 -11.539062 10.722656 -9.3125 11.921875 -7.84375 C 13.117188 -6.375 14.796875 -5.640625 16.953125 -5.640625 C 18.535156 -5.640625 19.875 -6.066406 20.96875 -6.921875 C 22.070312 -7.773438 22.859375 -9 23.328125 -10.59375 L 23.890625 -10.65625 L 29.078125 -7.8125 C 28.335938 -5.34375 26.96875 -3.332031 24.96875 -1.78125 C 22.976562 -0.226562 20.304688 0.546875 16.953125 0.546875 Z M 16.953125 0.546875 "/></g></g><g transform="translate(167.145065, 132.74999)"><g><path d="M 28.734375 -12.890625 L 10.046875 -12.890625 C 10.253906 -10.359375 10.972656 -8.515625 12.203125 -7.359375 C 13.429688 -6.210938 15.113281 -5.640625 17.25 -5.640625 C 18.914062 -5.640625 20.265625 -5.953125 21.296875 -6.578125 C 22.335938 -7.203125 23.175781 -8.144531 23.8125 -9.40625 L 24.359375 -9.40625 L 29.21875 -6.296875 C 28.269531 -4.265625 26.835938 -2.613281 24.921875 -1.34375 C 23.003906 -0.0820312 20.445312 0.546875 17.25 0.546875 C 14.238281 0.546875 11.640625 -0.0195312 9.453125 -1.15625 C 7.265625 -2.300781 5.578125 -4.003906 4.390625 -6.265625 C 3.203125 -8.523438 2.609375 -11.28125 2.609375 -14.53125 C 2.609375 -17.832031 3.234375 -20.613281 4.484375 -22.875 C 5.734375 -25.144531 7.421875 -26.835938 9.546875 -27.953125 C 11.671875 -29.078125 14.0625 -29.640625 16.71875 -29.640625 C 20.832031 -29.640625 23.984375 -28.546875 26.171875 -26.359375 C 28.359375 -24.179688 29.453125 -20.984375 29.453125 -16.765625 C 29.453125 -15.234375 29.398438 -14.046875 29.296875 -13.203125 Z M 22.46875 -17.609375 C 22.394531 -19.828125 21.878906 -21.441406 20.921875 -22.453125 C 19.960938 -23.460938 18.5625 -23.96875 16.71875 -23.96875 C 13.03125 -23.96875 10.859375 -21.847656 10.203125 -17.609375 Z M 22.46875 -17.609375 "/></g></g><g transform="translate(198.759321, 132.74999)"><g><path d="M 13.609375 0.546875 C 11.617188 0.546875 9.796875 0.316406 8.140625 -0.140625 C 6.492188 -0.609375 5.082031 -1.25 3.90625 -2.0625 C 2.738281 -2.882812 1.875 -3.820312 1.3125 -4.875 L 5.375 -9.25 L 5.9375 -9.25 C 6.90625 -7.945312 8.046875 -6.972656 9.359375 -6.328125 C 10.679688 -5.679688 12.113281 -5.359375 13.65625 -5.359375 C 15.082031 -5.359375 16.15625 -5.609375 16.875 -6.109375 C 17.59375 -6.617188 17.953125 -7.351562 17.953125 -8.3125 C 17.953125 -9.039062 17.691406 -9.65625 17.171875 -10.15625 C 16.660156 -10.664062 15.820312 -11.0625 14.65625 -11.34375 L 10.8125 -12.265625 C 7.925781 -12.953125 5.816406 -14 4.484375 -15.40625 C 3.160156 -16.820312 2.5 -18.617188 2.5 -20.796875 C 2.5 -22.609375 2.960938 -24.179688 3.890625 -25.515625 C 4.816406 -26.859375 6.117188 -27.878906 7.796875 -28.578125 C 9.472656 -29.285156 11.425781 -29.640625 13.65625 -29.640625 C 16.28125 -29.640625 18.453125 -29.257812 20.171875 -28.5 C 21.890625 -27.75 23.234375 -26.738281 24.203125 -25.46875 L 20.296875 -21.25 L 19.78125 -21.25 C 18.96875 -22.164062 18.054688 -22.832031 17.046875 -23.25 C 16.035156 -23.675781 14.90625 -23.890625 13.65625 -23.890625 C 10.769531 -23.890625 9.328125 -22.992188 9.328125 -21.203125 C 9.328125 -20.441406 9.59375 -19.820312 10.125 -19.34375 C 10.664062 -18.875 11.613281 -18.488281 12.96875 -18.1875 L 16.5625 -17.40625 C 19.507812 -16.769531 21.664062 -15.753906 23.03125 -14.359375 C 24.394531 -12.960938 25.078125 -11.085938 25.078125 -8.734375 C 25.078125 -6.878906 24.617188 -5.25 23.703125 -3.84375 C 22.785156 -2.4375 21.46875 -1.351562 19.75 -0.59375 C 18.03125 0.164062 15.984375 0.546875 13.609375 0.546875 Z M 13.609375 0.546875 "/></g></g><g transform="translate(225.574748, 132.74999)"><g><path d="M 13.609375 0.546875 C 11.617188 0.546875 9.796875 0.316406 8.140625 -0.140625 C 6.492188 -0.609375 5.082031 -1.25 3.90625 -2.0625 C 2.738281 -2.882812 1.875 -3.820312 1.3125 -4.875 L 5.375 -9.25 L 5.9375 -9.25 C 6.90625 -7.945312 8.046875 -6.972656 9.359375 -6.328125 C 10.679688 -5.679688 12.113281 -5.359375 13.65625 -5.359375 C 15.082031 -5.359375 16.15625 -5.609375 16.875 -6.109375 C 17.59375 -6.617188 17.953125 -7.351562 17.953125 -8.3125 C 17.953125 -9.039062 17.691406 -9.65625 17.171875 -10.15625 C 16.660156 -10.664062 15.820312 -11.0625 14.65625 -11.34375 L 10.8125 -12.265625 C 7.925781 -12.953125 5.816406 -14 4.484375 -15.40625 C 3.160156 -16.820312 2.5 -18.617188 2.5 -20.796875 C 2.5 -22.609375 2.960938 -24.179688 3.890625 -25.515625 C 4.816406 -26.859375 6.117188 -27.878906 7.796875 -28.578125 C 9.472656 -29.285156 11.425781 -29.640625 13.65625 -29.640625 C 16.28125 -29.640625 18.453125 -29.257812 20.171875 -28.5 C 21.890625 -27.75 23.234375 -26.738281 24.203125 -25.46875 L 20.296875 -21.25 L 19.78125 -21.25 C 18.96875 -22.164062 18.054688 -22.832031 17.046875 -23.25 C 16.035156 -23.675781 14.90625 -23.890625 13.65625 -23.890625 C 10.769531 -23.890625 9.328125 -22.992188 9.328125 -21.203125 C 9.328125 -20.441406 9.59375 -19.820312 10.125 -19.34375 C 10.664062 -18.875 11.613281 -18.488281 12.96875 -18.1875 L 16.5625 -17.40625 C 19.507812 -16.769531 21.664062 -15.753906 23.03125 -14.359375 C 24.394531 -12.960938 25.078125 -11.085938 25.078125 -8.734375 C 25.078125 -6.878906 24.617188 -5.25 23.703125 -3.84375 C 22.785156 -2.4375 21.46875 -1.351562 19.75 -0.59375 C 18.03125 0.164062 15.984375 0.546875 13.609375 0.546875 Z M 13.609375 0.546875 "/></g></g><g transform="translate(252.390176, 132.74999)"><g><path d="M 28.734375 -12.890625 L 10.046875 -12.890625 C 10.253906 -10.359375 10.972656 -8.515625 12.203125 -7.359375 C 13.429688 -6.210938 15.113281 -5.640625 17.25 -5.640625 C 18.914062 -5.640625 20.265625 -5.953125 21.296875 -6.578125 C 22.335938 -7.203125 23.175781 -8.144531 23.8125 -9.40625 L 24.359375 -9.40625 L 29.21875 -6.296875 C 28.269531 -4.265625 26.835938 -2.613281 24.921875 -1.34375 C 23.003906 -0.0820312 20.445312 0.546875 17.25 0.546875 C 14.238281 0.546875 11.640625 -0.0195312 9.453125 -1.15625 C 7.265625 -2.300781 5.578125 -4.003906 4.390625 -6.265625 C 3.203125 -8.523438 2.609375 -11.28125 2.609375 -14.53125 C 2.609375 -17.832031 3.234375 -20.613281 4.484375 -22.875 C 5.734375 -25.144531 7.421875 -26.835938 9.546875 -27.953125 C 11.671875 -29.078125 14.0625 -29.640625 16.71875 -29.640625 C 20.832031 -29.640625 23.984375 -28.546875 26.171875 -26.359375 C 28.359375 -24.179688 29.453125 -20.984375 29.453125 -16.765625 C 29.453125 -15.234375 29.398438 -14.046875 29.296875 -13.203125 Z M 22.46875 -17.609375 C 22.394531 -19.828125 21.878906 -21.441406 20.921875 -22.453125 C 19.960938 -23.460938 18.5625 -23.96875 16.71875 -23.96875 C 13.03125 -23.96875 10.859375 -21.847656 10.203125 -17.609375 Z M 22.46875 -17.609375 "/></g></g><g transform="translate(284.004431, 132.74999)"><g><path d="M 13.609375 0.546875 C 11.617188 0.546875 9.796875 0.316406 8.140625 -0.140625 C 6.492188 -0.609375 5.082031 -1.25 3.90625 -2.0625 C 2.738281 -2.882812 1.875 -3.820312 1.3125 -4.875 L 5.375 -9.25 L 5.9375 -9.25 C 6.90625 -7.945312 8.046875 -6.972656 9.359375 -6.328125 C 10.679688 -5.679688 12.113281 -5.359375 13.65625 -5.359375 C 15.082031 -5.359375 16.15625 -5.609375 16.875 -6.109375 C 17.59375 -6.617188 17.953125 -7.351562 17.953125 -8.3125 C 17.953125 -9.039062 17.691406 -9.65625 17.171875 -10.15625 C 16.660156 -10.664062 15.820312 -11.0625 14.65625 -11.34375 L 10.8125 -12.265625 C 7.925781 -12.953125 5.816406 -14 4.484375 -15.40625 C 3.160156 -16.820312 2.5 -18.617188 2.5 -20.796875 C 2.5 -22.609375 2.960938 -24.179688 3.890625 -25.515625 C 4.816406 -26.859375 6.117188 -27.878906 7.796875 -28.578125 C 9.472656 -29.285156 11.425781 -29.640625 13.65625 -29.640625 C 16.28125 -29.640625 18.453125 -29.257812 20.171875 -28.5 C 21.890625 -27.75 23.234375 -26.738281 24.203125 -25.46875 L 20.296875 -21.25 L 19.78125 -21.25 C 18.96875 -22.164062 18.054688 -22.832031 17.046875 -23.25 C 16.035156 -23.675781 14.90625 -23.890625 13.65625 -23.890625 C 10.769531 -23.890625 9.328125 -22.992188 9.328125 -21.203125 C 9.328125 -20.441406 9.59375 -19.820312 10.125 -19.34375 C 10.664062 -18.875 11.613281 -18.488281 12.96875 -18.1875 L 16.5625 -17.40625 C 19.507812 -16.769531 21.664062 -15.753906 23.03125 -14.359375 C 24.394531 -12.960938 25.078125 -11.085938 25.078125 -8.734375 C 25.078125 -6.878906 24.617188 -5.25 23.703125 -3.84375 C 22.785156 -2.4375 21.46875 -1.351562 19.75 -0.59375 C 18.03125 0.164062 15.984375 0.546875 13.609375 0.546875 Z M 13.609375 0.546875 "/></g></g><g transform="translate(310.819859, 132.74999)"><g/></g><g transform="translate(323.555209, 132.74999)"><g><path d="M 14.375 0.546875 C 12.070312 0.546875 10.035156 -0.0078125 8.265625 -1.125 C 6.492188 -2.238281 5.109375 -3.925781 4.109375 -6.1875 C 3.109375 -8.445312 2.609375 -11.226562 2.609375 -14.53125 C 2.609375 -17.851562 3.125 -20.640625 4.15625 -22.890625 C 5.1875 -25.148438 6.609375 -26.835938 8.421875 -27.953125 C 10.242188 -29.078125 12.347656 -29.640625 14.734375 -29.640625 C 16.546875 -29.640625 18.113281 -29.328125 19.4375 -28.703125 C 20.769531 -28.078125 21.894531 -27.101562 22.8125 -25.78125 L 23.359375 -25.921875 L 23.359375 -40.765625 L 30.671875 -40.765625 L 30.671875 0 L 23.359375 0 L 23.359375 -3.765625 L 22.8125 -3.875 C 22 -2.5 20.890625 -1.414062 19.484375 -0.625 C 18.078125 0.15625 16.375 0.546875 14.375 0.546875 Z M 16.75 -5.640625 C 18.800781 -5.640625 20.425781 -6.375 21.625 -7.84375 C 22.820312 -9.3125 23.421875 -11.539062 23.421875 -14.53125 C 23.421875 -17.519531 22.820312 -19.75 21.625 -21.21875 C 20.425781 -22.695312 18.800781 -23.4375 16.75 -23.4375 C 14.601562 -23.4375 12.960938 -22.71875 11.828125 -21.28125 C 10.691406 -19.851562 10.125 -17.601562 10.125 -14.53125 C 10.125 -11.46875 10.691406 -9.21875 11.828125 -7.78125 C 12.960938 -6.351562 14.601562 -5.640625 16.75 -5.640625 Z M 16.75 -5.640625 "/></g></g><g transform="translate(358.412628, 132.74999)"><g><path d="M 11.34375 0.546875 C 9.476562 0.546875 7.859375 0.207031 6.484375 -0.46875 C 5.117188 -1.15625 4.066406 -2.160156 3.328125 -3.484375 C 2.585938 -4.816406 2.21875 -6.414062 2.21875 -8.28125 C 2.21875 -10 2.585938 -11.441406 3.328125 -12.609375 C 4.066406 -13.785156 5.207031 -14.742188 6.75 -15.484375 C 8.300781 -16.234375 10.320312 -16.8125 12.8125 -17.21875 C 14.550781 -17.5 15.875 -17.804688 16.78125 -18.140625 C 17.6875 -18.472656 18.296875 -18.847656 18.609375 -19.265625 C 18.929688 -19.691406 19.09375 -20.234375 19.09375 -20.890625 C 19.09375 -21.816406 18.765625 -22.523438 18.109375 -23.015625 C 17.460938 -23.503906 16.382812 -23.75 14.875 -23.75 C 13.257812 -23.75 11.71875 -23.390625 10.25 -22.671875 C 8.789062 -21.953125 7.523438 -21.003906 6.453125 -19.828125 L 5.9375 -19.828125 L 2.875 -24.4375 C 4.351562 -26.070312 6.15625 -27.347656 8.28125 -28.265625 C 10.40625 -29.179688 12.722656 -29.640625 15.234375 -29.640625 C 19.085938 -29.640625 21.875 -28.820312 23.59375 -27.1875 C 25.320312 -25.550781 26.1875 -23.226562 26.1875 -20.21875 L 26.1875 -7.59375 C 26.1875 -6.289062 26.753906 -5.640625 27.890625 -5.640625 C 28.335938 -5.640625 28.769531 -5.71875 29.1875 -5.875 L 29.5625 -5.78125 L 30.078125 -0.6875 C 29.679688 -0.425781 29.117188 -0.207031 28.390625 -0.03125 C 27.671875 0.132812 26.882812 0.21875 26.03125 0.21875 C 24.289062 0.21875 22.929688 -0.113281 21.953125 -0.78125 C 20.972656 -1.457031 20.273438 -2.503906 19.859375 -3.921875 L 19.296875 -3.984375 C 17.878906 -0.960938 15.226562 0.546875 11.34375 0.546875 Z M 13.65625 -4.90625 C 15.34375 -4.90625 16.691406 -5.472656 17.703125 -6.609375 C 18.710938 -7.742188 19.21875 -9.320312 19.21875 -11.34375 L 19.21875 -14.296875 L 18.71875 -14.390625 C 18.28125 -14.046875 17.703125 -13.753906 16.984375 -13.515625 C 16.273438 -13.273438 15.253906 -13.039062 13.921875 -12.8125 C 12.335938 -12.550781 11.195312 -12.097656 10.5 -11.453125 C 9.8125 -10.816406 9.46875 -9.910156 9.46875 -8.734375 C 9.46875 -7.484375 9.835938 -6.53125 10.578125 -5.875 C 11.316406 -5.226562 12.34375 -4.90625 13.65625 -4.90625 Z M 13.65625 -4.90625 "/></g></g><g transform="translate(389.077665, 132.74999)"><g><path d="M 20.0625 -6.9375 L 21.96875 -1.53125 C 21.175781 -0.875 20.179688 -0.363281 18.984375 0 C 17.785156 0.363281 16.429688 0.546875 14.921875 0.546875 C 11.773438 0.546875 9.382812 -0.304688 7.75 -2.015625 C 6.113281 -3.734375 5.296875 -6.226562 5.296875 -9.5 L 5.296875 -23.3125 L 0.875 -23.3125 L 0.875 -29.109375 L 5.296875 -29.109375 L 5.296875 -34.78125 L 12.609375 -35.96875 L 12.609375 -29.109375 L 20.859375 -29.109375 L 20.859375 -23.3125 L 12.609375 -23.3125 L 12.609375 -10.015625 C 12.609375 -8.578125 12.90625 -7.523438 13.5 -6.859375 C 14.09375 -6.203125 14.960938 -5.875 16.109375 -5.875 C 17.410156 -5.875 18.546875 -6.226562 19.515625 -6.9375 Z M 20.0625 -6.9375 "/></g></g><g transform="translate(411.674342, 132.74999)"><g><path d="M 11.34375 0.546875 C 9.476562 0.546875 7.859375 0.207031 6.484375 -0.46875 C 5.117188 -1.15625 4.066406 -2.160156 3.328125 -3.484375 C 2.585938 -4.816406 2.21875 -6.414062 2.21875 -8.28125 C 2.21875 -10 2.585938 -11.441406 3.328125 -12.609375 C 4.066406 -13.785156 5.207031 -14.742188 6.75 -15.484375 C 8.300781 -16.234375 10.320312 -16.8125 12.8125 -17.21875 C 14.550781 -17.5 15.875 -17.804688 16.78125 -18.140625 C 17.6875 -18.472656 18.296875 -18.847656 18.609375 -19.265625 C 18.929688 -19.691406 19.09375 -20.234375 19.09375 -20.890625 C 19.09375 -21.816406 18.765625 -22.523438 18.109375 -23.015625 C 17.460938 -23.503906 16.382812 -23.75 14.875 -23.75 C 13.257812 -23.75 11.71875 -23.390625 10.25 -22.671875 C 8.789062 -21.953125 7.523438 -21.003906 6.453125 -19.828125 L 5.9375 -19.828125 L 2.875 -24.4375 C 4.351562 -26.070312 6.15625 -27.347656 8.28125 -28.265625 C 10.40625 -29.179688 12.722656 -29.640625 15.234375 -29.640625 C 19.085938 -29.640625 21.875 -28.820312 23.59375 -27.1875 C 25.320312 -25.550781 26.1875 -23.226562 26.1875 -20.21875 L 26.1875 -7.59375 C 26.1875 -6.289062 26.753906 -5.640625 27.890625 -5.640625 C 28.335938 -5.640625 28.769531 -5.71875 29.1875 -5.875 L 29.5625 -5.78125 L 30.078125 -0.6875 C 29.679688 -0.425781 29.117188 -0.207031 28.390625 -0.03125 C 27.671875 0.132812 26.882812 0.21875 26.03125 0.21875 C 24.289062 0.21875 22.929688 -0.113281 21.953125 -0.78125 C 20.972656 -1.457031 20.273438 -2.503906 19.859375 -3.921875 L 19.296875 -3.984375 C 17.878906 -0.960938 15.226562 0.546875 11.34375 0.546875 Z M 13.65625 -4.90625 C 15.34375 -4.90625 16.691406 -5.472656 17.703125 -6.609375 C 18.710938 -7.742188 19.21875 -9.320312 19.21875 -11.34375 L 19.21875 -14.296875 L 18.71875 -14.390625 C 18.28125 -14.046875 17.703125 -13.753906 16.984375 -13.515625 C 16.273438 -13.273438 15.253906 -13.039062 13.921875 -12.8125 C 12.335938 -12.550781 11.195312 -12.097656 10.5 -11.453125 C 9.8125 -10.816406 9.46875 -9.910156 9.46875 -8.734375 C 9.46875 -7.484375 9.835938 -6.53125 10.578125 -5.875 C 11.316406 -5.226562 12.34375 -4.90625 13.65625 -4.90625 Z M 13.65625 -4.90625 "/></g></g><g transform="translate(442.339379, 132.74999)"><g/></g><g transform="translate(455.074729, 132.74999)"><g><path d="M 11.34375 0.546875 C 9.476562 0.546875 7.859375 0.207031 6.484375 -0.46875 C 5.117188 -1.15625 4.066406 -2.160156 3.328125 -3.484375 C 2.585938 -4.816406 2.21875 -6.414062 2.21875 -8.28125 C 2.21875 -10 2.585938 -11.441406 3.328125 -12.609375 C 4.066406 -13.785156 5.207031 -14.742188 6.75 -15.484375 C 8.300781 -16.234375 10.320312 -16.8125 12.8125 -17.21875 C 14.550781 -17.5 15.875 -17.804688 16.78125 -18.140625 C 17.6875 -18.472656 18.296875 -18.847656 18.609375 -19.265625 C 18.929688 -19.691406 19.09375 -20.234375 19.09375 -20.890625 C 19.09375 -21.816406 18.765625 -22.523438 18.109375 -23.015625 C 17.460938 -23.503906 16.382812 -23.75 14.875 -23.75 C 13.257812 -23.75 11.71875 -23.390625 10.25 -22.671875 C 8.789062 -21.953125 7.523438 -21.003906 6.453125 -19.828125 L 5.9375 -19.828125 L 2.875 -24.4375 C 4.351562 -26.070312 6.15625 -27.347656 8.28125 -28.265625 C 10.40625 -29.179688 12.722656 -29.640625 15.234375 -29.640625 C 19.085938 -29.640625 21.875 -28.820312 23.59375 -27.1875 C 25.320312 -25.550781 26.1875 -23.226562 26.1875 -20.21875 L 26.1875 -7.59375 C 26.1875 -6.289062 26.753906 -5.640625 27.890625 -5.640625 C 28.335938 -5.640625 28.769531 -5.71875 29.1875 -5.875 L 29.5625 -5.78125 L 30.078125 -0.6875 C 29.679688 -0.425781 29.117188 -0.207031 28.390625 -0.03125 C 27.671875 0.132812 26.882812 0.21875 26.03125 0.21875 C 24.289062 0.21875 22.929688 -0.113281 21.953125 -0.78125 C 20.972656 -1.457031 20.273438 -2.503906 19.859375 -3.921875 L 19.296875 -3.984375 C 17.878906 -0.960938 15.226562 0.546875 11.34375 0.546875 Z M 13.65625 -4.90625 C 15.34375 -4.90625 16.691406 -5.472656 17.703125 -6.609375 C 18.710938 -7.742188 19.21875 -9.320312 19.21875 -11.34375 L 19.21875 -14.296875 L 18.71875 -14.390625 C 18.28125 -14.046875 17.703125 -13.753906 16.984375 -13.515625 C 16.273438 -13.273438 15.253906 -13.039062 13.921875 -12.8125 C 12.335938 -12.550781 11.195312 -12.097656 10.5 -11.453125 C 9.8125 -10.816406 9.46875 -9.910156 9.46875 -8.734375 C 9.46875 -7.484375 9.835938 -6.53125 10.578125 -5.875 C 11.316406 -5.226562 12.34375 -4.90625 13.65625 -4.90625 Z M 13.65625 -4.90625 "/></g></g><g transform="translate(485.739766, 132.74999)"><g><path d="M 4.1875 0 L 4.1875 -29.078125 L 11.203125 -29.078125 L 11.203125 -24.8125 L 11.765625 -24.6875 C 13.566406 -27.988281 16.5 -29.640625 20.5625 -29.640625 C 23.925781 -29.640625 26.394531 -28.722656 27.96875 -26.890625 C 29.539062 -25.066406 30.328125 -22.40625 30.328125 -18.90625 L 30.328125 0 L 23.015625 0 L 23.015625 -18.015625 C 23.015625 -19.941406 22.628906 -21.332031 21.859375 -22.1875 C 21.085938 -23.039062 19.847656 -23.46875 18.140625 -23.46875 C 16.046875 -23.46875 14.414062 -22.789062 13.25 -21.4375 C 12.082031 -20.082031 11.5 -17.957031 11.5 -15.0625 L 11.5 0 Z M 4.1875 0 "/></g></g><g transform="translate(519.80617, 132.74999)"><g><path d="M 14.375 0.546875 C 12.070312 0.546875 10.035156 -0.0078125 8.265625 -1.125 C 6.492188 -2.238281 5.109375 -3.925781 4.109375 -6.1875 C 3.109375 -8.445312 2.609375 -11.226562 2.609375 -14.53125 C 2.609375 -17.851562 3.125 -20.640625 4.15625 -22.890625 C 5.1875 -25.148438 6.609375 -26.835938 8.421875 -27.953125 C 10.242188 -29.078125 12.347656 -29.640625 14.734375 -29.640625 C 16.546875 -29.640625 18.113281 -29.328125 19.4375 -28.703125 C 20.769531 -28.078125 21.894531 -27.101562 22.8125 -25.78125 L 23.359375 -25.921875 L 23.359375 -40.765625 L 30.671875 -40.765625 L 30.671875 0 L 23.359375 0 L 23.359375 -3.765625 L 22.8125 -3.875 C 22 -2.5 20.890625 -1.414062 19.484375 -0.625 C 18.078125 0.15625 16.375 0.546875 14.375 0.546875 Z M 16.75 -5.640625 C 18.800781 -5.640625 20.425781 -6.375 21.625 -7.84375 C 22.820312 -9.3125 23.421875 -11.539062 23.421875 -14.53125 C 23.421875 -17.519531 22.820312 -19.75 21.625 -21.21875 C 20.425781 -22.695312 18.800781 -23.4375 16.75 -23.4375 C 14.601562 -23.4375 12.960938 -22.71875 11.828125 -21.28125 C 10.691406 -19.851562 10.125 -17.601562 10.125 -14.53125 C 10.125 -11.46875 10.691406 -9.21875 11.828125 -7.78125 C 12.960938 -6.351562 14.601562 -5.640625 16.75 -5.640625 Z M 16.75 -5.640625 "/></g></g></g><g fill="#ffde59" fill-opacity="1"><g transform="translate(24.820858, 207.749984)"><g><path d="M 5.09375 0 L 5.09375 -23.3125 L 0.96875 -23.3125 L 0.96875 -29.109375 L 5.09375 -29.109375 C 4.789062 -30.335938 4.640625 -31.488281 4.640625 -32.5625 C 4.640625 -34.40625 5.0625 -35.984375 5.90625 -37.296875 C 6.75 -38.609375 7.960938 -39.601562 9.546875 -40.28125 C 11.128906 -40.96875 13.007812 -41.3125 15.1875 -41.3125 C 18.40625 -41.3125 20.804688 -40.757812 22.390625 -39.65625 L 20.671875 -34.28125 L 20.125 -34.171875 C 19.03125 -34.941406 17.628906 -35.328125 15.921875 -35.328125 C 14.609375 -35.328125 13.617188 -35.003906 12.953125 -34.359375 C 12.296875 -33.722656 11.96875 -32.851562 11.96875 -31.75 C 11.96875 -31.269531 12 -30.832031 12.0625 -30.4375 C 12.125 -30.039062 12.234375 -29.597656 12.390625 -29.109375 L 20.703125 -29.109375 L 20.703125 -23.3125 L 12.390625 -23.3125 L 12.390625 0 Z M 5.09375 0 "/></g></g><g transform="translate(45.809138, 207.749984)"><g><path d="M 16.90625 0.546875 C 14.050781 0.546875 11.546875 -0.0351562 9.390625 -1.203125 C 7.242188 -2.367188 5.578125 -4.082031 4.390625 -6.34375 C 3.203125 -8.601562 2.609375 -11.332031 2.609375 -14.53125 C 2.609375 -17.726562 3.203125 -20.457031 4.390625 -22.71875 C 5.578125 -24.988281 7.242188 -26.707031 9.390625 -27.875 C 11.546875 -29.050781 14.050781 -29.640625 16.90625 -29.640625 C 19.75 -29.640625 22.25 -29.050781 24.40625 -27.875 C 26.5625 -26.707031 28.234375 -24.988281 29.421875 -22.71875 C 30.617188 -20.457031 31.21875 -17.726562 31.21875 -14.53125 C 31.21875 -11.332031 30.617188 -8.601562 29.421875 -6.34375 C 28.234375 -4.082031 26.5625 -2.367188 24.40625 -1.203125 C 22.25 -0.0351562 19.75 0.546875 16.90625 0.546875 Z M 16.90625 -5.640625 C 21.414062 -5.640625 23.671875 -8.601562 23.671875 -14.53125 C 23.671875 -17.601562 23.09375 -19.851562 21.9375 -21.28125 C 20.78125 -22.71875 19.101562 -23.4375 16.90625 -23.4375 C 12.382812 -23.4375 10.125 -20.46875 10.125 -14.53125 C 10.125 -8.601562 12.382812 -5.640625 16.90625 -5.640625 Z M 16.90625 -5.640625 "/></g></g><g transform="translate(79.611869, 207.749984)"><g><path d="M 12.078125 0.546875 C 9.453125 0.546875 7.453125 -0.15625 6.078125 -1.5625 C 4.703125 -2.976562 4.015625 -5.128906 4.015625 -8.015625 L 4.015625 -40.765625 L 11.3125 -40.765625 L 11.3125 -8.3125 C 11.3125 -6.53125 12.050781 -5.640625 13.53125 -5.640625 C 13.945312 -5.640625 14.394531 -5.710938 14.875 -5.859375 L 15.234375 -5.75 L 15.90625 -0.125 C 15.5 0.0820312 14.960938 0.242188 14.296875 0.359375 C 13.628906 0.484375 12.890625 0.546875 12.078125 0.546875 Z M 12.078125 0.546875 "/></g></g><g transform="translate(96.328665, 207.749984)"><g><path d="M 12.078125 0.546875 C 9.453125 0.546875 7.453125 -0.15625 6.078125 -1.5625 C 4.703125 -2.976562 4.015625 -5.128906 4.015625 -8.015625 L 4.015625 -40.765625 L 11.3125 -40.765625 L 11.3125 -8.3125 C 11.3125 -6.53125 12.050781 -5.640625 13.53125 -5.640625 C 13.945312 -5.640625 14.394531 -5.710938 14.875 -5.859375 L 15.234375 -5.75 L 15.90625 -0.125 C 15.5 0.0820312 14.960938 0.242188 14.296875 0.359375 C 13.628906 0.484375 12.890625 0.546875 12.078125 0.546875 Z M 12.078125 0.546875 "/></g></g><g transform="translate(113.04546, 207.749984)"><g><path d="M 16.90625 0.546875 C 14.050781 0.546875 11.546875 -0.0351562 9.390625 -1.203125 C 7.242188 -2.367188 5.578125 -4.082031 4.390625 -6.34375 C 3.203125 -8.601562 2.609375 -11.332031 2.609375 -14.53125 C 2.609375 -17.726562 3.203125 -20.457031 4.390625 -22.71875 C 5.578125 -24.988281 7.242188 -26.707031 9.390625 -27.875 C 11.546875 -29.050781 14.050781 -29.640625 16.90625 -29.640625 C 19.75 -29.640625 22.25 -29.050781 24.40625 -27.875 C 26.5625 -26.707031 28.234375 -24.988281 29.421875 -22.71875 C 30.617188 -20.457031 31.21875 -17.726562 31.21875 -14.53125 C 31.21875 -11.332031 30.617188 -8.601562 29.421875 -6.34375 C 28.234375 -4.082031 26.5625 -2.367188 24.40625 -1.203125 C 22.25 -0.0351562 19.75 0.546875 16.90625 0.546875 Z M 16.90625 -5.640625 C 21.414062 -5.640625 23.671875 -8.601562 23.671875 -14.53125 C 23.671875 -17.601562 23.09375 -19.851562 21.9375 -21.28125 C 20.78125 -22.71875 19.101562 -23.4375 16.90625 -23.4375 C 12.382812 -23.4375 10.125 -20.46875 10.125 -14.53125 C 10.125 -8.601562 12.382812 -5.640625 16.90625 -5.640625 Z M 16.90625 -5.640625 "/></g></g><g transform="translate(146.848192, 207.749984)"><g><path d="M 15.609375 0 L 7.96875 0 L 1.0625 -29.078125 L 7.828125 -29.078125 L 12.109375 -9.40625 L 12.65625 -9.40625 L 18.1875 -29.078125 L 24.515625 -29.078125 L 30.25 -9.40625 L 30.796875 -9.40625 L 34.90625 -29.078125 L 41.5 -29.078125 L 34.671875 0 L 27 0 L 21.484375 -19.796875 L 20.9375 -19.796875 Z M 15.609375 0 "/></g></g><g transform="translate(189.378462, 207.749984)"><g><path d="M 13.609375 0.546875 C 11.617188 0.546875 9.796875 0.316406 8.140625 -0.140625 C 6.492188 -0.609375 5.082031 -1.25 3.90625 -2.0625 C 2.738281 -2.882812 1.875 -3.820312 1.3125 -4.875 L 5.375 -9.25 L 5.9375 -9.25 C 6.90625 -7.945312 8.046875 -6.972656 9.359375 -6.328125 C 10.679688 -5.679688 12.113281 -5.359375 13.65625 -5.359375 C 15.082031 -5.359375 16.15625 -5.609375 16.875 -6.109375 C 17.59375 -6.617188 17.953125 -7.351562 17.953125 -8.3125 C 17.953125 -9.039062 17.691406 -9.65625 17.171875 -10.15625 C 16.660156 -10.664062 15.820312 -11.0625 14.65625 -11.34375 L 10.8125 -12.265625 C 7.925781 -12.953125 5.816406 -14 4.484375 -15.40625 C 3.160156 -16.820312 2.5 -18.617188 2.5 -20.796875 C 2.5 -22.609375 2.960938 -24.179688 3.890625 -25.515625 C 4.816406 -26.859375 6.117188 -27.878906 7.796875 -28.578125 C 9.472656 -29.285156 11.425781 -29.640625 13.65625 -29.640625 C 16.28125 -29.640625 18.453125 -29.257812 20.171875 -28.5 C 21.890625 -27.75 23.234375 -26.738281 24.203125 -25.46875 L 20.296875 -21.25 L 19.78125 -21.25 C 18.96875 -22.164062 18.054688 -22.832031 17.046875 -23.25 C 16.035156 -23.675781 14.90625 -23.890625 13.65625 -23.890625 C 10.769531 -23.890625 9.328125 -22.992188 9.328125 -21.203125 C 9.328125 -20.441406 9.59375 -19.820312 10.125 -19.34375 C 10.664062 -18.875 11.613281 -18.488281 12.96875 -18.1875 L 16.5625 -17.40625 C 19.507812 -16.769531 21.664062 -15.753906 23.03125 -14.359375 C 24.394531 -12.960938 25.078125 -11.085938 25.078125 -8.734375 C 25.078125 -6.878906 24.617188 -5.25 23.703125 -3.84375 C 22.785156 -2.4375 21.46875 -1.351562 19.75 -0.59375 C 18.03125 0.164062 15.984375 0.546875 13.609375 0.546875 Z M 13.609375 0.546875 "/></g></g><g transform="translate(216.19389, 207.749984)"><g/></g><g transform="translate(228.92924, 207.749984)"><g><path d="M 7.828125 -32.5625 C 6.515625 -32.5625 5.441406 -32.960938 4.609375 -33.765625 C 3.785156 -34.566406 3.375 -35.597656 3.375 -36.859375 C 3.375 -38.109375 3.785156 -39.132812 4.609375 -39.9375 C 5.441406 -40.738281 6.515625 -41.140625 7.828125 -41.140625 C 8.710938 -41.140625 9.492188 -40.953125 10.171875 -40.578125 C 10.859375 -40.210938 11.390625 -39.707031 11.765625 -39.0625 C 12.148438 -38.414062 12.34375 -37.679688 12.34375 -36.859375 C 12.34375 -36.035156 12.148438 -35.296875 11.765625 -34.640625 C 11.390625 -33.992188 10.859375 -33.484375 10.171875 -33.109375 C 9.492188 -32.742188 8.710938 -32.5625 7.828125 -32.5625 Z M 4.1875 0 L 4.1875 -29.078125 L 11.5 -29.078125 L 11.5 0 Z M 4.1875 0 "/></g></g><g transform="translate(244.591348, 207.749984)"><g><path d="M 4.1875 0 L 4.1875 -29.078125 L 11.203125 -29.078125 L 11.203125 -24.8125 L 11.765625 -24.6875 C 13.566406 -27.988281 16.5 -29.640625 20.5625 -29.640625 C 23.925781 -29.640625 26.394531 -28.722656 27.96875 -26.890625 C 29.539062 -25.066406 30.328125 -22.40625 30.328125 -18.90625 L 30.328125 0 L 23.015625 0 L 23.015625 -18.015625 C 23.015625 -19.941406 22.628906 -21.332031 21.859375 -22.1875 C 21.085938 -23.039062 19.847656 -23.46875 18.140625 -23.46875 C 16.046875 -23.46875 14.414062 -22.789062 13.25 -21.4375 C 12.082031 -20.082031 11.5 -17.957031 11.5 -15.0625 L 11.5 0 Z M 4.1875 0 "/></g></g><g transform="translate(278.657752, 207.749984)"><g><path d="M 13.609375 0.546875 C 11.617188 0.546875 9.796875 0.316406 8.140625 -0.140625 C 6.492188 -0.609375 5.082031 -1.25 3.90625 -2.0625 C 2.738281 -2.882812 1.875 -3.820312 1.3125 -4.875 L 5.375 -9.25 L 5.9375 -9.25 C 6.90625 -7.945312 8.046875 -6.972656 9.359375 -6.328125 C 10.679688 -5.679688 12.113281 -5.359375 13.65625 -5.359375 C 15.082031 -5.359375 16.15625 -5.609375 16.875 -6.109375 C 17.59375 -6.617188 17.953125 -7.351562 17.953125 -8.3125 C 17.953125 -9.039062 17.691406 -9.65625 17.171875 -10.15625 C 16.660156 -10.664062 15.820312 -11.0625 14.65625 -11.34375 L 10.8125 -12.265625 C 7.925781 -12.953125 5.816406 -14 4.484375 -15.40625 C 3.160156 -16.820312 2.5 -18.617188 2.5 -20.796875 C 2.5 -22.609375 2.960938 -24.179688 3.890625 -25.515625 C 4.816406 -26.859375 6.117188 -27.878906 7.796875 -28.578125 C 9.472656 -29.285156 11.425781 -29.640625 13.65625 -29.640625 C 16.28125 -29.640625 18.453125 -29.257812 20.171875 -28.5 C 21.890625 -27.75 23.234375 -26.738281 24.203125 -25.46875 L 20.296875 -21.25 L 19.78125 -21.25 C 18.96875 -22.164062 18.054688 -22.832031 17.046875 -23.25 C 16.035156 -23.675781 14.90625 -23.890625 13.65625 -23.890625 C 10.769531 -23.890625 9.328125 -22.992188 9.328125 -21.203125 C 9.328125 -20.441406 9.59375 -19.820312 10.125 -19.34375 C 10.664062 -18.875 11.613281 -18.488281 12.96875 -18.1875 L 16.5625 -17.40625 C 19.507812 -16.769531 21.664062 -15.753906 23.03125 -14.359375 C 24.394531 -12.960938 25.078125 -11.085938 25.078125 -8.734375 C 25.078125 -6.878906 24.617188 -5.25 23.703125 -3.84375 C 22.785156 -2.4375 21.46875 -1.351562 19.75 -0.59375 C 18.03125 0.164062 15.984375 0.546875 13.609375 0.546875 Z M 13.609375 0.546875 "/></g></g><g transform="translate(305.47318, 207.749984)"><g><path d="M 20.0625 -6.9375 L 21.96875 -1.53125 C 21.175781 -0.875 20.179688 -0.363281 18.984375 0 C 17.785156 0.363281 16.429688 0.546875 14.921875 0.546875 C 11.773438 0.546875 9.382812 -0.304688 7.75 -2.015625 C 6.113281 -3.734375 5.296875 -6.226562 5.296875 -9.5 L 5.296875 -23.3125 L 0.875 -23.3125 L 0.875 -29.109375 L 5.296875 -29.109375 L 5.296875 -34.78125 L 12.609375 -35.96875 L 12.609375 -29.109375 L 20.859375 -29.109375 L 20.859375 -23.3125 L 12.609375 -23.3125 L 12.609375 -10.015625 C 12.609375 -8.578125 12.90625 -7.523438 13.5 -6.859375 C 14.09375 -6.203125 14.960938 -5.875 16.109375 -5.875 C 17.410156 -5.875 18.546875 -6.226562 19.515625 -6.9375 Z M 20.0625 -6.9375 "/></g></g><g transform="translate(328.069857, 207.749984)"><g><path d="M 4.1875 0 L 4.1875 -29.078125 L 11.28125 -29.078125 L 11.28125 -24.765625 L 11.84375 -24.65625 C 12.539062 -26.269531 13.460938 -27.453125 14.609375 -28.203125 C 15.753906 -28.960938 17.144531 -29.34375 18.78125 -29.34375 C 20.425781 -29.34375 21.679688 -29.0625 22.546875 -28.5 L 21.3125 -22.203125 L 20.75 -22.09375 C 20.28125 -22.289062 19.820312 -22.429688 19.375 -22.515625 C 18.9375 -22.609375 18.398438 -22.65625 17.765625 -22.65625 C 15.734375 -22.65625 14.179688 -21.9375 13.109375 -20.5 C 12.035156 -19.070312 11.5 -16.773438 11.5 -13.609375 L 11.5 0 Z M 4.1875 0 "/></g></g><g transform="translate(350.877473, 207.749984)"><g><path d="M 13.3125 0.546875 C 10.039062 0.546875 7.628906 -0.34375 6.078125 -2.125 C 4.523438 -3.90625 3.75 -6.46875 3.75 -9.8125 L 3.75 -29.078125 L 11.046875 -29.078125 L 11.046875 -10.734375 C 11.046875 -8.953125 11.425781 -7.648438 12.1875 -6.828125 C 12.957031 -6.015625 14.140625 -5.609375 15.734375 -5.609375 C 17.765625 -5.609375 19.34375 -6.269531 20.46875 -7.59375 C 21.59375 -8.925781 22.15625 -11.019531 22.15625 -13.875 L 22.15625 -29.078125 L 29.453125 -29.078125 L 29.453125 0 L 22.4375 0 L 22.4375 -4.265625 L 21.890625 -4.40625 C 20.953125 -2.738281 19.8125 -1.492188 18.46875 -0.671875 C 17.125 0.140625 15.40625 0.546875 13.3125 0.546875 Z M 13.3125 0.546875 "/></g></g><g transform="translate(384.522002, 207.749984)"><g><path d="M 16.953125 0.546875 C 14.140625 0.546875 11.648438 -0.0351562 9.484375 -1.203125 C 7.328125 -2.367188 5.640625 -4.082031 4.421875 -6.34375 C 3.210938 -8.613281 2.609375 -11.34375 2.609375 -14.53125 C 2.609375 -17.726562 3.210938 -20.457031 4.421875 -22.71875 C 5.640625 -24.988281 7.320312 -26.707031 9.46875 -27.875 C 11.613281 -29.050781 14.066406 -29.640625 16.828125 -29.640625 C 22.960938 -29.640625 26.890625 -27.414062 28.609375 -22.96875 L 23.59375 -19.375 L 23.046875 -19.375 C 22.453125 -20.75 21.675781 -21.769531 20.71875 -22.4375 C 19.757812 -23.101562 18.460938 -23.4375 16.828125 -23.4375 C 14.710938 -23.4375 13.066406 -22.707031 11.890625 -21.25 C 10.710938 -19.789062 10.125 -17.550781 10.125 -14.53125 C 10.125 -11.539062 10.722656 -9.3125 11.921875 -7.84375 C 13.117188 -6.375 14.796875 -5.640625 16.953125 -5.640625 C 18.535156 -5.640625 19.875 -6.066406 20.96875 -6.921875 C 22.070312 -7.773438 22.859375 -9 23.328125 -10.59375 L 23.890625 -10.65625 L 29.078125 -7.8125 C 28.335938 -5.34375 26.96875 -3.332031 24.96875 -1.78125 C 22.976562 -0.226562 20.304688 0.546875 16.953125 0.546875 Z M 16.953125 0.546875 "/></g></g><g transform="translate(414.501491, 207.749984)"><g><path d="M 20.0625 -6.9375 L 21.96875 -1.53125 C 21.175781 -0.875 20.179688 -0.363281 18.984375 0 C 17.785156 0.363281 16.429688 0.546875 14.921875 0.546875 C 11.773438 0.546875 9.382812 -0.304688 7.75 -2.015625 C 6.113281 -3.734375 5.296875 -6.226562 5.296875 -9.5 L 5.296875 -23.3125 L 0.875 -23.3125 L 0.875 -29.109375 L 5.296875 -29.109375 L 5.296875 -34.78125 L 12.609375 -35.96875 L 12.609375 -29.109375 L 20.859375 -29.109375 L 20.859375 -23.3125 L 12.609375 -23.3125 L 12.609375 -10.015625 C 12.609375 -8.578125 12.90625 -7.523438 13.5 -6.859375 C 14.09375 -6.203125 14.960938 -5.875 16.109375 -5.875 C 17.410156 -5.875 18.546875 -6.226562 19.515625 -6.9375 Z M 20.0625 -6.9375 "/></g></g><g transform="translate(437.098169, 207.749984)"><g><path d="M 7.828125 -32.5625 C 6.515625 -32.5625 5.441406 -32.960938 4.609375 -33.765625 C 3.785156 -34.566406 3.375 -35.597656 3.375 -36.859375 C 3.375 -38.109375 3.785156 -39.132812 4.609375 -39.9375 C 5.441406 -40.738281 6.515625 -41.140625 7.828125 -41.140625 C 8.710938 -41.140625 9.492188 -40.953125 10.171875 -40.578125 C 10.859375 -40.210938 11.390625 -39.707031 11.765625 -39.0625 C 12.148438 -38.414062 12.34375 -37.679688 12.34375 -36.859375 C 12.34375 -36.035156 12.148438 -35.296875 11.765625 -34.640625 C 11.390625 -33.992188 10.859375 -33.484375 10.171875 -33.109375 C 9.492188 -32.742188 8.710938 -32.5625 7.828125 -32.5625 Z M 4.1875 0 L 4.1875 -29.078125 L 11.5 -29.078125 L 11.5 0 Z M 4.1875 0 "/></g></g><g transform="translate(452.760277, 207.749984)"><g><path d="M 16.90625 0.546875 C 14.050781 0.546875 11.546875 -0.0351562 9.390625 -1.203125 C 7.242188 -2.367188 5.578125 -4.082031 4.390625 -6.34375 C 3.203125 -8.601562 2.609375 -11.332031 2.609375 -14.53125 C 2.609375 -17.726562 3.203125 -20.457031 4.390625 -22.71875 C 5.578125 -24.988281 7.242188 -26.707031 9.390625 -27.875 C 11.546875 -29.050781 14.050781 -29.640625 16.90625 -29.640625 C 19.75 -29.640625 22.25 -29.050781 24.40625 -27.875 C 26.5625 -26.707031 28.234375 -24.988281 29.421875 -22.71875 C 30.617188 -20.457031 31.21875 -17.726562 31.21875 -14.53125 C 31.21875 -11.332031 30.617188 -8.601562 29.421875 -6.34375 C 28.234375 -4.082031 26.5625 -2.367188 24.40625 -1.203125 C 22.25 -0.0351562 19.75 0.546875 16.90625 0.546875 Z M 16.90625 -5.640625 C 21.414062 -5.640625 23.671875 -8.601562 23.671875 -14.53125 C 23.671875 -17.601562 23.09375 -19.851562 21.9375 -21.28125 C 20.78125 -22.71875 19.101562 -23.4375 16.90625 -23.4375 C 12.382812 -23.4375 10.125 -20.46875 10.125 -14.53125 C 10.125 -8.601562 12.382812 -5.640625 16.90625 -5.640625 Z M 16.90625 -5.640625 "/></g></g><g transform="translate(486.563009, 207.749984)"><g><path d="M 4.1875 0 L 4.1875 -29.078125 L 11.203125 -29.078125 L 11.203125 -24.8125 L 11.765625 -24.6875 C 13.566406 -27.988281 16.5 -29.640625 20.5625 -29.640625 C 23.925781 -29.640625 26.394531 -28.722656 27.96875 -26.890625 C 29.539062 -25.066406 30.328125 -22.40625 30.328125 -18.90625 L 30.328125 0 L 23.015625 0 L 23.015625 -18.015625 C 23.015625 -19.941406 22.628906 -21.332031 21.859375 -22.1875 C 21.085938 -23.039062 19.847656 -23.46875 18.140625 -23.46875 C 16.046875 -23.46875 14.414062 -22.789062 13.25 -21.4375 C 12.082031 -20.082031 11.5 -17.957031 11.5 -15.0625 L 11.5 0 Z M 4.1875 0 "/></g></g><g transform="translate(520.629413, 207.749984)"><g><path d="M 13.609375 0.546875 C 11.617188 0.546875 9.796875 0.316406 8.140625 -0.140625 C 6.492188 -0.609375 5.082031 -1.25 3.90625 -2.0625 C 2.738281 -2.882812 1.875 -3.820312 1.3125 -4.875 L 5.375 -9.25 L 5.9375 -9.25 C 6.90625 -7.945312 8.046875 -6.972656 9.359375 -6.328125 C 10.679688 -5.679688 12.113281 -5.359375 13.65625 -5.359375 C 15.082031 -5.359375 16.15625 -5.609375 16.875 -6.109375 C 17.59375 -6.617188 17.953125 -7.351562 17.953125 -8.3125 C 17.953125 -9.039062 17.691406 -9.65625 17.171875 -10.15625 C 16.660156 -10.664062 15.820312 -11.0625 14.65625 -11.34375 L 10.8125 -12.265625 C 7.925781 -12.953125 5.816406 -14 4.484375 -15.40625 C 3.160156 -16.820312 2.5 -18.617188 2.5 -20.796875 C 2.5 -22.609375 2.960938 -24.179688 3.890625 -25.515625 C 4.816406 -26.859375 6.117188 -27.878906 7.796875 -28.578125 C 9.472656 -29.285156 11.425781 -29.640625 13.65625 -29.640625 C 16.28125 -29.640625 18.453125 -29.257812 20.171875 -28.5 C 21.890625 -27.75 23.234375 -26.738281 24.203125 -25.46875 L 20.296875 -21.25 L 19.78125 -21.25 C 18.96875 -22.164062 18.054688 -22.832031 17.046875 -23.25 C 16.035156 -23.675781 14.90625 -23.890625 13.65625 -23.890625 C 10.769531 -23.890625 9.328125 -22.992188 9.328125 -21.203125 C 9.328125 -20.441406 9.59375 -19.820312 10.125 -19.34375 C 10.664062 -18.875 11.613281 -18.488281 12.96875 -18.1875 L 16.5625 -17.40625 C 19.507812 -16.769531 21.664062 -15.753906 23.03125 -14.359375 C 24.394531 -12.960938 25.078125 -11.085938 25.078125 -8.734375 C 25.078125 -6.878906 24.617188 -5.25 23.703125 -3.84375 C 22.785156 -2.4375 21.46875 -1.351562 19.75 -0.59375 C 18.03125 0.164062 15.984375 0.546875 13.609375 0.546875 Z M 13.609375 0.546875 "/></g></g><g transform="translate(547.44484, 207.749984)"><g><path d="M 1.0625 7.75 C 2.601562 6.800781 3.984375 5.65625 5.203125 4.3125 C 6.429688 2.96875 7.085938 1.601562 7.171875 0.21875 C 5.796875 0.21875 4.71875 -0.1875 3.9375 -1 C 3.15625 -1.820312 2.765625 -2.882812 2.765625 -4.1875 C 2.765625 -5.019531 2.953125 -5.773438 3.328125 -6.453125 C 3.710938 -7.128906 4.253906 -7.660156 4.953125 -8.046875 C 5.660156 -8.429688 6.472656 -8.625 7.390625 -8.625 C 8.859375 -8.625 10.03125 -8.140625 10.90625 -7.171875 C 11.789062 -6.203125 12.234375 -4.8125 12.234375 -3 C 12.234375 0.144531 11.4375 2.875 9.84375 5.1875 C 8.257812 7.507812 6.140625 9.472656 3.484375 11.078125 Z M 7.4375 -20.546875 C 6.5 -20.546875 5.675781 -20.734375 4.96875 -21.109375 C 4.257812 -21.484375 3.710938 -22.003906 3.328125 -22.671875 C 2.953125 -23.347656 2.765625 -24.109375 2.765625 -24.953125 C 2.765625 -25.796875 2.953125 -26.550781 3.328125 -27.21875 C 3.710938 -27.882812 4.257812 -28.410156 4.96875 -28.796875 C 5.675781 -29.179688 6.5 -29.375 7.4375 -29.375 C 8.382812 -29.375 9.210938 -29.1875 9.921875 -28.8125 C 10.640625 -28.4375 11.1875 -27.910156 11.5625 -27.234375 C 11.9375 -26.566406 12.125 -25.8125 12.125 -24.96875 C 12.125 -23.6875 11.695312 -22.628906 10.84375 -21.796875 C 10 -20.960938 8.863281 -20.546875 7.4375 -20.546875 Z M 7.4375 -20.546875 "/></g></g></g><g fill="#ffde59" fill-opacity="1"><g transform="translate(562.441914, 207.749984)"><g/></g></g><g fill="#ffde59" fill-opacity="1"><g transform="translate(26.731014, 282.749978)"><g/></g></g><g fill="#ffde59" fill-opacity="1"><g transform="translate(39.457576, 282.749978)"><g><path d="M 11.34375 0.546875 C 9.476562 0.546875 7.859375 0.207031 6.484375 -0.46875 C 5.117188 -1.15625 4.066406 -2.160156 3.328125 -3.484375 C 2.585938 -4.816406 2.21875 -6.414062 2.21875 -8.28125 C 2.21875 -10 2.585938 -11.441406 3.328125 -12.609375 C 4.066406 -13.785156 5.207031 -14.742188 6.75 -15.484375 C 8.300781 -16.234375 10.320312 -16.8125 12.8125 -17.21875 C 14.550781 -17.5 15.875 -17.804688 16.78125 -18.140625 C 17.6875 -18.472656 18.296875 -18.847656 18.609375 -19.265625 C 18.929688 -19.691406 19.09375 -20.234375 19.09375 -20.890625 C 19.09375 -21.816406 18.765625 -22.523438 18.109375 -23.015625 C 17.460938 -23.503906 16.382812 -23.75 14.875 -23.75 C 13.257812 -23.75 11.71875 -23.390625 10.25 -22.671875 C 8.789062 -21.953125 7.523438 -21.003906 6.453125 -19.828125 L 5.9375 -19.828125 L 2.875 -24.4375 C 4.351562 -26.070312 6.15625 -27.347656 8.28125 -28.265625 C 10.40625 -29.179688 12.722656 -29.640625 15.234375 -29.640625 C 19.085938 -29.640625 21.875 -28.820312 23.59375 -27.1875 C 25.320312 -25.550781 26.1875 -23.226562 26.1875 -20.21875 L 26.1875 -7.59375 C 26.1875 -6.289062 26.753906 -5.640625 27.890625 -5.640625 C 28.335938 -5.640625 28.769531 -5.71875 29.1875 -5.875 L 29.5625 -5.78125 L 30.078125 -0.6875 C 29.679688 -0.425781 29.117188 -0.207031 28.390625 -0.03125 C 27.671875 0.132812 26.882812 0.21875 26.03125 0.21875 C 24.289062 0.21875 22.929688 -0.113281 21.953125 -0.78125 C 20.972656 -1.457031 20.273438 -2.503906 19.859375 -3.921875 L 19.296875 -3.984375 C 17.878906 -0.960938 15.226562 0.546875 11.34375 0.546875 Z M 13.65625 -4.90625 C 15.34375 -4.90625 16.691406 -5.472656 17.703125 -6.609375 C 18.710938 -7.742188 19.21875 -9.320312 19.21875 -11.34375 L 19.21875 -14.296875 L 18.71875 -14.390625 C 18.28125 -14.046875 17.703125 -13.753906 16.984375 -13.515625 C 16.273438 -13.273438 15.253906 -13.039062 13.921875 -12.8125 C 12.335938 -12.550781 11.195312 -12.097656 10.5 -11.453125 C 9.8125 -10.816406 9.46875 -9.910156 9.46875 -8.734375 C 9.46875 -7.484375 9.835938 -6.53125 10.578125 -5.875 C 11.316406 -5.226562 12.34375 -4.90625 13.65625 -4.90625 Z M 13.65625 -4.90625 "/></g></g><g transform="translate(70.122612, 282.749978)"><g><path d="M 4.1875 0 L 4.1875 -29.078125 L 11.28125 -29.078125 L 11.28125 -24.765625 L 11.84375 -24.65625 C 12.539062 -26.269531 13.460938 -27.453125 14.609375 -28.203125 C 15.753906 -28.960938 17.144531 -29.34375 18.78125 -29.34375 C 20.425781 -29.34375 21.679688 -29.0625 22.546875 -28.5 L 21.3125 -22.203125 L 20.75 -22.09375 C 20.28125 -22.289062 19.820312 -22.429688 19.375 -22.515625 C 18.9375 -22.609375 18.398438 -22.65625 17.765625 -22.65625 C 15.734375 -22.65625 14.179688 -21.9375 13.109375 -20.5 C 12.035156 -19.070312 11.5 -16.773438 11.5 -13.609375 L 11.5 0 Z M 4.1875 0 "/></g></g><g transform="translate(92.930227, 282.749978)"><g><path d="M 7.828125 -32.5625 C 6.515625 -32.5625 5.441406 -32.960938 4.609375 -33.765625 C 3.785156 -34.566406 3.375 -35.597656 3.375 -36.859375 C 3.375 -38.109375 3.785156 -39.132812 4.609375 -39.9375 C 5.441406 -40.738281 6.515625 -41.140625 7.828125 -41.140625 C 8.710938 -41.140625 9.492188 -40.953125 10.171875 -40.578125 C 10.859375 -40.210938 11.390625 -39.707031 11.765625 -39.0625 C 12.148438 -38.414062 12.34375 -37.679688 12.34375 -36.859375 C 12.34375 -36.035156 12.148438 -35.296875 11.765625 -34.640625 C 11.390625 -33.992188 10.859375 -33.484375 10.171875 -33.109375 C 9.492188 -32.742188 8.710938 -32.5625 7.828125 -32.5625 Z M 4.1875 0 L 4.1875 -29.078125 L 11.5 -29.078125 L 11.5 0 Z M 4.1875 0 "/></g></g><g transform="translate(108.592335, 282.749978)"><g><path d="M 20.0625 -6.9375 L 21.96875 -1.53125 C 21.175781 -0.875 20.179688 -0.363281 18.984375 0 C 17.785156 0.363281 16.429688 0.546875 14.921875 0.546875 C 11.773438 0.546875 9.382812 -0.304688 7.75 -2.015625 C 6.113281 -3.734375 5.296875 -6.226562 5.296875 -9.5 L 5.296875 -23.3125 L 0.875 -23.3125 L 0.875 -29.109375 L 5.296875 -29.109375 L 5.296875 -34.78125 L 12.609375 -35.96875 L 12.609375 -29.109375 L 20.859375 -29.109375 L 20.859375 -23.3125 L 12.609375 -23.3125 L 12.609375 -10.015625 C 12.609375 -8.578125 12.90625 -7.523438 13.5 -6.859375 C 14.09375 -6.203125 14.960938 -5.875 16.109375 -5.875 C 17.410156 -5.875 18.546875 -6.226562 19.515625 -6.9375 Z M 20.0625 -6.9375 "/></g></g><g transform="translate(131.189013, 282.749978)"><g><path d="M 4.1875 0 L 4.1875 -40.765625 L 11.5 -40.765625 L 11.5 -25.28125 L 12.046875 -25.1875 C 13.015625 -26.601562 14.203125 -27.695312 15.609375 -28.46875 C 17.015625 -29.25 18.710938 -29.640625 20.703125 -29.640625 C 27.117188 -29.640625 30.328125 -26 30.328125 -18.71875 L 30.328125 0 L 23.015625 0 L 23.015625 -17.796875 C 23.015625 -19.785156 22.617188 -21.226562 21.828125 -22.125 C 21.035156 -23.019531 19.804688 -23.46875 18.140625 -23.46875 C 16.097656 -23.46875 14.476562 -22.785156 13.28125 -21.421875 C 12.09375 -20.054688 11.5 -17.9375 11.5 -15.0625 L 11.5 0 Z M 4.1875 0 "/></g></g><g transform="translate(165.255417, 282.749978)"><g><path d="M 4.1875 0 L 4.1875 -29.078125 L 11.203125 -29.078125 L 11.203125 -25.1875 L 11.765625 -25.078125 C 12.710938 -26.640625 13.820312 -27.789062 15.09375 -28.53125 C 16.363281 -29.269531 17.992188 -29.640625 19.984375 -29.640625 C 22.179688 -29.640625 23.945312 -29.203125 25.28125 -28.328125 C 26.625 -27.460938 27.601562 -26.191406 28.21875 -24.515625 L 28.765625 -24.515625 C 29.660156 -26.253906 30.816406 -27.539062 32.234375 -28.375 C 33.648438 -29.21875 35.410156 -29.640625 37.515625 -29.640625 C 43.546875 -29.640625 46.5625 -26.28125 46.5625 -19.5625 L 46.5625 0 L 39.265625 0 L 39.265625 -18.640625 C 39.265625 -20.347656 38.925781 -21.578125 38.25 -22.328125 C 37.582031 -23.085938 36.515625 -23.46875 35.046875 -23.46875 C 31.035156 -23.46875 29.03125 -20.785156 29.03125 -15.421875 L 29.03125 0 L 21.734375 0 L 21.734375 -18.640625 C 21.734375 -20.347656 21.394531 -21.578125 20.71875 -22.328125 C 20.039062 -23.085938 18.960938 -23.46875 17.484375 -23.46875 C 15.597656 -23.46875 14.128906 -22.835938 13.078125 -21.578125 C 12.023438 -20.328125 11.5 -18.328125 11.5 -15.578125 L 11.5 0 Z M 4.1875 0 "/></g></g><g transform="translate(215.564007, 282.749978)"><g><path d="M 28.734375 -12.890625 L 10.046875 -12.890625 C 10.253906 -10.359375 10.972656 -8.515625 12.203125 -7.359375 C 13.429688 -6.210938 15.113281 -5.640625 17.25 -5.640625 C 18.914062 -5.640625 20.265625 -5.953125 21.296875 -6.578125 C 22.335938 -7.203125 23.175781 -8.144531 23.8125 -9.40625 L 24.359375 -9.40625 L 29.21875 -6.296875 C 28.269531 -4.265625 26.835938 -2.613281 24.921875 -1.34375 C 23.003906 -0.0820312 20.445312 0.546875 17.25 0.546875 C 14.238281 0.546875 11.640625 -0.0195312 9.453125 -1.15625 C 7.265625 -2.300781 5.578125 -4.003906 4.390625 -6.265625 C 3.203125 -8.523438 2.609375 -11.28125 2.609375 -14.53125 C 2.609375 -17.832031 3.234375 -20.613281 4.484375 -22.875 C 5.734375 -25.144531 7.421875 -26.835938 9.546875 -27.953125 C 11.671875 -29.078125 14.0625 -29.640625 16.71875 -29.640625 C 20.832031 -29.640625 23.984375 -28.546875 26.171875 -26.359375 C 28.359375 -24.179688 29.453125 -20.984375 29.453125 -16.765625 C 29.453125 -15.234375 29.398438 -14.046875 29.296875 -13.203125 Z M 22.46875 -17.609375 C 22.394531 -19.828125 21.878906 -21.441406 20.921875 -22.453125 C 19.960938 -23.460938 18.5625 -23.96875 16.71875 -23.96875 C 13.03125 -23.96875 10.859375 -21.847656 10.203125 -17.609375 Z M 22.46875 -17.609375 "/></g></g><g transform="translate(247.178263, 282.749978)"><g><path d="M 20.0625 -6.9375 L 21.96875 -1.53125 C 21.175781 -0.875 20.179688 -0.363281 18.984375 0 C 17.785156 0.363281 16.429688 0.546875 14.921875 0.546875 C 11.773438 0.546875 9.382812 -0.304688 7.75 -2.015625 C 6.113281 -3.734375 5.296875 -6.226562 5.296875 -9.5 L 5.296875 -23.3125 L 0.875 -23.3125 L 0.875 -29.109375 L 5.296875 -29.109375 L 5.296875 -34.78125 L 12.609375 -35.96875 L 12.609375 -29.109375 L 20.859375 -29.109375 L 20.859375 -23.3125 L 12.609375 -23.3125 L 12.609375 -10.015625 C 12.609375 -8.578125 12.90625 -7.523438 13.5 -6.859375 C 14.09375 -6.203125 14.960938 -5.875 16.109375 -5.875 C 17.410156 -5.875 18.546875 -6.226562 19.515625 -6.9375 Z M 20.0625 -6.9375 "/></g></g><g transform="translate(269.77494, 282.749978)"><g><path d="M 7.828125 -32.5625 C 6.515625 -32.5625 5.441406 -32.960938 4.609375 -33.765625 C 3.785156 -34.566406 3.375 -35.597656 3.375 -36.859375 C 3.375 -38.109375 3.785156 -39.132812 4.609375 -39.9375 C 5.441406 -40.738281 6.515625 -41.140625 7.828125 -41.140625 C 8.710938 -41.140625 9.492188 -40.953125 10.171875 -40.578125 C 10.859375 -40.210938 11.390625 -39.707031 11.765625 -39.0625 C 12.148438 -38.414062 12.34375 -37.679688 12.34375 -36.859375 C 12.34375 -36.035156 12.148438 -35.296875 11.765625 -34.640625 C 11.390625 -33.992188 10.859375 -33.484375 10.171875 -33.109375 C 9.492188 -32.742188 8.710938 -32.5625 7.828125 -32.5625 Z M 4.1875 0 L 4.1875 -29.078125 L 11.5 -29.078125 L 11.5 0 Z M 4.1875 0 "/></g></g><g transform="translate(285.437048, 282.749978)"><g><path d="M 16.953125 0.546875 C 14.140625 0.546875 11.648438 -0.0351562 9.484375 -1.203125 C 7.328125 -2.367188 5.640625 -4.082031 4.421875 -6.34375 C 3.210938 -8.613281 2.609375 -11.34375 2.609375 -14.53125 C 2.609375 -17.726562 3.210938 -20.457031 4.421875 -22.71875 C 5.640625 -24.988281 7.320312 -26.707031 9.46875 -27.875 C 11.613281 -29.050781 14.066406 -29.640625 16.828125 -29.640625 C 22.960938 -29.640625 26.890625 -27.414062 28.609375 -22.96875 L 23.59375 -19.375 L 23.046875 -19.375 C 22.453125 -20.75 21.675781 -21.769531 20.71875 -22.4375 C 19.757812 -23.101562 18.460938 -23.4375 16.828125 -23.4375 C 14.710938 -23.4375 13.066406 -22.707031 11.890625 -21.25 C 10.710938 -19.789062 10.125 -17.550781 10.125 -14.53125 C 10.125 -11.539062 10.722656 -9.3125 11.921875 -7.84375 C 13.117188 -6.375 14.796875 -5.640625 16.953125 -5.640625 C 18.535156 -5.640625 19.875 -6.066406 20.96875 -6.921875 C 22.070312 -7.773438 22.859375 -9 23.328125 -10.59375 L 23.890625 -10.65625 L 29.078125 -7.8125 C 28.335938 -5.34375 26.96875 -3.332031 24.96875 -1.78125 C 22.976562 -0.226562 20.304688 0.546875 16.953125 0.546875 Z M 16.953125 0.546875 "/></g></g><g transform="translate(315.416538, 282.749978)"><g/></g><g transform="translate(328.151889, 282.749978)"><g><path d="M 12.078125 0.546875 C 9.453125 0.546875 7.453125 -0.15625 6.078125 -1.5625 C 4.703125 -2.976562 4.015625 -5.128906 4.015625 -8.015625 L 4.015625 -40.765625 L 11.3125 -40.765625 L 11.3125 -8.3125 C 11.3125 -6.53125 12.050781 -5.640625 13.53125 -5.640625 C 13.945312 -5.640625 14.394531 -5.710938 14.875 -5.859375 L 15.234375 -5.75 L 15.90625 -0.125 C 15.5 0.0820312 14.960938 0.242188 14.296875 0.359375 C 13.628906 0.484375 12.890625 0.546875 12.078125 0.546875 Z M 12.078125 0.546875 "/></g></g><g transform="translate(344.868684, 282.749978)"><g><path d="M 16.90625 0.546875 C 14.050781 0.546875 11.546875 -0.0351562 9.390625 -1.203125 C 7.242188 -2.367188 5.578125 -4.082031 4.390625 -6.34375 C 3.203125 -8.601562 2.609375 -11.332031 2.609375 -14.53125 C 2.609375 -17.726562 3.203125 -20.457031 4.390625 -22.71875 C 5.578125 -24.988281 7.242188 -26.707031 9.390625 -27.875 C 11.546875 -29.050781 14.050781 -29.640625 16.90625 -29.640625 C 19.75 -29.640625 22.25 -29.050781 24.40625 -27.875 C 26.5625 -26.707031 28.234375 -24.988281 29.421875 -22.71875 C 30.617188 -20.457031 31.21875 -17.726562 31.21875 -14.53125 C 31.21875 -11.332031 30.617188 -8.601562 29.421875 -6.34375 C 28.234375 -4.082031 26.5625 -2.367188 24.40625 -1.203125 C 22.25 -0.0351562 19.75 0.546875 16.90625 0.546875 Z M 16.90625 -5.640625 C 21.414062 -5.640625 23.671875 -8.601562 23.671875 -14.53125 C 23.671875 -17.601562 23.09375 -19.851562 21.9375 -21.28125 C 20.78125 -22.71875 19.101562 -23.4375 16.90625 -23.4375 C 12.382812 -23.4375 10.125 -20.46875 10.125 -14.53125 C 10.125 -8.601562 12.382812 -5.640625 16.90625 -5.640625 Z M 16.90625 -5.640625 "/></g></g><g transform="translate(378.671416, 282.749978)"><g><path d="M 15.078125 12.34375 C 10.285156 12.34375 6.742188 11.640625 4.453125 10.234375 C 2.171875 8.828125 1.03125 6.863281 1.03125 4.34375 C 1.03125 2.820312 1.515625 1.570312 2.484375 0.59375 C 3.460938 -0.382812 4.867188 -1.039062 6.703125 -1.375 L 6.703125 -1.921875 C 5.710938 -2.523438 5 -3.191406 4.5625 -3.921875 C 4.132812 -4.648438 3.921875 -5.492188 3.921875 -6.453125 C 3.921875 -8.796875 5.441406 -10.375 8.484375 -11.1875 L 8.484375 -11.734375 C 6.921875 -12.628906 5.742188 -13.738281 4.953125 -15.0625 C 4.160156 -16.394531 3.765625 -18 3.765625 -19.875 C 3.765625 -21.8125 4.207031 -23.515625 5.09375 -24.984375 C 5.988281 -26.453125 7.289062 -27.59375 9 -28.40625 C 10.71875 -29.226562 12.769531 -29.640625 15.15625 -29.640625 C 17.582031 -29.640625 19.519531 -29.21875 20.96875 -28.375 C 21.863281 -29.675781 22.378906 -31.175781 22.515625 -32.875 L 23.078125 -33.21875 L 28.3125 -31.9375 C 28.15625 -30.539062 27.75 -29.375 27.09375 -28.4375 C 26.445312 -27.5 25.441406 -26.660156 24.078125 -25.921875 L 24.078125 -25.34375 C 25.710938 -23.894531 26.53125 -21.878906 26.53125 -19.296875 C 26.53125 -17.503906 26.082031 -15.894531 25.1875 -14.46875 C 24.289062 -13.050781 22.984375 -11.925781 21.265625 -11.09375 C 19.546875 -10.269531 17.507812 -9.859375 15.15625 -9.859375 L 14.046875 -9.890625 C 13.347656 -9.921875 12.859375 -9.9375 12.578125 -9.9375 C 11.910156 -9.9375 11.382812 -9.753906 11 -9.390625 C 10.625 -9.035156 10.4375 -8.578125 10.4375 -8.015625 C 10.4375 -7.398438 10.679688 -6.921875 11.171875 -6.578125 C 11.671875 -6.234375 12.394531 -6.046875 13.34375 -6.015625 L 19.859375 -5.78125 C 26.285156 -5.582031 29.5 -2.8125 29.5 2.53125 C 29.5 4.414062 29.019531 6.085938 28.0625 7.546875 C 27.101562 9.015625 25.550781 10.179688 23.40625 11.046875 C 21.269531 11.910156 18.492188 12.34375 15.078125 12.34375 Z M 15.15625 -14.984375 C 16.5625 -14.984375 17.660156 -15.394531 18.453125 -16.21875 C 19.242188 -17.039062 19.640625 -18.21875 19.640625 -19.75 C 19.640625 -21.28125 19.242188 -22.453125 18.453125 -23.265625 C 17.660156 -24.085938 16.5625 -24.5 15.15625 -24.5 C 13.738281 -24.5 12.640625 -24.085938 11.859375 -23.265625 C 11.085938 -22.453125 10.703125 -21.28125 10.703125 -19.75 C 10.703125 -18.195312 11.085938 -17.015625 11.859375 -16.203125 C 12.640625 -15.390625 13.738281 -14.984375 15.15625 -14.984375 Z M 15.078125 7.046875 C 17.578125 7.046875 19.394531 6.691406 20.53125 5.984375 C 21.664062 5.285156 22.234375 4.375 22.234375 3.25 C 22.234375 2.332031 21.941406 1.65625 21.359375 1.21875 C 20.773438 0.789062 19.851562 0.5625 18.59375 0.53125 L 12.84375 0.265625 C 12.644531 0.265625 12.460938 0.253906 12.296875 0.234375 C 12.128906 0.222656 11.96875 0.21875 11.8125 0.21875 C 10.582031 0.21875 9.644531 0.476562 9 1 C 8.363281 1.53125 8.046875 2.257812 8.046875 3.1875 C 8.046875 4.414062 8.632812 5.363281 9.8125 6.03125 C 10.988281 6.707031 12.742188 7.046875 15.078125 7.046875 Z M 15.078125 7.046875 "/></g></g><g transform="translate(408.914577, 282.749978)"><g><path d="M 7.828125 -32.5625 C 6.515625 -32.5625 5.441406 -32.960938 4.609375 -33.765625 C 3.785156 -34.566406 3.375 -35.597656 3.375 -36.859375 C 3.375 -38.109375 3.785156 -39.132812 4.609375 -39.9375 C 5.441406 -40.738281 6.515625 -41.140625 7.828125 -41.140625 C 8.710938 -41.140625 9.492188 -40.953125 10.171875 -40.578125 C 10.859375 -40.210938 11.390625 -39.707031 11.765625 -39.0625 C 12.148438 -38.414062 12.34375 -37.679688 12.34375 -36.859375 C 12.34375 -36.035156 12.148438 -35.296875 11.765625 -34.640625 C 11.390625 -33.992188 10.859375 -33.484375 10.171875 -33.109375 C 9.492188 -32.742188 8.710938 -32.5625 7.828125 -32.5625 Z M 4.1875 0 L 4.1875 -29.078125 L 11.5 -29.078125 L 11.5 0 Z M 4.1875 0 "/></g></g><g transform="translate(424.576685, 282.749978)"><g><path d="M 16.953125 0.546875 C 14.140625 0.546875 11.648438 -0.0351562 9.484375 -1.203125 C 7.328125 -2.367188 5.640625 -4.082031 4.421875 -6.34375 C 3.210938 -8.613281 2.609375 -11.34375 2.609375 -14.53125 C 2.609375 -17.726562 3.210938 -20.457031 4.421875 -22.71875 C 5.640625 -24.988281 7.320312 -26.707031 9.46875 -27.875 C 11.613281 -29.050781 14.066406 -29.640625 16.828125 -29.640625 C 22.960938 -29.640625 26.890625 -27.414062 28.609375 -22.96875 L 23.59375 -19.375 L 23.046875 -19.375 C 22.453125 -20.75 21.675781 -21.769531 20.71875 -22.4375 C 19.757812 -23.101562 18.460938 -23.4375 16.828125 -23.4375 C 14.710938 -23.4375 13.066406 -22.707031 11.890625 -21.25 C 10.710938 -19.789062 10.125 -17.550781 10.125 -14.53125 C 10.125 -11.539062 10.722656 -9.3125 11.921875 -7.84375 C 13.117188 -6.375 14.796875 -5.640625 16.953125 -5.640625 C 18.535156 -5.640625 19.875 -6.066406 20.96875 -6.921875 C 22.070312 -7.773438 22.859375 -9 23.328125 -10.59375 L 23.890625 -10.65625 L 29.078125 -7.8125 C 28.335938 -5.34375 26.96875 -3.332031 24.96875 -1.78125 C 22.976562 -0.226562 20.304688 0.546875 16.953125 0.546875 Z M 16.953125 0.546875 "/></g></g><g transform="translate(454.556175, 282.749978)"><g/></g><g transform="translate(467.291525, 282.749978)"><g><path d="M 13.3125 0.546875 C 10.039062 0.546875 7.628906 -0.34375 6.078125 -2.125 C 4.523438 -3.90625 3.75 -6.46875 3.75 -9.8125 L 3.75 -29.078125 L 11.046875 -29.078125 L 11.046875 -10.734375 C 11.046875 -8.953125 11.425781 -7.648438 12.1875 -6.828125 C 12.957031 -6.015625 14.140625 -5.609375 15.734375 -5.609375 C 17.765625 -5.609375 19.34375 -6.269531 20.46875 -7.59375 C 21.59375 -8.925781 22.15625 -11.019531 22.15625 -13.875 L 22.15625 -29.078125 L 29.453125 -29.078125 L 29.453125 0 L 22.4375 0 L 22.4375 -4.265625 L 21.890625 -4.40625 C 20.953125 -2.738281 19.8125 -1.492188 18.46875 -0.671875 C 17.125 0.140625 15.40625 0.546875 13.3125 0.546875 Z M 13.3125 0.546875 "/></g></g><g transform="translate(500.936054, 282.749978)"><g><path d="M 4.1875 0 L 4.1875 -29.078125 L 11.203125 -29.078125 L 11.203125 -24.8125 L 11.765625 -24.6875 C 13.566406 -27.988281 16.5 -29.640625 20.5625 -29.640625 C 23.925781 -29.640625 26.394531 -28.722656 27.96875 -26.890625 C 29.539062 -25.066406 30.328125 -22.40625 30.328125 -18.90625 L 30.328125 0 L 23.015625 0 L 23.015625 -18.015625 C 23.015625 -19.941406 22.628906 -21.332031 21.859375 -22.1875 C 21.085938 -23.039062 19.847656 -23.46875 18.140625 -23.46875 C 16.046875 -23.46875 14.414062 -22.789062 13.25 -21.4375 C 12.082031 -20.082031 11.5 -17.957031 11.5 -15.0625 L 11.5 0 Z M 4.1875 0 "/></g></g><g transform="translate(535.002458, 282.749978)"><g><path d="M 7.828125 -32.5625 C 6.515625 -32.5625 5.441406 -32.960938 4.609375 -33.765625 C 3.785156 -34.566406 3.375 -35.597656 3.375 -36.859375 C 3.375 -38.109375 3.785156 -39.132812 4.609375 -39.9375 C 5.441406 -40.738281 6.515625 -41.140625 7.828125 -41.140625 C 8.710938 -41.140625 9.492188 -40.953125 10.171875 -40.578125 C 10.859375 -40.210938 11.390625 -39.707031 11.765625 -39.0625 C 12.148438 -38.414062 12.34375 -37.679688 12.34375 -36.859375 C 12.34375 -36.035156 12.148438 -35.296875 11.765625 -34.640625 C 11.390625 -33.992188 10.859375 -33.484375 10.171875 -33.109375 C 9.492188 -32.742188 8.710938 -32.5625 7.828125 -32.5625 Z M 4.1875 0 L 4.1875 -29.078125 L 11.5 -29.078125 L 11.5 0 Z M 4.1875 0 "/></g></g><g transform="translate(550.664566, 282.749978)"><g><path d="M 20.0625 -6.9375 L 21.96875 -1.53125 C 21.175781 -0.875 20.179688 -0.363281 18.984375 0 C 17.785156 0.363281 16.429688 0.546875 14.921875 0.546875 C 11.773438 0.546875 9.382812 -0.304688 7.75 -2.015625 C 6.113281 -3.734375 5.296875 -6.226562 5.296875 -9.5 L 5.296875 -23.3125 L 0.875 -23.3125 L 0.875 -29.109375 L 5.296875 -29.109375 L 5.296875 -34.78125 L 12.609375 -35.96875 L 12.609375 -29.109375 L 20.859375 -29.109375 L 20.859375 -23.3125 L 12.609375 -23.3125 L 12.609375 -10.015625 C 12.609375 -8.578125 12.90625 -7.523438 13.5 -6.859375 C 14.09375 -6.203125 14.960938 -5.875 16.109375 -5.875 C 17.410156 -5.875 18.546875 -6.226562 19.515625 -6.9375 Z M 20.0625 -6.9375 "/></g></g></g><g fill="#ffde59" fill-opacity="1"><g transform="translate(65.895073, 357.749972)"><g><path d="M 11.34375 0.546875 C 9.476562 0.546875 7.859375 0.207031 6.484375 -0.46875 C 5.117188 -1.15625 4.066406 -2.160156 3.328125 -3.484375 C 2.585938 -4.816406 2.21875 -6.414062 2.21875 -8.28125 C 2.21875 -10 2.585938 -11.441406 3.328125 -12.609375 C 4.066406 -13.785156 5.207031 -14.742188 6.75 -15.484375 C 8.300781 -16.234375 10.320312 -16.8125 12.8125 -17.21875 C 14.550781 -17.5 15.875 -17.804688 16.78125 -18.140625 C 17.6875 -18.472656 18.296875 -18.847656 18.609375 -19.265625 C 18.929688 -19.691406 19.09375 -20.234375 19.09375 -20.890625 C 19.09375 -21.816406 18.765625 -22.523438 18.109375 -23.015625 C 17.460938 -23.503906 16.382812 -23.75 14.875 -23.75 C 13.257812 -23.75 11.71875 -23.390625 10.25 -22.671875 C 8.789062 -21.953125 7.523438 -21.003906 6.453125 -19.828125 L 5.9375 -19.828125 L 2.875 -24.4375 C 4.351562 -26.070312 6.15625 -27.347656 8.28125 -28.265625 C 10.40625 -29.179688 12.722656 -29.640625 15.234375 -29.640625 C 19.085938 -29.640625 21.875 -28.820312 23.59375 -27.1875 C 25.320312 -25.550781 26.1875 -23.226562 26.1875 -20.21875 L 26.1875 -7.59375 C 26.1875 -6.289062 26.753906 -5.640625 27.890625 -5.640625 C 28.335938 -5.640625 28.769531 -5.71875 29.1875 -5.875 L 29.5625 -5.78125 L 30.078125 -0.6875 C 29.679688 -0.425781 29.117188 -0.207031 28.390625 -0.03125 C 27.671875 0.132812 26.882812 0.21875 26.03125 0.21875 C 24.289062 0.21875 22.929688 -0.113281 21.953125 -0.78125 C 20.972656 -1.457031 20.273438 -2.503906 19.859375 -3.921875 L 19.296875 -3.984375 C 17.878906 -0.960938 15.226562 0.546875 11.34375 0.546875 Z M 13.65625 -4.90625 C 15.34375 -4.90625 16.691406 -5.472656 17.703125 -6.609375 C 18.710938 -7.742188 19.21875 -9.320312 19.21875 -11.34375 L 19.21875 -14.296875 L 18.71875 -14.390625 C 18.28125 -14.046875 17.703125 -13.753906 16.984375 -13.515625 C 16.273438 -13.273438 15.253906 -13.039062 13.921875 -12.8125 C 12.335938 -12.550781 11.195312 -12.097656 10.5 -11.453125 C 9.8125 -10.816406 9.46875 -9.910156 9.46875 -8.734375 C 9.46875 -7.484375 9.835938 -6.53125 10.578125 -5.875 C 11.316406 -5.226562 12.34375 -4.90625 13.65625 -4.90625 Z M 13.65625 -4.90625 "/></g></g><g transform="translate(96.56011, 357.749972)"><g><path d="M 4.1875 0 L 4.1875 -29.078125 L 11.203125 -29.078125 L 11.203125 -24.8125 L 11.765625 -24.6875 C 13.566406 -27.988281 16.5 -29.640625 20.5625 -29.640625 C 23.925781 -29.640625 26.394531 -28.722656 27.96875 -26.890625 C 29.539062 -25.066406 30.328125 -22.40625 30.328125 -18.90625 L 30.328125 0 L 23.015625 0 L 23.015625 -18.015625 C 23.015625 -19.941406 22.628906 -21.332031 21.859375 -22.1875 C 21.085938 -23.039062 19.847656 -23.46875 18.140625 -23.46875 C 16.046875 -23.46875 14.414062 -22.789062 13.25 -21.4375 C 12.082031 -20.082031 11.5 -17.957031 11.5 -15.0625 L 11.5 0 Z M 4.1875 0 "/></g></g><g transform="translate(130.626514, 357.749972)"><g><path d="M 14.375 0.546875 C 12.070312 0.546875 10.035156 -0.0078125 8.265625 -1.125 C 6.492188 -2.238281 5.109375 -3.925781 4.109375 -6.1875 C 3.109375 -8.445312 2.609375 -11.226562 2.609375 -14.53125 C 2.609375 -17.851562 3.125 -20.640625 4.15625 -22.890625 C 5.1875 -25.148438 6.609375 -26.835938 8.421875 -27.953125 C 10.242188 -29.078125 12.347656 -29.640625 14.734375 -29.640625 C 16.546875 -29.640625 18.113281 -29.328125 19.4375 -28.703125 C 20.769531 -28.078125 21.894531 -27.101562 22.8125 -25.78125 L 23.359375 -25.921875 L 23.359375 -40.765625 L 30.671875 -40.765625 L 30.671875 0 L 23.359375 0 L 23.359375 -3.765625 L 22.8125 -3.875 C 22 -2.5 20.890625 -1.414062 19.484375 -0.625 C 18.078125 0.15625 16.375 0.546875 14.375 0.546875 Z M 16.75 -5.640625 C 18.800781 -5.640625 20.425781 -6.375 21.625 -7.84375 C 22.820312 -9.3125 23.421875 -11.539062 23.421875 -14.53125 C 23.421875 -17.519531 22.820312 -19.75 21.625 -21.21875 C 20.425781 -22.695312 18.800781 -23.4375 16.75 -23.4375 C 14.601562 -23.4375 12.960938 -22.71875 11.828125 -21.28125 C 10.691406 -19.851562 10.125 -17.601562 10.125 -14.53125 C 10.125 -11.46875 10.691406 -9.21875 11.828125 -7.78125 C 12.960938 -6.351562 14.601562 -5.640625 16.75 -5.640625 Z M 16.75 -5.640625 "/></g></g><g transform="translate(165.483933, 357.749972)"><g/></g><g transform="translate(178.219283, 357.749972)"><g><path d="M 11.34375 0.546875 C 9.476562 0.546875 7.859375 0.207031 6.484375 -0.46875 C 5.117188 -1.15625 4.066406 -2.160156 3.328125 -3.484375 C 2.585938 -4.816406 2.21875 -6.414062 2.21875 -8.28125 C 2.21875 -10 2.585938 -11.441406 3.328125 -12.609375 C 4.066406 -13.785156 5.207031 -14.742188 6.75 -15.484375 C 8.300781 -16.234375 10.320312 -16.8125 12.8125 -17.21875 C 14.550781 -17.5 15.875 -17.804688 16.78125 -18.140625 C 17.6875 -18.472656 18.296875 -18.847656 18.609375 -19.265625 C 18.929688 -19.691406 19.09375 -20.234375 19.09375 -20.890625 C 19.09375 -21.816406 18.765625 -22.523438 18.109375 -23.015625 C 17.460938 -23.503906 16.382812 -23.75 14.875 -23.75 C 13.257812 -23.75 11.71875 -23.390625 10.25 -22.671875 C 8.789062 -21.953125 7.523438 -21.003906 6.453125 -19.828125 L 5.9375 -19.828125 L 2.875 -24.4375 C 4.351562 -26.070312 6.15625 -27.347656 8.28125 -28.265625 C 10.40625 -29.179688 12.722656 -29.640625 15.234375 -29.640625 C 19.085938 -29.640625 21.875 -28.820312 23.59375 -27.1875 C 25.320312 -25.550781 26.1875 -23.226562 26.1875 -20.21875 L 26.1875 -7.59375 C 26.1875 -6.289062 26.753906 -5.640625 27.890625 -5.640625 C 28.335938 -5.640625 28.769531 -5.71875 29.1875 -5.875 L 29.5625 -5.78125 L 30.078125 -0.6875 C 29.679688 -0.425781 29.117188 -0.207031 28.390625 -0.03125 C 27.671875 0.132812 26.882812 0.21875 26.03125 0.21875 C 24.289062 0.21875 22.929688 -0.113281 21.953125 -0.78125 C 20.972656 -1.457031 20.273438 -2.503906 19.859375 -3.921875 L 19.296875 -3.984375 C 17.878906 -0.960938 15.226562 0.546875 11.34375 0.546875 Z M 13.65625 -4.90625 C 15.34375 -4.90625 16.691406 -5.472656 17.703125 -6.609375 C 18.710938 -7.742188 19.21875 -9.320312 19.21875 -11.34375 L 19.21875 -14.296875 L 18.71875 -14.390625 C 18.28125 -14.046875 17.703125 -13.753906 16.984375 -13.515625 C 16.273438 -13.273438 15.253906 -13.039062 13.921875 -12.8125 C 12.335938 -12.550781 11.195312 -12.097656 10.5 -11.453125 C 9.8125 -10.816406 9.46875 -9.910156 9.46875 -8.734375 C 9.46875 -7.484375 9.835938 -6.53125 10.578125 -5.875 C 11.316406 -5.226562 12.34375 -4.90625 13.65625 -4.90625 Z M 13.65625 -4.90625 "/></g></g><g transform="translate(208.88432, 357.749972)"><g/></g><g transform="translate(221.61967, 357.749972)"><g><path d="M 16.953125 0.546875 C 14.140625 0.546875 11.648438 -0.0351562 9.484375 -1.203125 C 7.328125 -2.367188 5.640625 -4.082031 4.421875 -6.34375 C 3.210938 -8.613281 2.609375 -11.34375 2.609375 -14.53125 C 2.609375 -17.726562 3.210938 -20.457031 4.421875 -22.71875 C 5.640625 -24.988281 7.320312 -26.707031 9.46875 -27.875 C 11.613281 -29.050781 14.066406 -29.640625 16.828125 -29.640625 C 22.960938 -29.640625 26.890625 -27.414062 28.609375 -22.96875 L 23.59375 -19.375 L 23.046875 -19.375 C 22.453125 -20.75 21.675781 -21.769531 20.71875 -22.4375 C 19.757812 -23.101562 18.460938 -23.4375 16.828125 -23.4375 C 14.710938 -23.4375 13.066406 -22.707031 11.890625 -21.25 C 10.710938 -19.789062 10.125 -17.550781 10.125 -14.53125 C 10.125 -11.539062 10.722656 -9.3125 11.921875 -7.84375 C 13.117188 -6.375 14.796875 -5.640625 16.953125 -5.640625 C 18.535156 -5.640625 19.875 -6.066406 20.96875 -6.921875 C 22.070312 -7.773438 22.859375 -9 23.328125 -10.59375 L 23.890625 -10.65625 L 29.078125 -7.8125 C 28.335938 -5.34375 26.96875 -3.332031 24.96875 -1.78125 C 22.976562 -0.226562 20.304688 0.546875 16.953125 0.546875 Z M 16.953125 0.546875 "/></g></g><g transform="translate(251.59916, 357.749972)"><g><path d="M 16.90625 0.546875 C 14.050781 0.546875 11.546875 -0.0351562 9.390625 -1.203125 C 7.242188 -2.367188 5.578125 -4.082031 4.390625 -6.34375 C 3.203125 -8.601562 2.609375 -11.332031 2.609375 -14.53125 C 2.609375 -17.726562 3.203125 -20.457031 4.390625 -22.71875 C 5.578125 -24.988281 7.242188 -26.707031 9.390625 -27.875 C 11.546875 -29.050781 14.050781 -29.640625 16.90625 -29.640625 C 19.75 -29.640625 22.25 -29.050781 24.40625 -27.875 C 26.5625 -26.707031 28.234375 -24.988281 29.421875 -22.71875 C 30.617188 -20.457031 31.21875 -17.726562 31.21875 -14.53125 C 31.21875 -11.332031 30.617188 -8.601562 29.421875 -6.34375 C 28.234375 -4.082031 26.5625 -2.367188 24.40625 -1.203125 C 22.25 -0.0351562 19.75 0.546875 16.90625 0.546875 Z M 16.90625 -5.640625 C 21.414062 -5.640625 23.671875 -8.601562 23.671875 -14.53125 C 23.671875 -17.601562 23.09375 -19.851562 21.9375 -21.28125 C 20.78125 -22.71875 19.101562 -23.4375 16.90625 -23.4375 C 12.382812 -23.4375 10.125 -20.46875 10.125 -14.53125 C 10.125 -8.601562 12.382812 -5.640625 16.90625 -5.640625 Z M 16.90625 -5.640625 "/></g></g><g transform="translate(285.401891, 357.749972)"><g><path d="M 4.1875 0 L 4.1875 -29.078125 L 11.203125 -29.078125 L 11.203125 -24.8125 L 11.765625 -24.6875 C 13.566406 -27.988281 16.5 -29.640625 20.5625 -29.640625 C 23.925781 -29.640625 26.394531 -28.722656 27.96875 -26.890625 C 29.539062 -25.066406 30.328125 -22.40625 30.328125 -18.90625 L 30.328125 0 L 23.015625 0 L 23.015625 -18.015625 C 23.015625 -19.941406 22.628906 -21.332031 21.859375 -22.1875 C 21.085938 -23.039062 19.847656 -23.46875 18.140625 -23.46875 C 16.046875 -23.46875 14.414062 -22.789062 13.25 -21.4375 C 12.082031 -20.082031 11.5 -17.957031 11.5 -15.0625 L 11.5 0 Z M 4.1875 0 "/></g></g><g transform="translate(319.468295, 357.749972)"><g><path d="M 20.0625 -6.9375 L 21.96875 -1.53125 C 21.175781 -0.875 20.179688 -0.363281 18.984375 0 C 17.785156 0.363281 16.429688 0.546875 14.921875 0.546875 C 11.773438 0.546875 9.382812 -0.304688 7.75 -2.015625 C 6.113281 -3.734375 5.296875 -6.226562 5.296875 -9.5 L 5.296875 -23.3125 L 0.875 -23.3125 L 0.875 -29.109375 L 5.296875 -29.109375 L 5.296875 -34.78125 L 12.609375 -35.96875 L 12.609375 -29.109375 L 20.859375 -29.109375 L 20.859375 -23.3125 L 12.609375 -23.3125 L 12.609375 -10.015625 C 12.609375 -8.578125 12.90625 -7.523438 13.5 -6.859375 C 14.09375 -6.203125 14.960938 -5.875 16.109375 -5.875 C 17.410156 -5.875 18.546875 -6.226562 19.515625 -6.9375 Z M 20.0625 -6.9375 "/></g></g><g transform="translate(342.064973, 357.749972)"><g><path d="M 4.1875 0 L 4.1875 -29.078125 L 11.28125 -29.078125 L 11.28125 -24.765625 L 11.84375 -24.65625 C 12.539062 -26.269531 13.460938 -27.453125 14.609375 -28.203125 C 15.753906 -28.960938 17.144531 -29.34375 18.78125 -29.34375 C 20.425781 -29.34375 21.679688 -29.0625 22.546875 -28.5 L 21.3125 -22.203125 L 20.75 -22.09375 C 20.28125 -22.289062 19.820312 -22.429688 19.375 -22.515625 C 18.9375 -22.609375 18.398438 -22.65625 17.765625 -22.65625 C 15.734375 -22.65625 14.179688 -21.9375 13.109375 -20.5 C 12.035156 -19.070312 11.5 -16.773438 11.5 -13.609375 L 11.5 0 Z M 4.1875 0 "/></g></g><g transform="translate(364.872588, 357.749972)"><g><path d="M 16.90625 0.546875 C 14.050781 0.546875 11.546875 -0.0351562 9.390625 -1.203125 C 7.242188 -2.367188 5.578125 -4.082031 4.390625 -6.34375 C 3.203125 -8.601562 2.609375 -11.332031 2.609375 -14.53125 C 2.609375 -17.726562 3.203125 -20.457031 4.390625 -22.71875 C 5.578125 -24.988281 7.242188 -26.707031 9.390625 -27.875 C 11.546875 -29.050781 14.050781 -29.640625 16.90625 -29.640625 C 19.75 -29.640625 22.25 -29.050781 24.40625 -27.875 C 26.5625 -26.707031 28.234375 -24.988281 29.421875 -22.71875 C 30.617188 -20.457031 31.21875 -17.726562 31.21875 -14.53125 C 31.21875 -11.332031 30.617188 -8.601562 29.421875 -6.34375 C 28.234375 -4.082031 26.5625 -2.367188 24.40625 -1.203125 C 22.25 -0.0351562 19.75 0.546875 16.90625 0.546875 Z M 16.90625 -5.640625 C 21.414062 -5.640625 23.671875 -8.601562 23.671875 -14.53125 C 23.671875 -17.601562 23.09375 -19.851562 21.9375 -21.28125 C 20.78125 -22.71875 19.101562 -23.4375 16.90625 -23.4375 C 12.382812 -23.4375 10.125 -20.46875 10.125 -14.53125 C 10.125 -8.601562 12.382812 -5.640625 16.90625 -5.640625 Z M 16.90625 -5.640625 "/></g></g><g transform="translate(398.67532, 357.749972)"><g><path d="M 12.078125 0.546875 C 9.453125 0.546875 7.453125 -0.15625 6.078125 -1.5625 C 4.703125 -2.976562 4.015625 -5.128906 4.015625 -8.015625 L 4.015625 -40.765625 L 11.3125 -40.765625 L 11.3125 -8.3125 C 11.3125 -6.53125 12.050781 -5.640625 13.53125 -5.640625 C 13.945312 -5.640625 14.394531 -5.710938 14.875 -5.859375 L 15.234375 -5.75 L 15.90625 -0.125 C 15.5 0.0820312 14.960938 0.242188 14.296875 0.359375 C 13.628906 0.484375 12.890625 0.546875 12.078125 0.546875 Z M 12.078125 0.546875 "/></g></g><g transform="translate(415.392116, 357.749972)"><g/></g><g transform="translate(428.127466, 357.749972)"><g><path d="M 13.3125 0.546875 C 10.039062 0.546875 7.628906 -0.34375 6.078125 -2.125 C 4.523438 -3.90625 3.75 -6.46875 3.75 -9.8125 L 3.75 -29.078125 L 11.046875 -29.078125 L 11.046875 -10.734375 C 11.046875 -8.953125 11.425781 -7.648438 12.1875 -6.828125 C 12.957031 -6.015625 14.140625 -5.609375 15.734375 -5.609375 C 17.765625 -5.609375 19.34375 -6.269531 20.46875 -7.59375 C 21.59375 -8.925781 22.15625 -11.019531 22.15625 -13.875 L 22.15625 -29.078125 L 29.453125 -29.078125 L 29.453125 0 L 22.4375 0 L 22.4375 -4.265625 L 21.890625 -4.40625 C 20.953125 -2.738281 19.8125 -1.492188 18.46875 -0.671875 C 17.125 0.140625 15.40625 0.546875 13.3125 0.546875 Z M 13.3125 0.546875 "/></g></g><g transform="translate(461.771995, 357.749972)"><g><path d="M 4.1875 0 L 4.1875 -29.078125 L 11.203125 -29.078125 L 11.203125 -24.8125 L 11.765625 -24.6875 C 13.566406 -27.988281 16.5 -29.640625 20.5625 -29.640625 C 23.925781 -29.640625 26.394531 -28.722656 27.96875 -26.890625 C 29.539062 -25.066406 30.328125 -22.40625 30.328125 -18.90625 L 30.328125 0 L 23.015625 0 L 23.015625 -18.015625 C 23.015625 -19.941406 22.628906 -21.332031 21.859375 -22.1875 C 21.085938 -23.039062 19.847656 -23.46875 18.140625 -23.46875 C 16.046875 -23.46875 14.414062 -22.789062 13.25 -21.4375 C 12.082031 -20.082031 11.5 -17.957031 11.5 -15.0625 L 11.5 0 Z M 4.1875 0 "/></g></g><g transform="translate(495.838399, 357.749972)"><g><path d="M 7.828125 -32.5625 C 6.515625 -32.5625 5.441406 -32.960938 4.609375 -33.765625 C 3.785156 -34.566406 3.375 -35.597656 3.375 -36.859375 C 3.375 -38.109375 3.785156 -39.132812 4.609375 -39.9375 C 5.441406 -40.738281 6.515625 -41.140625 7.828125 -41.140625 C 8.710938 -41.140625 9.492188 -40.953125 10.171875 -40.578125 C 10.859375 -40.210938 11.390625 -39.707031 11.765625 -39.0625 C 12.148438 -38.414062 12.34375 -37.679688 12.34375 -36.859375 C 12.34375 -36.035156 12.148438 -35.296875 11.765625 -34.640625 C 11.390625 -33.992188 10.859375 -33.484375 10.171875 -33.109375 C 9.492188 -32.742188 8.710938 -32.5625 7.828125 -32.5625 Z M 4.1875 0 L 4.1875 -29.078125 L 11.5 -29.078125 L 11.5 0 Z M 4.1875 0 "/></g></g><g transform="translate(511.500507, 357.749972)"><g><path d="M 20.0625 -6.9375 L 21.96875 -1.53125 C 21.175781 -0.875 20.179688 -0.363281 18.984375 0 C 17.785156 0.363281 16.429688 0.546875 14.921875 0.546875 C 11.773438 0.546875 9.382812 -0.304688 7.75 -2.015625 C 6.113281 -3.734375 5.296875 -6.226562 5.296875 -9.5 L 5.296875 -23.3125 L 0.875 -23.3125 L 0.875 -29.109375 L 5.296875 -29.109375 L 5.296875 -34.78125 L 12.609375 -35.96875 L 12.609375 -29.109375 L 20.859375 -29.109375 L 20.859375 -23.3125 L 12.609375 -23.3125 L 12.609375 -10.015625 C 12.609375 -8.578125 12.90625 -7.523438 13.5 -6.859375 C 14.09375 -6.203125 14.960938 -5.875 16.109375 -5.875 C 17.410156 -5.875 18.546875 -6.226562 19.515625 -6.9375 Z M 20.0625 -6.9375 "/></g></g></g></svg>