<svg xmlns="http://www.w3.org/2000/svg" xmlns:xlink="http://www.w3.org/1999/xlink" width="800" zoomAndPan="magnify" viewBox="0 0 600 449.999984" height="600" preserveAspectRatio="xMidYMid meet" version="1.0"><defs><g/></defs><g fill="#ff66c4" fill-opacity="1"><g transform="translate(17.859921, 190.499985)"><g><path d="M 34.171875 1.109375 C 28.828125 1.109375 24.070312 0.453125 19.90625 -0.859375 C 15.738281 -2.179688 12.265625 -3.914062 9.484375 -6.0625 C 6.710938 -8.207031 4.585938 -10.5625 3.109375 -13.125 L 11.5 -23.359375 L 12.8125 -23.359375 C 15.132812 -19.910156 18.078125 -17.164062 21.640625 -15.125 C 25.210938 -13.09375 29.390625 -12.078125 34.171875 -12.078125 C 38.253906 -12.078125 41.332031 -12.9375 43.40625 -14.65625 C 45.476562 -16.382812 46.515625 -18.757812 46.515625 -21.78125 C 46.515625 -23.601562 46.179688 -25.128906 45.515625 -26.359375 C 44.847656 -27.597656 43.738281 -28.65625 42.1875 -29.53125 C 40.644531 -30.40625 38.550781 -31.160156 35.90625 -31.796875 L 26 -34.0625 C 19.070312 -35.644531 13.910156 -38.273438 10.515625 -41.953125 C 7.128906 -45.628906 5.4375 -50.398438 5.4375 -56.265625 C 5.4375 -60.628906 6.523438 -64.460938 8.703125 -67.765625 C 10.878906 -71.066406 14.050781 -73.628906 18.21875 -75.453125 C 22.382812 -77.285156 27.367188 -78.203125 33.171875 -78.203125 C 39.109375 -78.203125 44.195312 -77.421875 48.4375 -75.859375 C 52.675781 -74.296875 56.253906 -71.894531 59.171875 -68.65625 L 51.625 -58.328125 L 50.3125 -58.328125 C 48.132812 -60.609375 45.640625 -62.320312 42.828125 -63.46875 C 40.015625 -64.613281 36.796875 -65.1875 33.171875 -65.1875 C 28.984375 -65.1875 25.800781 -64.445312 23.625 -62.96875 C 21.445312 -61.488281 20.359375 -59.445312 20.359375 -56.84375 C 20.359375 -54.414062 21.117188 -52.484375 22.640625 -51.046875 C 24.171875 -49.609375 26.820312 -48.484375 30.59375 -47.671875 L 40.71875 -45.5625 C 48.195312 -43.976562 53.625 -41.296875 57 -37.515625 C 60.375 -33.742188 62.0625 -28.816406 62.0625 -22.734375 C 62.0625 -17.910156 61.023438 -13.710938 58.953125 -10.140625 C 56.878906 -6.578125 53.75 -3.8125 49.5625 -1.84375 C 45.382812 0.125 40.253906 1.109375 34.171875 1.109375 Z M 34.171875 1.109375 "/></g></g><g transform="translate(84.094291, 190.499985)"><g><path d="M 57.484375 -25.78125 L 20.09375 -25.78125 C 20.507812 -20.71875 21.945312 -17.035156 24.40625 -14.734375 C 26.875 -12.429688 30.234375 -11.28125 34.484375 -11.28125 C 37.828125 -11.28125 40.535156 -11.90625 42.609375 -13.15625 C 44.679688 -14.40625 46.351562 -16.296875 47.625 -18.828125 L 48.734375 -18.828125 L 58.4375 -12.609375 C 56.53125 -8.523438 53.660156 -5.21875 49.828125 -2.6875 C 46.003906 -0.15625 40.890625 1.109375 34.484375 1.109375 C 28.472656 1.109375 23.28125 -0.03125 18.90625 -2.3125 C 14.53125 -4.601562 11.15625 -8.003906 8.78125 -12.515625 C 6.40625 -17.035156 5.21875 -22.550781 5.21875 -29.0625 C 5.21875 -35.664062 6.460938 -41.234375 8.953125 -45.765625 C 11.453125 -50.304688 14.828125 -53.691406 19.078125 -55.921875 C 23.335938 -58.160156 28.125 -59.28125 33.4375 -59.28125 C 41.664062 -59.28125 47.96875 -57.097656 52.34375 -52.734375 C 56.71875 -48.378906 58.90625 -41.984375 58.90625 -33.546875 C 58.90625 -30.484375 58.800781 -28.109375 58.59375 -26.421875 Z M 44.9375 -35.234375 C 44.789062 -39.660156 43.757812 -42.882812 41.84375 -44.90625 C 39.925781 -46.925781 37.125 -47.9375 33.4375 -47.9375 C 26.050781 -47.9375 21.707031 -43.703125 20.40625 -35.234375 Z M 44.9375 -35.234375 "/></g></g><g transform="translate(147.322802, 190.499985)"><g><path d="M 33.90625 1.109375 C 28.28125 1.109375 23.304688 -0.0546875 18.984375 -2.390625 C 14.660156 -4.734375 11.285156 -8.171875 8.859375 -12.703125 C 6.429688 -17.242188 5.21875 -22.695312 5.21875 -29.0625 C 5.21875 -35.457031 6.429688 -40.921875 8.859375 -45.453125 C 11.285156 -49.992188 14.640625 -53.429688 18.921875 -55.765625 C 23.210938 -58.109375 28.117188 -59.28125 33.640625 -59.28125 C 45.910156 -59.28125 53.769531 -54.832031 57.21875 -45.9375 L 47.203125 -38.765625 L 46.09375 -38.765625 C 44.894531 -41.503906 43.335938 -43.539062 41.421875 -44.875 C 39.503906 -46.207031 36.910156 -46.875 33.640625 -46.875 C 29.421875 -46.875 26.132812 -45.414062 23.78125 -42.5 C 21.425781 -39.582031 20.25 -35.101562 20.25 -29.0625 C 20.25 -23.082031 21.441406 -18.625 23.828125 -15.6875 C 26.222656 -12.75 29.582031 -11.28125 33.90625 -11.28125 C 37.070312 -11.28125 39.753906 -12.132812 41.953125 -13.84375 C 44.148438 -15.550781 45.722656 -18.003906 46.671875 -21.203125 L 47.78125 -21.3125 L 58.171875 -15.609375 C 56.691406 -10.691406 53.957031 -6.675781 49.96875 -3.5625 C 45.976562 -0.445312 40.625 1.109375 33.90625 1.109375 Z M 33.90625 1.109375 "/></g></g><g transform="translate(207.281781, 190.499985)"><g><path d="M 33.796875 1.109375 C 28.109375 1.109375 23.109375 -0.0546875 18.796875 -2.390625 C 14.492188 -4.734375 11.15625 -8.160156 8.78125 -12.671875 C 6.40625 -17.191406 5.21875 -22.65625 5.21875 -29.0625 C 5.21875 -35.457031 6.40625 -40.921875 8.78125 -45.453125 C 11.15625 -49.992188 14.492188 -53.429688 18.796875 -55.765625 C 23.109375 -58.109375 28.109375 -59.28125 33.796875 -59.28125 C 39.492188 -59.28125 44.492188 -58.109375 48.796875 -55.765625 C 53.109375 -53.429688 56.457031 -49.992188 58.84375 -45.453125 C 61.238281 -40.921875 62.4375 -35.457031 62.4375 -29.0625 C 62.4375 -22.65625 61.238281 -17.191406 58.84375 -12.671875 C 56.457031 -8.160156 53.109375 -4.734375 48.796875 -2.390625 C 44.492188 -0.0546875 39.492188 1.109375 33.796875 1.109375 Z M 33.796875 -11.28125 C 42.835938 -11.28125 47.359375 -17.207031 47.359375 -29.0625 C 47.359375 -35.207031 46.195312 -39.710938 43.875 -42.578125 C 41.550781 -45.441406 38.191406 -46.875 33.796875 -46.875 C 24.765625 -46.875 20.25 -40.9375 20.25 -29.0625 C 20.25 -17.207031 24.765625 -11.28125 33.796875 -11.28125 Z M 33.796875 -11.28125 "/></g></g><g transform="translate(274.887244, 190.499985)"><g><path d="M 8.390625 0 L 8.390625 -58.171875 L 22.40625 -58.171875 L 22.40625 -49.625 L 23.515625 -49.359375 C 27.140625 -55.972656 33.015625 -59.28125 41.140625 -59.28125 C 47.847656 -59.28125 52.773438 -57.453125 55.921875 -53.796875 C 59.066406 -50.140625 60.640625 -44.8125 60.640625 -37.8125 L 60.640625 0 L 46.03125 0 L 46.03125 -36.015625 C 46.03125 -39.878906 45.253906 -42.664062 43.703125 -44.375 C 42.160156 -46.082031 39.6875 -46.9375 36.28125 -46.9375 C 32.09375 -46.9375 28.832031 -45.582031 26.5 -42.875 C 24.164062 -40.164062 23 -35.910156 23 -30.109375 L 23 0 Z M 8.390625 0 "/></g></g><g transform="translate(343.020052, 190.499985)"><g><path d="M 28.734375 1.109375 C 24.128906 1.109375 20.0625 -0.00390625 16.53125 -2.234375 C 13 -4.472656 10.226562 -7.847656 8.21875 -12.359375 C 6.21875 -16.878906 5.21875 -22.445312 5.21875 -29.0625 C 5.21875 -35.707031 6.242188 -41.285156 8.296875 -45.796875 C 10.359375 -50.316406 13.207031 -53.691406 16.84375 -55.921875 C 20.488281 -58.160156 24.703125 -59.28125 29.484375 -59.28125 C 33.097656 -59.28125 36.234375 -58.65625 38.890625 -57.40625 C 41.546875 -56.15625 43.785156 -54.210938 45.609375 -51.578125 L 46.71875 -51.84375 L 46.71875 -81.53125 L 61.328125 -81.53125 L 61.328125 0 L 46.71875 0 L 46.71875 -7.546875 L 45.609375 -7.75 C 43.992188 -5.007812 41.78125 -2.847656 38.96875 -1.265625 C 36.15625 0.316406 32.742188 1.109375 28.734375 1.109375 Z M 33.484375 -11.28125 C 37.597656 -11.28125 40.847656 -12.75 43.234375 -15.6875 C 45.628906 -18.625 46.828125 -23.082031 46.828125 -29.0625 C 46.828125 -35.03125 45.628906 -39.488281 43.234375 -42.4375 C 40.847656 -45.394531 37.597656 -46.875 33.484375 -46.875 C 29.191406 -46.875 25.910156 -45.441406 23.640625 -42.578125 C 21.378906 -39.710938 20.25 -35.207031 20.25 -29.0625 C 20.25 -22.9375 21.378906 -18.441406 23.640625 -15.578125 C 25.910156 -12.710938 29.191406 -11.28125 33.484375 -11.28125 Z M 33.484375 -11.28125 "/></g></g><g transform="translate(412.73489, 190.499985)"><g><path d="M 22.671875 1.109375 C 18.953125 1.109375 15.71875 0.425781 12.96875 -0.9375 C 10.226562 -2.3125 8.117188 -4.328125 6.640625 -6.984375 C 5.171875 -9.640625 4.4375 -12.832031 4.4375 -16.5625 C 4.4375 -20.007812 5.171875 -22.898438 6.640625 -25.234375 C 8.117188 -27.566406 10.40625 -29.476562 13.5 -30.96875 C 16.59375 -32.46875 20.632812 -33.625 25.625 -34.4375 C 29.101562 -35 31.75 -35.613281 33.5625 -36.28125 C 35.375 -36.945312 36.597656 -37.703125 37.234375 -38.546875 C 37.867188 -39.390625 38.1875 -40.460938 38.1875 -41.765625 C 38.1875 -43.628906 37.535156 -45.050781 36.234375 -46.03125 C 34.929688 -47.019531 32.769531 -47.515625 29.75 -47.515625 C 26.507812 -47.515625 23.429688 -46.789062 20.515625 -45.34375 C 17.597656 -43.90625 15.066406 -42.007812 12.921875 -39.65625 L 11.859375 -39.65625 L 5.75 -48.890625 C 8.695312 -52.160156 12.296875 -54.707031 16.546875 -56.53125 C 20.804688 -58.363281 25.453125 -59.28125 30.484375 -59.28125 C 38.179688 -59.28125 43.75 -57.644531 47.1875 -54.375 C 50.632812 -51.101562 52.359375 -46.460938 52.359375 -40.453125 L 52.359375 -15.1875 C 52.359375 -12.582031 53.503906 -11.28125 55.796875 -11.28125 C 56.671875 -11.28125 57.53125 -11.441406 58.375 -11.765625 L 59.109375 -11.546875 L 60.171875 -1.375 C 59.359375 -0.84375 58.234375 -0.410156 56.796875 -0.078125 C 55.359375 0.253906 53.773438 0.421875 52.046875 0.421875 C 48.566406 0.421875 45.847656 -0.242188 43.890625 -1.578125 C 41.941406 -2.921875 40.546875 -5.015625 39.703125 -7.859375 L 38.609375 -7.96875 C 35.753906 -1.914062 30.441406 1.109375 22.671875 1.109375 Z M 27.3125 -9.8125 C 30.6875 -9.8125 33.382812 -10.941406 35.40625 -13.203125 C 37.425781 -15.472656 38.4375 -18.628906 38.4375 -22.671875 L 38.4375 -28.578125 L 37.4375 -28.796875 C 36.5625 -28.085938 35.410156 -27.492188 33.984375 -27.015625 C 32.566406 -26.546875 30.519531 -26.082031 27.84375 -25.625 C 24.675781 -25.101562 22.398438 -24.195312 21.015625 -22.90625 C 19.628906 -21.625 18.9375 -19.804688 18.9375 -17.453125 C 18.9375 -14.960938 19.671875 -13.066406 21.140625 -11.765625 C 22.617188 -10.460938 24.675781 -9.8125 27.3125 -9.8125 Z M 27.3125 -9.8125 "/></g></g><g transform="translate(474.064963, 190.499985)"><g><path d="M 8.390625 0 L 8.390625 -58.171875 L 22.578125 -58.171875 L 22.578125 -49.515625 L 23.671875 -49.3125 C 25.078125 -52.539062 26.921875 -54.910156 29.203125 -56.421875 C 31.492188 -57.929688 34.273438 -58.6875 37.546875 -58.6875 C 40.847656 -58.6875 43.363281 -58.125 45.09375 -57 L 42.609375 -44.40625 L 41.5 -44.1875 C 40.550781 -44.570312 39.632812 -44.851562 38.75 -45.03125 C 37.875 -45.207031 36.804688 -45.296875 35.546875 -45.296875 C 31.460938 -45.296875 28.347656 -43.863281 26.203125 -41 C 24.066406 -38.132812 23 -33.539062 23 -27.21875 L 23 0 Z M 8.390625 0 "/></g></g><g transform="translate(519.680194, 190.499985)"><g><path d="M 12.875 24.6875 C 10.375 24.6875 8.113281 24.488281 6.09375 24.09375 C 4.070312 23.707031 2.425781 23.203125 1.15625 22.578125 L 3.484375 10.765625 L 4.4375 10.4375 C 5.3125 10.894531 6.398438 11.265625 7.703125 11.546875 C 9.003906 11.828125 10.335938 11.96875 11.703125 11.96875 C 14.054688 11.96875 16.015625 11.660156 17.578125 11.046875 C 19.148438 10.429688 20.476562 9.410156 21.5625 7.984375 C 22.65625 6.566406 23.625 4.59375 24.46875 2.0625 L 1.265625 -58.171875 L 16.5625 -58.171875 L 31.015625 -17.71875 L 32.28125 -17.71875 L 46.359375 -58.171875 L 61.21875 -58.171875 L 37.859375 3.640625 C 35.992188 8.628906 33.945312 12.644531 31.71875 15.6875 C 29.488281 18.726562 26.851562 20.988281 23.8125 22.46875 C 20.769531 23.945312 17.125 24.6875 12.875 24.6875 Z M 12.875 24.6875 "/></g></g></g><g fill="#ff66c4" fill-opacity="1"><g transform="translate(95.145071, 341.249973)"><g><path d="M 34.171875 1.109375 C 28.828125 1.109375 24.070312 0.453125 19.90625 -0.859375 C 15.738281 -2.179688 12.265625 -3.914062 9.484375 -6.0625 C 6.710938 -8.207031 4.585938 -10.5625 3.109375 -13.125 L 11.5 -23.359375 L 12.8125 -23.359375 C 15.132812 -19.910156 18.078125 -17.164062 21.640625 -15.125 C 25.210938 -13.09375 29.390625 -12.078125 34.171875 -12.078125 C 38.253906 -12.078125 41.332031 -12.9375 43.40625 -14.65625 C 45.476562 -16.382812 46.515625 -18.757812 46.515625 -21.78125 C 46.515625 -23.601562 46.179688 -25.128906 45.515625 -26.359375 C 44.847656 -27.597656 43.738281 -28.65625 42.1875 -29.53125 C 40.644531 -30.40625 38.550781 -31.160156 35.90625 -31.796875 L 26 -34.0625 C 19.070312 -35.644531 13.910156 -38.273438 10.515625 -41.953125 C 7.128906 -45.628906 5.4375 -50.398438 5.4375 -56.265625 C 5.4375 -60.628906 6.523438 -64.460938 8.703125 -67.765625 C 10.878906 -71.066406 14.050781 -73.628906 18.21875 -75.453125 C 22.382812 -77.285156 27.367188 -78.203125 33.171875 -78.203125 C 39.109375 -78.203125 44.195312 -77.421875 48.4375 -75.859375 C 52.675781 -74.296875 56.253906 -71.894531 59.171875 -68.65625 L 51.625 -58.328125 L 50.3125 -58.328125 C 48.132812 -60.609375 45.640625 -62.320312 42.828125 -63.46875 C 40.015625 -64.613281 36.796875 -65.1875 33.171875 -65.1875 C 28.984375 -65.1875 25.800781 -64.445312 23.625 -62.96875 C 21.445312 -61.488281 20.359375 -59.445312 20.359375 -56.84375 C 20.359375 -54.414062 21.117188 -52.484375 22.640625 -51.046875 C 24.171875 -49.609375 26.820312 -48.484375 30.59375 -47.671875 L 40.71875 -45.5625 C 48.195312 -43.976562 53.625 -41.296875 57 -37.515625 C 60.375 -33.742188 62.0625 -28.816406 62.0625 -22.734375 C 62.0625 -17.910156 61.023438 -13.710938 58.953125 -10.140625 C 56.878906 -6.578125 53.75 -3.8125 49.5625 -1.84375 C 45.382812 0.125 40.253906 1.109375 34.171875 1.109375 Z M 34.171875 1.109375 "/></g></g><g transform="translate(161.379441, 341.249973)"><g><path d="M 40.125 -13.875 L 43.921875 -3.0625 C 42.347656 -1.757812 40.363281 -0.738281 37.96875 0 C 35.582031 0.738281 32.875 1.109375 29.84375 1.109375 C 23.550781 1.109375 18.769531 -0.601562 15.5 -4.03125 C 12.226562 -7.457031 10.59375 -12.441406 10.59375 -18.984375 L 10.59375 -46.625 L 1.734375 -46.625 L 1.734375 -58.21875 L 10.59375 -58.21875 L 10.59375 -69.5625 L 25.203125 -71.9375 L 25.203125 -58.21875 L 41.71875 -58.21875 L 41.71875 -46.625 L 25.203125 -46.625 L 25.203125 -20.046875 C 25.203125 -17.160156 25.800781 -15.054688 27 -13.734375 C 28.195312 -12.421875 29.9375 -11.765625 32.21875 -11.765625 C 34.820312 -11.765625 37.09375 -12.46875 39.03125 -13.875 Z M 40.125 -13.875 "/></g></g><g transform="translate(206.572797, 341.249973)"><g><path d="M 33.796875 1.109375 C 28.109375 1.109375 23.109375 -0.0546875 18.796875 -2.390625 C 14.492188 -4.734375 11.15625 -8.160156 8.78125 -12.671875 C 6.40625 -17.191406 5.21875 -22.65625 5.21875 -29.0625 C 5.21875 -35.457031 6.40625 -40.921875 8.78125 -45.453125 C 11.15625 -49.992188 14.492188 -53.429688 18.796875 -55.765625 C 23.109375 -58.109375 28.109375 -59.28125 33.796875 -59.28125 C 39.492188 -59.28125 44.492188 -58.109375 48.796875 -55.765625 C 53.109375 -53.429688 56.457031 -49.992188 58.84375 -45.453125 C 61.238281 -40.921875 62.4375 -35.457031 62.4375 -29.0625 C 62.4375 -22.65625 61.238281 -17.191406 58.84375 -12.671875 C 56.457031 -8.160156 53.109375 -4.734375 48.796875 -2.390625 C 44.492188 -0.0546875 39.492188 1.109375 33.796875 1.109375 Z M 33.796875 -11.28125 C 42.835938 -11.28125 47.359375 -17.207031 47.359375 -29.0625 C 47.359375 -35.207031 46.195312 -39.710938 43.875 -42.578125 C 41.550781 -45.441406 38.191406 -46.875 33.796875 -46.875 C 24.765625 -46.875 20.25 -40.9375 20.25 -29.0625 C 20.25 -17.207031 24.765625 -11.28125 33.796875 -11.28125 Z M 33.796875 -11.28125 "/></g></g><g transform="translate(274.17826, 341.249973)"><g><path d="M 8.390625 0 L 8.390625 -58.171875 L 22.578125 -58.171875 L 22.578125 -49.515625 L 23.671875 -49.3125 C 25.078125 -52.539062 26.921875 -54.910156 29.203125 -56.421875 C 31.492188 -57.929688 34.273438 -58.6875 37.546875 -58.6875 C 40.847656 -58.6875 43.363281 -58.125 45.09375 -57 L 42.609375 -44.40625 L 41.5 -44.1875 C 40.550781 -44.570312 39.632812 -44.851562 38.75 -45.03125 C 37.875 -45.207031 36.804688 -45.296875 35.546875 -45.296875 C 31.460938 -45.296875 28.347656 -43.863281 26.203125 -41 C 24.066406 -38.132812 23 -33.539062 23 -27.21875 L 23 0 Z M 8.390625 0 "/></g></g><g transform="translate(319.793491, 341.249973)"><g><path d="M 22.671875 1.109375 C 18.953125 1.109375 15.71875 0.425781 12.96875 -0.9375 C 10.226562 -2.3125 8.117188 -4.328125 6.640625 -6.984375 C 5.171875 -9.640625 4.4375 -12.832031 4.4375 -16.5625 C 4.4375 -20.007812 5.171875 -22.898438 6.640625 -25.234375 C 8.117188 -27.566406 10.40625 -29.476562 13.5 -30.96875 C 16.59375 -32.46875 20.632812 -33.625 25.625 -34.4375 C 29.101562 -35 31.75 -35.613281 33.5625 -36.28125 C 35.375 -36.945312 36.597656 -37.703125 37.234375 -38.546875 C 37.867188 -39.390625 38.1875 -40.460938 38.1875 -41.765625 C 38.1875 -43.628906 37.535156 -45.050781 36.234375 -46.03125 C 34.929688 -47.019531 32.769531 -47.515625 29.75 -47.515625 C 26.507812 -47.515625 23.429688 -46.789062 20.515625 -45.34375 C 17.597656 -43.90625 15.066406 -42.007812 12.921875 -39.65625 L 11.859375 -39.65625 L 5.75 -48.890625 C 8.695312 -52.160156 12.296875 -54.707031 16.546875 -56.53125 C 20.804688 -58.363281 25.453125 -59.28125 30.484375 -59.28125 C 38.179688 -59.28125 43.75 -57.644531 47.1875 -54.375 C 50.632812 -51.101562 52.359375 -46.460938 52.359375 -40.453125 L 52.359375 -15.1875 C 52.359375 -12.582031 53.503906 -11.28125 55.796875 -11.28125 C 56.671875 -11.28125 57.53125 -11.441406 58.375 -11.765625 L 59.109375 -11.546875 L 60.171875 -1.375 C 59.359375 -0.84375 58.234375 -0.410156 56.796875 -0.078125 C 55.359375 0.253906 53.773438 0.421875 52.046875 0.421875 C 48.566406 0.421875 45.847656 -0.242188 43.890625 -1.578125 C 41.941406 -2.921875 40.546875 -5.015625 39.703125 -7.859375 L 38.609375 -7.96875 C 35.753906 -1.914062 30.441406 1.109375 22.671875 1.109375 Z M 27.3125 -9.8125 C 30.6875 -9.8125 33.382812 -10.941406 35.40625 -13.203125 C 37.425781 -15.472656 38.4375 -18.628906 38.4375 -22.671875 L 38.4375 -28.578125 L 37.4375 -28.796875 C 36.5625 -28.085938 35.410156 -27.492188 33.984375 -27.015625 C 32.566406 -26.546875 30.519531 -26.082031 27.84375 -25.625 C 24.675781 -25.101562 22.398438 -24.195312 21.015625 -22.90625 C 19.628906 -21.625 18.9375 -19.804688 18.9375 -17.453125 C 18.9375 -14.960938 19.671875 -13.066406 21.140625 -11.765625 C 22.617188 -10.460938 24.675781 -9.8125 27.3125 -9.8125 Z M 27.3125 -9.8125 "/></g></g><g transform="translate(381.123564, 341.249973)"><g><path d="M 30.171875 24.6875 C 20.566406 24.6875 13.476562 23.28125 8.90625 20.46875 C 4.34375 17.65625 2.0625 13.734375 2.0625 8.703125 C 2.0625 5.640625 3.035156 3.132812 4.984375 1.1875 C 6.929688 -0.757812 9.734375 -2.070312 13.390625 -2.75 L 13.390625 -3.84375 C 11.421875 -5.039062 10.003906 -6.367188 9.140625 -7.828125 C 8.285156 -9.285156 7.859375 -10.984375 7.859375 -12.921875 C 7.859375 -17.597656 10.898438 -20.742188 16.984375 -22.359375 L 16.984375 -23.46875 C 13.847656 -25.257812 11.488281 -27.484375 9.90625 -30.140625 C 8.332031 -32.796875 7.546875 -36.003906 7.546875 -39.765625 C 7.546875 -43.628906 8.429688 -47.03125 10.203125 -49.96875 C 11.984375 -52.90625 14.585938 -55.191406 18.015625 -56.828125 C 21.441406 -58.460938 25.546875 -59.28125 30.328125 -59.28125 C 35.171875 -59.28125 39.035156 -58.4375 41.921875 -56.75 C 43.710938 -59.34375 44.75 -62.347656 45.03125 -65.765625 L 46.140625 -66.453125 L 56.640625 -63.859375 C 56.316406 -61.085938 55.503906 -58.757812 54.203125 -56.875 C 52.910156 -54.988281 50.890625 -53.3125 48.140625 -51.84375 L 48.140625 -50.671875 C 51.410156 -47.796875 53.046875 -43.773438 53.046875 -38.609375 C 53.046875 -35.015625 52.148438 -31.796875 50.359375 -28.953125 C 48.566406 -26.109375 45.957031 -23.859375 42.53125 -22.203125 C 39.101562 -20.546875 35.035156 -19.71875 30.328125 -19.71875 L 28.109375 -19.78125 C 26.703125 -19.84375 25.71875 -19.875 25.15625 -19.875 C 23.820312 -19.875 22.773438 -19.515625 22.015625 -18.796875 C 21.265625 -18.078125 20.890625 -17.15625 20.890625 -16.03125 C 20.890625 -14.800781 21.378906 -13.84375 22.359375 -13.15625 C 23.347656 -12.46875 24.789062 -12.09375 26.6875 -12.03125 L 39.703125 -11.546875 C 52.578125 -11.160156 59.015625 -5.625 59.015625 5.0625 C 59.015625 8.820312 58.054688 12.171875 56.140625 15.109375 C 54.222656 18.046875 51.117188 20.375 46.828125 22.09375 C 42.535156 23.820312 36.984375 24.6875 30.171875 24.6875 Z M 30.328125 -29.953125 C 33.140625 -29.953125 35.332031 -30.773438 36.90625 -32.421875 C 38.488281 -34.078125 39.28125 -36.4375 39.28125 -39.5 C 39.28125 -42.5625 38.488281 -44.90625 36.90625 -46.53125 C 35.332031 -48.164062 33.140625 -48.984375 30.328125 -48.984375 C 27.472656 -48.984375 25.269531 -48.164062 23.71875 -46.53125 C 22.175781 -44.90625 21.40625 -42.5625 21.40625 -39.5 C 21.40625 -36.40625 22.175781 -34.039062 23.71875 -32.40625 C 25.269531 -30.769531 27.472656 -29.953125 30.328125 -29.953125 Z M 30.171875 14.078125 C 35.160156 14.078125 38.785156 13.375 41.046875 11.96875 C 43.316406 10.5625 44.453125 8.734375 44.453125 6.484375 C 44.453125 4.660156 43.867188 3.316406 42.703125 2.453125 C 41.546875 1.585938 39.703125 1.125 37.171875 1.0625 L 25.6875 0.53125 C 25.300781 0.53125 24.9375 0.507812 24.59375 0.46875 C 24.257812 0.4375 23.9375 0.421875 23.625 0.421875 C 21.164062 0.421875 19.289062 0.945312 18 2 C 16.71875 3.0625 16.078125 4.519531 16.078125 6.375 C 16.078125 8.84375 17.253906 10.742188 19.609375 12.078125 C 21.972656 13.410156 25.492188 14.078125 30.171875 14.078125 Z M 30.171875 14.078125 "/></g></g><g transform="translate(441.609887, 341.249973)"><g><path d="M 57.484375 -25.78125 L 20.09375 -25.78125 C 20.507812 -20.71875 21.945312 -17.035156 24.40625 -14.734375 C 26.875 -12.429688 30.234375 -11.28125 34.484375 -11.28125 C 37.828125 -11.28125 40.535156 -11.90625 42.609375 -13.15625 C 44.679688 -14.40625 46.351562 -16.296875 47.625 -18.828125 L 48.734375 -18.828125 L 58.4375 -12.609375 C 56.53125 -8.523438 53.660156 -5.21875 49.828125 -2.6875 C 46.003906 -0.15625 40.890625 1.109375 34.484375 1.109375 C 28.472656 1.109375 23.28125 -0.03125 18.90625 -2.3125 C 14.53125 -4.601562 11.15625 -8.003906 8.78125 -12.515625 C 6.40625 -17.035156 5.21875 -22.550781 5.21875 -29.0625 C 5.21875 -35.664062 6.460938 -41.234375 8.953125 -45.765625 C 11.453125 -50.304688 14.828125 -53.691406 19.078125 -55.921875 C 23.335938 -58.160156 28.125 -59.28125 33.4375 -59.28125 C 41.664062 -59.28125 47.96875 -57.097656 52.34375 -52.734375 C 56.71875 -48.378906 58.90625 -41.984375 58.90625 -33.546875 C 58.90625 -30.484375 58.800781 -28.109375 58.59375 -26.421875 Z M 44.9375 -35.234375 C 44.789062 -39.660156 43.757812 -42.882812 41.84375 -44.90625 C 39.925781 -46.925781 37.125 -47.9375 33.4375 -47.9375 C 26.050781 -47.9375 21.707031 -43.703125 20.40625 -35.234375 Z M 44.9375 -35.234375 "/></g></g></g></svg>